<?xml version="1.0" encoding="UTF-8" standalone="no"?>
<!-- Created with Inkscape (http://www.inkscape.org/) -->

<svg
   xmlns:dc="http://purl.org/dc/elements/1.1/"
   xmlns:cc="http://creativecommons.org/ns#"
   xmlns:rdf="http://www.w3.org/1999/02/22-rdf-syntax-ns#"
   xmlns:svg="http://www.w3.org/2000/svg"
   xmlns="http://www.w3.org/2000/svg"
   xmlns:xlink="http://www.w3.org/1999/xlink"
   xmlns:sodipodi="http://sodipodi.sourceforge.net/DTD/sodipodi-0.dtd"
   xmlns:inkscape="http://www.inkscape.org/namespaces/inkscape"
   width="31"
   height="34"
   id="svg7355"
   version="1.1"
   inkscape:version="0.48.5 r10040"
   sodipodi:docname="app-control-left.svg"
   inkscape:export-filename="/home/steffen/.local/share/themes/Vertex_Shell/gnome-shell/running-indicator.png"
   inkscape:export-xdpi="90"
   inkscape:export-ydpi="90">
  <metadata
     id="metadata4175">
    <rdf:RDF>
      <cc:Work
         rdf:about="">
        <dc:format>image/svg+xml</dc:format>
        <dc:type
           rdf:resource="http://purl.org/dc/dcmitype/StillImage" />
        <dc:title />
      </cc:Work>
    </rdf:RDF>
  </metadata>
  <sodipodi:namedview
     pagecolor="#000000"
     bordercolor="#666666"
     borderopacity="1"
     objecttolerance="10"
     gridtolerance="10"
     guidetolerance="10"
     inkscape:pageopacity="0"
     inkscape:pageshadow="2"
     inkscape:window-width="1920"
     inkscape:window-height="1052"
     id="namedview4173"
     showgrid="true"
     inkscape:zoom="16"
     inkscape:cx="16.30044"
     inkscape:cy="13.238871"
     inkscape:window-x="0"
     inkscape:window-y="23"
     inkscape:window-maximized="1"
     inkscape:current-layer="layer1"
     inkscape:snap-bbox="true">
    <inkscape:grid
       type="xygrid"
       id="grid3768"
       empspacing="5"
       visible="true"
       enabled="true"
       snapvisiblegridlinesonly="true" />
  </sodipodi:namedview>
  <defs
     id="defs7357">
    <linearGradient
       id="linearGradient3783">
      <stop
         style="stop-color:#ffffff;stop-opacity:0.74345547;"
         offset="0"
         id="stop3785" />
      <stop
         style="stop-color:#ffffff;stop-opacity:0.19607843;"
         offset="1"
         id="stop3787" />
    </linearGradient>
    <linearGradient
       inkscape:collect="always"
       xlink:href="#linearGradient3783"
       id="linearGradient3789"
       x1="276.09146"
       y1="242.11809"
       x2="276.09146"
       y2="221.14761"
       gradientUnits="userSpaceOnUse"
       gradientTransform="translate(-4.3e-6,-7.4794113e-6)" />
  </defs>
  <g
     id="layer1"
     transform="matrix(1.6213276,0,0,1.6213276,-431.6347,-358.55274)">
    <path
       inkscape:connector-curvature="0"
       id="rect3999"
       d="m 268.07334,221.7644 c -0.68339,0 -1.23356,0.55017 -1.23356,1.23356 l 0,17.26979 c 0,0.68339 0.55017,1.23356 1.23356,1.23356 l 17.26979,0 c 0.6834,0 1.23356,-0.55017 1.23356,-1.23356 l 0,-17.26979 c 0,-0.68339 -0.55016,-1.23356 -1.23356,-1.23356 l -17.26979,0 z m 0,0.61678 17.26979,0 c 0.3417,0 0.61678,0.27508 0.61678,0.61678 l 0,17.26979 c 0,0.3417 -0.27508,0.61678 -0.61678,0.61678 l -17.26979,0 c -0.3417,0 -0.61678,-0.27508 -0.61678,-0.61678 l 0,-17.26979 c 0,-0.3417 0.27508,-0.61678 0.61678,-0.61678 z"
       style="opacity:0.7;fill:#000000;fill-opacity:1;stroke:#f70505;stroke-width:0;stroke-linejoin:round;stroke-miterlimit:4;stroke-opacity:1;stroke-dasharray:none;stroke-dashoffset:0" />
    <path
       style="opacity:0.15;fill:#000000;fill-opacity:1;stroke:#f70505;stroke-width:0;stroke-linejoin:round;stroke-miterlimit:4;stroke-opacity:1;stroke-dasharray:none;stroke-dashoffset:0;display:inline"
       d="m 268.07334,222.38118 c -0.3417,0 -0.61678,0.27508 -0.61678,0.61678 l 0,17.26979 c 0,0.3417 0.27508,0.61678 0.61678,0.61678 l 17.2698,0 c 0.34169,0 0.61677,-0.27508 0.61677,-0.61678 l 0,-17.26979 c 0,-0.3417 -0.27508,-0.61678 -0.61677,-0.61678 l -17.2698,0 z m 0,0.61678 17.2698,0 0,17.26979 -17.2698,0 0,-17.26979 z"
       id="rect4030-7"
       inkscape:connector-curvature="0" />
    <path
       style="opacity:0.15;fill:url(#linearGradient3789);fill-opacity:1;stroke:#f70505;stroke-width:0;stroke-linejoin:round;stroke-miterlimit:4;stroke-opacity:1;stroke-dasharray:none;stroke-dashoffset:0"
       d="m 268.07334,221.14762 c -1.02509,0 -1.85034,0.82525 -1.85034,1.85034 l 0,17.26979 c 0,1.02509 0.82525,1.85034 1.85034,1.85034 l 17.26979,0 c 1.02509,0 1.85034,-0.82525 1.85034,-1.85034 l 0,-17.26979 c 0,-1.02509 -0.82525,-1.85034 -1.85034,-1.85034 l -17.26979,0 z m -0.0964,0.61678 17.46254,0 c 0.63225,0 1.13718,0.50493 1.13718,1.13718 l 0,17.46255 c 0,0.63225 -0.50493,1.13718 -1.13718,1.13718 l -17.46254,0 c -0.63226,0 -1.13719,-0.50493 -1.13719,-1.13718 l 0,-17.46255 c 0,-0.63225 0.50493,-1.13718 1.13719,-1.13718 z"
       id="rect3778"
       inkscape:connector-curvature="0" />
    <rect
       style="opacity:0.06000001;fill:#ffffff;fill-opacity:1;stroke:#7c7c7c;stroke-width:0;stroke-linejoin:round;stroke-miterlimit:4;stroke-opacity:1;stroke-dasharray:none;stroke-dashoffset:0"
       id="rect3781"
       width="0.61677849"
       height="18.503355"
       x="284.72635"
       y="222.99796"
       ry="5.1964048e-07" />
  </g>
</svg>
