/* XPM */
static char * close_inactive_xpm[] = {
"22 22 72 1",
" 	c None",
".	c #000000",
"+	c #6D7077",
"@	c #4D4F52",
"#	c #4C4E51",
"$	c #4B4D50",
"%	c #404144",
"&	c #343638",
"*	c #303234",
"=	c #404244",
"-	c #48494C",
";	c #343537",
">	c #2D2E30",
",	c #2B2C2E",
"'	c #2A2B2D",
")	c #4A4C4F",
"!	c #2C2D2F",
"~	c #595A5D",
"{	c #6A6B6E",
"]	c #5A5C5E",
"^	c #343637",
"/	c #4B4D4F",
"(	c #3E4042",
"_	c #2E2F30",
":	c #333435",
"<	c #66686A",
"[	c #5C5E60",
"}	c #57585A",
"|	c #3F4042",
"1	c #545558",
"2	c #535558",
"3	c #515355",
"4	c #353639",
"5	c #4A4C4E",
"6	c #313234",
"7	c #2B2C2D",
"8	c #56585A",
"9	c #505254",
"0	c #565759",
"a	c #494B4E",
"b	c #363739",
"c	c #414346",
"d	c #36383A",
"e	c #494B4D",
"f	c #4D4F51",
"g	c #434446",
"h	c #2F3032",
"i	c #303133",
"j	c #484A4C",
"k	c #2F3132",
"l	c #444647",
"m	c #484A4D",
"n	c #545659",
"o	c #2E2F31",
"p	c #47484B",
"q	c #36373A",
"r	c #4E5052",
"s	c #555759",
"t	c #37393A",
"u	c #2D2E2F",
"v	c #2C2D2E",
"w	c #47494C",
"x	c #4E5053",
"y	c #5A5C5F",
"z	c #38393C",
"A	c #323335",
"B	c #47494B",
"C	c #535557",
"D	c #5B5D5F",
"E	c #606163",
"F	c #46484A",
"G	c #454749",
"......................",
"++++++++++++++++++++++",
"@@@@@@@@@@@@@@@@@@@@@@",
"@@@@@@@@@@@@@@@@@@@@@@",
"######################",
"#######$%&**&=$#######",
"$$$$$$-;>,'',>;-$$$$$$",
"$$$$$);!;~{{]^>&)$$$$$",
"/////(_:<[}}[<:_|/////",
")))))&!12333321!4)))))",
"5555567899999907655555",
"aaaa)*,@@@@@@@@,6)aaaa",
"aaaa@b!c######%!d@aaaa",
"eeeefghij////jkhlfeeee",
"mmmmanboo(pp(ooqnammmm",
"jjjjjrsthuvvuktsfjjjjj",
"wwwwwwxyjzAAzjyxwwwwww",
"BBBBBBBeCDEEDCeBBBBBBB",
"BBBBBBBBBBBBBBBBBBBBBB",
"FFFFFFFFFFFFFFFFFFFFFF",
"FFFFFFFFFFFFFFFFFFFFFF",
"GGGGGGGGGGGGGGGGGGGGGG"};
