/* XPM */
static char * maximize_pressed_xpm[] = {
"22 22 84 1",
" 	c None",
".	c #000000",
"+	c #6D7077",
"@	c #4D4F52",
"#	c #4C4E51",
"$	c #4A4C4F",
"%	c #383A3C",
"&	c #262728",
"*	c #1F2021",
"=	c #4B4D50",
"-	c #46474A",
";	c #252628",
">	c #1A1B1C",
",	c #171819",
"'	c #161718",
")	c #46484A",
"!	c #494B4E",
"~	c #191A1B",
"{	c #292A2C",
"]	c #2E2F31",
"^	c #2A2B2C",
"/	c #1B1C1D",
"(	c #1A1A1B",
"_	c #262729",
":	c #4B4D4F",
"<	c #37393A",
"[	c #1C1D1E",
"}	c #1B1C1C",
"|	c #313334",
"1	c #333435",
"2	c #27282A",
"3	c #2D2E30",
"4	c #353739",
"5	c #28292B",
"6	c #4A4C4E",
"7	c #212223",
"8	c #18191A",
"9	c #38393B",
"0	c #393B3C",
"a	c #222324",
"b	c #3A3C3E",
"c	c #3C3E40",
"d	c #505255",
"e	c #2B2C2D",
"f	c #1B1B1D",
"g	c #333437",
"h	c #404144",
"i	c #323436",
"j	c #2B2C2E",
"k	c #494B4D",
"l	c #515355",
"m	c #3F4142",
"n	c #404243",
"o	c #434547",
"p	c #404143",
"q	c #1E1E1F",
"r	c #505254",
"s	c #484A4D",
"t	c #5B5D60",
"u	c #1D1E20",
"v	c #1E1F20",
"w	c #363739",
"x	c #434548",
"y	c #484A4C",
"z	c #525355",
"A	c #5D5E60",
"B	c #2D2E2F",
"C	c #202121",
"D	c #202122",
"E	c #2E2F30",
"F	c #5D5F60",
"G	c #47494C",
"H	c #535558",
"I	c #67686B",
"J	c #2E3031",
"K	c #252627",
"L	c #303133",
"M	c #535557",
"N	c #47494B",
"O	c #5C5E60",
"P	c #686A6C",
"Q	c #707173",
"R	c #5B5D5F",
"S	c #454749",
"......................",
"++++++++++++++++++++++",
"@@@@@@@@@@@@@@@@@@@@@@",
"@@@@@@@@@@@@@@@@@@@@@@",
"######################",
"#######$%&**&%=#######",
"======-;>,'',>&)======",
"=====!&~>{]]^/(_!=====",
":::::<[}|1111|}[<:::::",
"$$$$$2~34444443~5$$$$$",
"66666789000000<8a66666",
"!!!!=a8bccccccb8a=!!!!",
"!!!!defghhhhhhifjd!!!!",
"kkkklm**noooopq*nrkkkk",
"ssss$teuvwxx4vvjt$ssss",
"yyyyyzABC[>>[DEFlyyyyy",
"GGGGGGHIkJKKLkIMGGGGGG",
"NNNNNNN6OPQQPR6NNNNNNN",
"NNNNNNNNNNNNNNNNNNNNNN",
"))))))))))))))))))))))",
"))))))))))))))))))))))",
"SSSSSSSSSSSSSSSSSSSSSS"};
