/* XPM */
static char * maximize_prelight_xpm[] = {
"22 22 97 2",
"  	c None",
". 	c #000000",
"+ 	c #6D7077",
"@ 	c #4D4F52",
"# 	c #4C4E51",
"$ 	c #4A4C4F",
"% 	c #383A3C",
"& 	c #262728",
"* 	c #1F2021",
"= 	c #4B4D50",
"- 	c #46474A",
"; 	c #252628",
"> 	c #1A1B1C",
", 	c #171819",
"' 	c #161718",
") 	c #46484A",
"! 	c #494B4E",
"~ 	c #191A1B",
"{ 	c #2C2D28",
"] 	c #929363",
"^ 	c #BEC078",
"/ 	c #939564",
"( 	c #30312B",
"_ 	c #1A1A1B",
": 	c #262729",
"< 	c #4B4D4F",
"[ 	c #37393A",
"} 	c #1C1D1E",
"| 	c #2C2D27",
"1 	c #BDBE6E",
"2 	c #BEC15A",
"3 	c #BABD50",
"4 	c #2B2B26",
"5 	c #27282A",
"6 	c #8A8B57",
"7 	c #B8BA4A",
"8 	c #B6B845",
"9 	c #898B57",
"0 	c #28292B",
"a 	c #4A4C4E",
"b 	c #212223",
"c 	c #18191A",
"d 	c #B0B34E",
"e 	c #B4B63F",
"f 	c #AEB04D",
"g 	c #222324",
"h 	c #A9AA3C",
"i 	c #B1B439",
"j 	c #A8AA3C",
"k 	c #505255",
"l 	c #2B2C2D",
"m 	c #1B1B1D",
"n 	c #727430",
"o 	c #AFB233",
"p 	c #6E702F",
"q 	c #2B2C2E",
"r 	c #494B4D",
"s 	c #515355",
"t 	c #3F4142",
"u 	c #272920",
"v 	c #9FA12C",
"w 	c #ACAF2D",
"x 	c #9CA02C",
"y 	c #23231F",
"z 	c #404243",
"A 	c #505254",
"B 	c #484A4D",
"C 	c #5B5D60",
"D 	c #1D1E20",
"E 	c #23241E",
"F 	c #696C27",
"G 	c #9FA228",
"H 	c #9FA128",
"I 	c #696B27",
"J 	c #22241E",
"K 	c #1E1F20",
"L 	c #484A4C",
"M 	c #525355",
"N 	c #5D5E60",
"O 	c #2D2E2F",
"P 	c #202121",
"Q 	c #202122",
"R 	c #2E2F30",
"S 	c #5D5F60",
"T 	c #47494C",
"U 	c #535558",
"V 	c #67686B",
"W 	c #2E3031",
"X 	c #252627",
"Y 	c #303133",
"Z 	c #535557",
"` 	c #47494B",
" .	c #5C5E60",
"..	c #686A6C",
"+.	c #707173",
"@.	c #5B5D5F",
"#.	c #454749",
". . . . . . . . . . . . . . . . . . . . . . ",
"+ + + + + + + + + + + + + + + + + + + + + + ",
"@ @ @ @ @ @ @ @ @ @ @ @ @ @ @ @ @ @ @ @ @ @ ",
"@ @ @ @ @ @ @ @ @ @ @ @ @ @ @ @ @ @ @ @ @ @ ",
"# # # # # # # # # # # # # # # # # # # # # # ",
"# # # # # # # $ % & * * & % = # # # # # # # ",
"= = = = = = - ; > , ' ' , > & ) = = = = = = ",
"= = = = = ! & ~ { ] ^ ^ / ( _ : ! = = = = = ",
"< < < < < [ } | 1 2 3 3 2 1 4 } [ < < < < < ",
"$ $ $ $ $ 5 ~ 6 7 8 8 8 8 7 9 ~ 0 $ $ $ $ $ ",
"a a a a a b c d e e e e e e f c g a a a a a ",
"! ! ! ! = g c h i i i i i i j c g = ! ! ! ! ",
"! ! ! ! k l m n o o o o o o p m q k ! ! ! ! ",
"r r r r s t * u v w w w w x y * z A r r r r ",
"B B B B $ C l D E F G H I J K q C $ B B B B ",
"L L L L L M N O P } > > } Q R S s L L L L L ",
"T T T T T T U V r W X X Y r V Z T T T T T T ",
"` ` ` ` ` ` ` a  ...+.+...@.a ` ` ` ` ` ` ` ",
"` ` ` ` ` ` ` ` ` ` ` ` ` ` ` ` ` ` ` ` ` ` ",
") ) ) ) ) ) ) ) ) ) ) ) ) ) ) ) ) ) ) ) ) ) ",
") ) ) ) ) ) ) ) ) ) ) ) ) ) ) ) ) ) ) ) ) ) ",
"#.#.#.#.#.#.#.#.#.#.#.#.#.#.#.#.#.#.#.#.#.#."};
