/* XPM */
static char * close_pressed_xpm[] = {
"24 24 120 2",
"  	c None",
". 	c #000000",
"+ 	c #6D7077",
"@ 	c #4D4F52",
"# 	c #4C4E51",
"$ 	c #4D4E52",
"% 	c #4D4E51",
"& 	c #4C4E52",
"* 	c #4C4F51",
"= 	c #4C4F52",
"- 	c #4C4E50",
"; 	c #4B4E51",
"> 	c #4B4D50",
", 	c #4C4D51",
"' 	c #4B4D51",
") 	c #4C4D50",
"! 	c #484B4D",
"~ 	c #2F3133",
"{ 	c #1D1E1F",
"] 	c #141516",
"^ 	c #484A4E",
"/ 	c #4B4E50",
"( 	c #434548",
"_ 	c #1C1C1D",
": 	c #171819",
"< 	c #18191A",
"[ 	c #19191A",
"} 	c #1B1C1D",
"| 	c #4B4D4F",
"1 	c #4A4D50",
"2 	c #484A4C",
"3 	c #161617",
"4 	c #151617",
"5 	c #474A4D",
"6 	c #4A4D4F",
"7 	c #4A4C4F",
"8 	c #4B4C4F",
"9 	c #4A4C50",
"0 	c #2F3132",
"a 	c #141515",
"b 	c #B7B7B7",
"c 	c #6E6E6F",
"d 	c #6C6D6D",
"e 	c #B7B7B8",
"f 	c #4A4C4E",
"g 	c #1C1D1E",
"h 	c #171718",
"i 	c #757576",
"j 	c #B9BABA",
"k 	c #717272",
"l 	c #717172",
"m 	c #7A7A7B",
"n 	c #1D1D1E",
"o 	c #494C4E",
"p 	c #494B4E",
"q 	c #4A4B4F",
"r 	c #181919",
"s 	c #1A1A1B",
"t 	c #767677",
"u 	c #7C7D7D",
"v 	c #4A4B4E",
"w 	c #181819",
"x 	c #737374",
"y 	c #B9B9BA",
"z 	c #787979",
"A 	c #191A1B",
"B 	c #151516",
"C 	c #494B4D",
"D 	c #505254",
"E 	c #1D1E1E",
"F 	c #161718",
"G 	c #707171",
"H 	c #757676",
"I 	c #494A4D",
"J 	c #515255",
"K 	c #333436",
"L 	c #141415",
"M 	c #B6B7B7",
"N 	c #353537",
"O 	c #505255",
"P 	c #484A4D",
"Q 	c #5A5C5F",
"R 	c #5B5D5F",
"S 	c #484B4C",
"T 	c #48494C",
"U 	c #474A4C",
"V 	c #525355",
"W 	c #585A5C",
"X 	c #161717",
"Y 	c #58595B",
"Z 	c #515355",
"` 	c #47494C",
" .	c #474A4B",
"..	c #545657",
"+.	c #66686A",
"@.	c #3B3D3D",
"#.	c #1E1F20",
"$.	c #3B3C3E",
"%.	c #666869",
"&.	c #525556",
"*.	c #47494B",
"=.	c #5C5E60",
"-.	c #696B6D",
";.	c #707173",
">.	c #696C6C",
",.	c #5D5E61",
"'.	c #46494B",
").	c #47484B",
"!.	c #46484B",
"~.	c #46494A",
"{.	c #47494A",
"].	c #46484A",
"^.	c #47484A",
"/.	c #45474A",
"(.	c #45484A",
"_.	c #46474A",
":.	c #464749",
"<.	c #464849",
"[.	c #454749",
"}.	c #454849",
". . . . . . . . . . . . . . . . . . . . . . . . ",
"+ + + + + + + + + + + + + + + + + + + + + + + + ",
"@ @ @ @ @ @ @ @ @ @ @ @ @ @ @ @ @ @ @ @ @ @ @ @ ",
"# $ % & @ * $ = # * @ & # $ % & @ * $ = # * @ & ",
"# # # # % # # * # * # # # # # # % # # * # * # # ",
"# - - # # # # # ; - > , # - - # # # # # ; - > , ",
"' - ' ' ) ) > - ! ~ { ] ] { ~ ^ ) ) > - / / > / ",
") > > > > > > ( _ ] : < [ : ] } ( > > > ) > / > ",
"> > | 1 > 1 2 } 3 < [ < [ [ [ 4 } 5 | > > 6 | 1 ",
"7 7 | 8 8 9 0 a [ b c [ < d e [ a ~ 6 6 | 7 8 8 ",
"7 f 7 7 7 f g h < i j k l j m < h n 7 7 f 7 7 7 ",
"o p q f 7 f ] r < s t j j u s < < ] o o p f p f ",
"o f p v v - ] w < s x y j z A < w B - p o v p p ",
"C C p C C D E F r G y H H y k r F { D p C p p p ",
"! C C ! I J K L r M l A A k M r L N O I C C I I ",
"! P ! P 2 7 Q } B w r w r w r B } R 7 ! I P S P ",
"2 2 T U 2 2 V W g L F : : X L g Y Z 2 2 T 2 5 P ",
"2 ` `  . .` T ..+.@.#.a a #.$.%.&.` T 2 U  .2 U ",
"*. .T ` *.*.*.*.f =.-.;.;.>.,.7 *.*.*.*.*.*.` *.",
"'.*.).).!.*.).*.*.'.*.*.'.*.).).!.*.).*.*.'.*.*.",
"!.~.!.*.'.{.~.].^.!.~.!.!.~.!.*.'.{.~.].^.!.~.!.",
"].!.].'.].!.].].].].].^.].!.].'.].!.].].].].].^.",
"/.].].].(._.].(.(._.:.(./.].].].(._.].(.(._.:.(.",
"/.<.[.[.:.}.:.(./.(.[.[./.<.[.[.:.}.:.(./.(.[.[."};
