/* XPM */
static char * close_prelight_xpm[] = {
"22 22 77 1",
" 	c None",
".	c #000000",
"+	c #6D7077",
"@	c #4D4F52",
"#	c #4C4E51",
"$	c #4A4C4F",
"%	c #323436",
"&	c #212223",
"*	c #191A1B",
"=	c #333436",
"-	c #4B4D50",
";	c #444649",
">	c #1F2021",
",	c #1D1D1F",
"'	c #1E1F20",
")	c #494B4E",
"!	c #1B1C1D",
"~	c #4B4D4F",
"{	c #323334",
"]	c #F8F8F8",
"^	c #969696",
"/	c #929293",
"(	c #FBFBFB",
"_	c #202021",
":	c #323335",
"<	c #202122",
"[	c #1C1D1E",
"}	c #9E9E9E",
"|	c #FFFFFF",
"1	c #9B9B9C",
"2	c #989999",
"3	c #A7A7A7",
"4	c #202123",
"5	c #4A4C4E",
"6	c #19191A",
"7	c #1E1E1F",
"8	c #A0A1A1",
"9	c #A9A9A9",
"0	c #18191A",
"a	c #1D1E1F",
"b	c #1E1E20",
"c	c #949495",
"d	c #A5A6A6",
"e	c #505255",
"f	c #989899",
"g	c #9E9F9F",
"h	c #1C1C1D",
"i	c #222224",
"j	c #494B4D",
"k	c #515355",
"l	c #37383A",
"m	c #9A9A9B",
"n	c #1F2020",
"o	c #999A9A",
"p	c #F9F9F9",
"q	c #484A4D",
"r	c #5B5D60",
"s	c #1A1A1C",
"t	c #5B5D5F",
"u	c #484A4C",
"v	c #525355",
"w	c #5A5B5D",
"x	c #202121",
"y	c #1D1E1E",
"z	c #595B5C",
"A	c #47494C",
"B	c #535557",
"C	c #66676A",
"D	c #3E3F41",
"E	c #232425",
"F	c #525457",
"G	c #47494B",
"H	c #5C5E60",
"I	c #696B6C",
"J	c #707173",
"K	c #46484A",
"L	c #454749",
"......................",
"++++++++++++++++++++++",
"@@@@@@@@@@@@@@@@@@@@@@",
"@@@@@@@@@@@@@@@@@@@@@@",
"######################",
"#######$%&**&=$#######",
"------;>*,'',*>;------",
"-----)>!''''''!>)-----",
"~~~~~{*']^''/(_*:~~~~~",
"$$$$$<['}|12|3'[4$$$$$",
"5555567'>8||9>'7655555",
"))))-0abbc||d>ba6-))))",
"))))e&[bf|8g|1bhie))))",
"jjjjkl67]mnnopn6lkjjjj",
"qqqq$r>saaaaaas>t$qqqq",
"uuuuuvwx0!yy!0xzkuuuuu",
"AAAAAABCDE66EDCFAAAAAA",
"GGGGGGG5HIJJIH5GGGGGGG",
"GGGGGGGGGGGGGGGGGGGGGG",
"KKKKKKKKKKKKKKKKKKKKKK",
"KKKKKKKKKKKKKKKKKKKKKK",
"LLLLLLLLLLLLLLLLLLLLLL"};
