/* XPM */
static char * close_prelight_xpm[] = {
"22 22 94 2",
"  	c None",
". 	c #000000",
"+ 	c #6D7077",
"@ 	c #4D4F52",
"# 	c #4C4E51",
"$ 	c #4A4C4F",
"% 	c #383A3C",
"& 	c #262728",
"* 	c #1F2021",
"= 	c #4B4D50",
"- 	c #46474A",
"; 	c #252628",
"> 	c #1A1B1C",
", 	c #171819",
"' 	c #161718",
") 	c #46484A",
"! 	c #494B4E",
"~ 	c #191A1B",
"{ 	c #2C2728",
"] 	c #936263",
"^ 	c #C07778",
"/ 	c #946364",
"( 	c #302A2B",
"_ 	c #1A1A1B",
": 	c #262729",
"< 	c #4B4D4F",
"[ 	c #37393A",
"} 	c #1C1D1E",
"| 	c #2C2727",
"1 	c #BD6E6E",
"2 	c #C0595A",
"3 	c #BC5050",
"4 	c #2B2526",
"5 	c #27282A",
"6 	c #8A5657",
"7 	c #BA484A",
"8 	c #B84445",
"9 	c #28292B",
"0 	c #4A4C4E",
"a 	c #212223",
"b 	c #18191A",
"c 	c #B24D4E",
"d 	c #B53E3F",
"e 	c #B04C4D",
"f 	c #222324",
"g 	c #A93B3C",
"h 	c #B33839",
"i 	c #505255",
"j 	c #2B2C2D",
"k 	c #1B1B1D",
"l 	c #732F30",
"m 	c #B13133",
"n 	c #6F2E2F",
"o 	c #2B2C2E",
"p 	c #494B4D",
"q 	c #515355",
"r 	c #3F4142",
"s 	c #281F20",
"t 	c #A02B2C",
"u 	c #AF2C2D",
"v 	c #9F2B2C",
"w 	c #231E1F",
"x 	c #404243",
"y 	c #505254",
"z 	c #484A4D",
"A 	c #5B5D60",
"B 	c #1D1E20",
"C 	c #231D1E",
"D 	c #6B2627",
"E 	c #A12628",
"F 	c #A02728",
"G 	c #6A2627",
"H 	c #1E1F20",
"I 	c #484A4C",
"J 	c #525355",
"K 	c #5D5E60",
"L 	c #2D2E2F",
"M 	c #202121",
"N 	c #202122",
"O 	c #2E2F30",
"P 	c #5D5F60",
"Q 	c #47494C",
"R 	c #535558",
"S 	c #67686B",
"T 	c #2E3031",
"U 	c #252627",
"V 	c #303133",
"W 	c #535557",
"X 	c #47494B",
"Y 	c #5C5E60",
"Z 	c #686A6C",
"` 	c #707173",
" .	c #5B5D5F",
"..	c #454749",
". . . . . . . . . . . . . . . . . . . . . . ",
"+ + + + + + + + + + + + + + + + + + + + + + ",
"@ @ @ @ @ @ @ @ @ @ @ @ @ @ @ @ @ @ @ @ @ @ ",
"@ @ @ @ @ @ @ @ @ @ @ @ @ @ @ @ @ @ @ @ @ @ ",
"# # # # # # # # # # # # # # # # # # # # # # ",
"# # # # # # # $ % & * * & % = # # # # # # # ",
"= = = = = = - ; > , ' ' , > & ) = = = = = = ",
"= = = = = ! & ~ { ] ^ ^ / ( _ : ! = = = = = ",
"< < < < < [ } | 1 2 3 3 2 1 4 } [ < < < < < ",
"$ $ $ $ $ 5 ~ 6 7 8 8 8 8 7 6 ~ 9 $ $ $ $ $ ",
"0 0 0 0 0 a b c d d d d d d e b f 0 0 0 0 0 ",
"! ! ! ! = f b g h h h h h h g b f = ! ! ! ! ",
"! ! ! ! i j k l m m m m m m n k o i ! ! ! ! ",
"p p p p q r * s t u u u u v w * x y p p p p ",
"z z z z $ A j B C D E F G C H o A $ z z z z ",
"I I I I I J K L M } > > } N O P q I I I I I ",
"Q Q Q Q Q Q R S p T U U V p S W Q Q Q Q Q Q ",
"X X X X X X X 0 Y Z ` ` Z  .0 X X X X X X X ",
"X X X X X X X X X X X X X X X X X X X X X X ",
") ) ) ) ) ) ) ) ) ) ) ) ) ) ) ) ) ) ) ) ) ) ",
") ) ) ) ) ) ) ) ) ) ) ) ) ) ) ) ) ) ) ) ) ) ",
"............................................"};
