/* XPM */
static char * close_pressed_xpm[] = {
"22 22 74 1",
" 	c None",
".	c #000000",
"+	c #6D7077",
"@	c #4D4F52",
"#	c #4C4E51",
"$	c #494B4E",
"%	c #303133",
"&	c #1D1E1F",
"*	c #151516",
"=	c #4B4D50",
"-	c #434548",
";	c #1B1C1D",
">	c #141516",
",	c #171819",
"'	c #18191A",
")	c #484A4D",
"!	c #161617",
"~	c #19191A",
"{	c #4B4D4F",
"]	c #2F3132",
"^	c #141515",
"/	c #B7B7B7",
"(	c #6E6F6F",
"_	c #6C6D6D",
":	c #B7B7B8",
"<	c #4A4C4F",
"[	c #1C1D1E",
"}	c #171718",
"|	c #757576",
"1	c #B9BABA",
"2	c #717272",
"3	c #717172",
"4	c #7A7A7B",
"5	c #1D1D1E",
"6	c #4A4C4E",
"7	c #181919",
"8	c #1A1A1B",
"9	c #767677",
"0	c #7D7D7D",
"a	c #181819",
"b	c #191A1B",
"c	c #737374",
"d	c #B9B9BA",
"e	c #787979",
"f	c #505255",
"g	c #161718",
"h	c #707171",
"i	c #757676",
"j	c #494B4D",
"k	c #515355",
"l	c #343536",
"m	c #141415",
"n	c #B6B7B7",
"o	c #353637",
"p	c #5A5C5F",
"q	c #5B5D5F",
"r	c #484A4C",
"s	c #525355",
"t	c #585A5C",
"u	c #161717",
"v	c #58595B",
"w	c #47494C",
"x	c #535557",
"y	c #66676A",
"z	c #3B3C3E",
"A	c #1E1E20",
"B	c #1E1F20",
"C	c #525457",
"D	c #47494B",
"E	c #5C5E60",
"F	c #696B6C",
"G	c #707173",
"H	c #46484A",
"I	c #454749",
"......................",
"++++++++++++++++++++++",
"@@@@@@@@@@@@@@@@@@@@@@",
"@@@@@@@@@@@@@@@@@@@@@@",
"######################",
"#######$%&**&%$#######",
"======-;>,'',>;-======",
"=====);!~~~~~~!;)=====",
"{{{{{]^~/(~~_:~^%{{{{{",
"<<<<<[}'|12314'}5<<<<<",
"66666>7'891108'7>66666",
"$$$$=>a'bcddeb'a>=$$$$",
"$$$$f&g'hdiid2'g&f$$$$",
"jjjjklm7n2bb2n7mokjjjj",
"))))<p;*aaaaaa*;q<))))",
"rrrrrst[mu,,um[vkrrrrr",
"wwwwwwxyzA^^BzyCwwwwww",
"DDDDDDD6EFGGFE6DDDDDDD",
"DDDDDDDDDDDDDDDDDDDDDD",
"HHHHHHHHHHHHHHHHHHHHHH",
"HHHHHHHHHHHHHHHHHHHHHH",
"IIIIIIIIIIIIIIIIIIIIII"};
