/* XPM */
static char * hide_prelight_xpm[] = {
"22 22 58 1",
" 	c None",
".	c #000000",
"+	c #6D7077",
"@	c #4D4F52",
"#	c #4C4E51",
"$	c #4A4C4F",
"%	c #323436",
"&	c #212223",
"*	c #191A1B",
"=	c #333436",
"-	c #4B4D50",
";	c #444649",
">	c #1F2021",
",	c #1D1D1F",
"'	c #1E1F20",
")	c #494B4E",
"!	c #1B1C1D",
"~	c #4B4D4F",
"{	c #323334",
"]	c #323335",
"^	c #202122",
"/	c #1C1D1E",
"(	c #202123",
"_	c #4A4C4E",
":	c #19191A",
"<	c #1E1E1F",
"[	c #FFFFFF",
"}	c #18191A",
"|	c #1D1E1F",
"1	c #1E1E20",
"2	c #505255",
"3	c #1C1C1D",
"4	c #222224",
"5	c #494B4D",
"6	c #515355",
"7	c #37383A",
"8	c #484A4D",
"9	c #5B5D60",
"0	c #1A1A1C",
"a	c #5B5D5F",
"b	c #484A4C",
"c	c #525355",
"d	c #5A5B5D",
"e	c #202121",
"f	c #1D1E1E",
"g	c #595B5C",
"h	c #47494C",
"i	c #535557",
"j	c #66676A",
"k	c #3E3F41",
"l	c #232425",
"m	c #525457",
"n	c #47494B",
"o	c #5C5E60",
"p	c #696B6C",
"q	c #707173",
"r	c #46484A",
"s	c #454749",
"......................",
"++++++++++++++++++++++",
"@@@@@@@@@@@@@@@@@@@@@@",
"@@@@@@@@@@@@@@@@@@@@@@",
"######################",
"#######$%&**&=$#######",
"------;>*,'',*>;------",
"-----)>!''''''!>)-----",
"~~~~~{*''''''''*]~~~~~",
"$$$$$^/''''''''/($$$$$",
"_____:<'[[[[[['<:_____",
"))))-}|1[[[[[[1|:-))))",
"))))2&/11111111342))))",
"555567:<<<<<<<<:765555",
"8888$9>0||||||0>a$8888",
"bbbbbcde}!ff!}eg6bbbbb",
"hhhhhhijkl::lkjmhhhhhh",
"nnnnnnn_opqqpo_nnnnnnn",
"nnnnnnnnnnnnnnnnnnnnnn",
"rrrrrrrrrrrrrrrrrrrrrr",
"rrrrrrrrrrrrrrrrrrrrrr",
"ssssssssssssssssssssss"};
