/* XPM */
static char * hide_pressed_xpm[] = {
"22 22 57 1",
" 	c None",
".	c #000000",
"+	c #6D7077",
"@	c #4D4F52",
"#	c #4C4E51",
"$	c #494B4E",
"%	c #303133",
"&	c #1D1E1F",
"*	c #151516",
"=	c #4B4D50",
"-	c #434548",
";	c #1B1C1D",
">	c #141516",
",	c #171819",
"'	c #18191A",
")	c #484A4D",
"!	c #161617",
"~	c #19191A",
"{	c #4B4D4F",
"]	c #2F3132",
"^	c #141515",
"/	c #4A4C4F",
"(	c #1C1D1E",
"_	c #171718",
":	c #1D1D1E",
"<	c #4A4C4E",
"[	c #181919",
"}	c #B9BABA",
"|	c #181819",
"1	c #B9B9BA",
"2	c #505255",
"3	c #161718",
"4	c #494B4D",
"5	c #515355",
"6	c #343536",
"7	c #141415",
"8	c #353637",
"9	c #5A5C5F",
"0	c #5B5D5F",
"a	c #484A4C",
"b	c #525355",
"c	c #585A5C",
"d	c #161717",
"e	c #58595B",
"f	c #47494C",
"g	c #535557",
"h	c #66676A",
"i	c #3B3C3E",
"j	c #1E1E20",
"k	c #1E1F20",
"l	c #525457",
"m	c #47494B",
"n	c #5C5E60",
"o	c #696B6C",
"p	c #707173",
"q	c #46484A",
"r	c #454749",
"......................",
"++++++++++++++++++++++",
"@@@@@@@@@@@@@@@@@@@@@@",
"@@@@@@@@@@@@@@@@@@@@@@",
"######################",
"#######$%&**&%$#######",
"======-;>,'',>;-======",
"=====);!~~~~~~!;)=====",
"{{{{{]^~~~~~~~~^%{{{{{",
"/////(_''''''''_://///",
"<<<<<>['}}}}}}'[><<<<<",
"$$$$=>|'111111'|>=$$$$",
"$$$$2&3''''''''3&2$$$$",
"4444567[[[[[[[[7854444",
"))))/9;*||||||*;0/))))",
"aaaaabc(7d,,d7(e5aaaaa",
"ffffffghij^^kihlffffff",
"mmmmmmm<noppon<mmmmmmm",
"mmmmmmmmmmmmmmmmmmmmmm",
"qqqqqqqqqqqqqqqqqqqqqq",
"qqqqqqqqqqqqqqqqqqqqqq",
"rrrrrrrrrrrrrrrrrrrrrr"};
