/* XPM */
static char * maximize_pressed_xpm[] = {
"22 22 67 1",
" 	c None",
".	c #000000",
"+	c #6D7077",
"@	c #4D4F52",
"#	c #4C4E51",
"$	c #494B4E",
"%	c #303133",
"&	c #1D1E1F",
"*	c #151516",
"=	c #4B4D50",
"-	c #434548",
";	c #1B1C1D",
">	c #141516",
",	c #171819",
"'	c #18191A",
")	c #484A4D",
"!	c #161617",
"~	c #19191A",
"{	c #4B4D4F",
"]	c #2F3132",
"^	c #141515",
"/	c #1C1D1E",
"(	c #868687",
"_	c #B9BABA",
":	c #9A9A9B",
"<	c #4A4C4F",
"[	c #171718",
"}	c #1D1D1E",
"|	c #4A4C4E",
"1	c #181919",
"2	c #1A1A1B",
"3	c #8A8B8B",
"4	c #1A1B1B",
"5	c #828283",
"6	c #181819",
"7	c #191A1B",
"8	c #B9B9BA",
"9	c #505255",
"0	c #161718",
"a	c #858686",
"b	c #1C1C1D",
"c	c #494B4D",
"d	c #515355",
"e	c #343536",
"f	c #141415",
"g	c #9C9C9C",
"h	c #353637",
"i	c #5A5C5F",
"j	c #5B5D5F",
"k	c #484A4C",
"l	c #525355",
"m	c #585A5C",
"n	c #161717",
"o	c #58595B",
"p	c #47494C",
"q	c #535557",
"r	c #66676A",
"s	c #3B3C3E",
"t	c #1E1E20",
"u	c #1E1F20",
"v	c #525457",
"w	c #47494B",
"x	c #5C5E60",
"y	c #696B6C",
"z	c #707173",
"A	c #46484A",
"B	c #454749",
"......................",
"++++++++++++++++++++++",
"@@@@@@@@@@@@@@@@@@@@@@",
"@@@@@@@@@@@@@@@@@@@@@@",
"######################",
"#######$%&**&%$#######",
"======-;>,'',>;-======",
"=====);!~~~~~~!;)=====",
"{{{{{]^~~/(__:~^%{{{{{",
"<<<<</['/'/(__'[}<<<<<",
"|||||>123/'45_'1>|||||",
"$$$$=>6783/'25'6>=$$$$",
"$$$$9&0788ab'b'0&9$$$$",
"ccccdef1g88ab11fhdcccc",
"))))<i;*666666*;j<))))",
"kkkkklm/fn,,nf/odkkkkk",
"ppppppqrst^^usrvpppppp",
"wwwwwww|xyzzyx|wwwwwww",
"wwwwwwwwwwwwwwwwwwwwww",
"AAAAAAAAAAAAAAAAAAAAAA",
"AAAAAAAAAAAAAAAAAAAAAA",
"BBBBBBBBBBBBBBBBBBBBBB"};
