/* XPM */
static char * maximize_prelight_xpm[] = {
"22 22 70 1",
" 	c None",
".	c #000000",
"+	c #6D7077",
"@	c #4D4F52",
"#	c #4C4E51",
"$	c #4A4C4F",
"%	c #323436",
"&	c #212223",
"*	c #191A1B",
"=	c #333436",
"-	c #4B4D50",
";	c #444649",
">	c #1F2021",
",	c #1D1D1F",
"'	c #1E1F20",
")	c #494B4E",
"!	c #1B1C1D",
"~	c #4B4D4F",
"{	c #323334",
"]	c #232324",
"^	c #B7B7B7",
"/	c #FFFFFF",
"(	c #D2D2D3",
"_	c #323335",
":	c #202122",
"<	c #1C1D1E",
"[	c #222324",
"}	c #202123",
"|	c #4A4C4E",
"1	c #19191A",
"2	c #1E1E1F",
"3	c #BDBDBD",
"4	c #242526",
"5	c #212122",
"6	c #B1B1B1",
"7	c #18191A",
"8	c #1D1E1F",
"9	c #BCBDBD",
"0	c #1E1E20",
"a	c #B0B1B1",
"b	c #505255",
"c	c #1C1C1D",
"d	c #222224",
"e	c #494B4D",
"f	c #515355",
"g	c #37383A",
"h	c #D5D5D5",
"i	c #222323",
"j	c #484A4D",
"k	c #5B5D60",
"l	c #1A1A1C",
"m	c #5B5D5F",
"n	c #484A4C",
"o	c #525355",
"p	c #5A5B5D",
"q	c #202121",
"r	c #1D1E1E",
"s	c #595B5C",
"t	c #47494C",
"u	c #535557",
"v	c #66676A",
"w	c #3E3F41",
"x	c #232425",
"y	c #525457",
"z	c #47494B",
"A	c #5C5E60",
"B	c #696B6C",
"C	c #707173",
"D	c #46484A",
"E	c #454749",
"......................",
"++++++++++++++++++++++",
"@@@@@@@@@@@@@@@@@@@@@@",
"@@@@@@@@@@@@@@@@@@@@@@",
"######################",
"#######$%&**&=$#######",
"------;>*,'',*>;------",
"-----)>!''''''!>)-----",
"~~~~~{*'']^//('*_~~~~~",
"$$$$$:<'['[^//'<}$$$$$",
"|||||12>34'56/'21|||||",
"))))-78>/940:a081-))))",
"))))b&<>//^[0[0cdb))))",
"eeeefg12h//^i221gfeeee",
"jjjj$k>l888888l>m$jjjj",
"nnnnnopq7!rr!7qsfnnnnn",
"ttttttuvwx11xwvytttttt",
"zzzzzzz|ABCCBA|zzzzzzz",
"zzzzzzzzzzzzzzzzzzzzzz",
"DDDDDDDDDDDDDDDDDDDDDD",
"DDDDDDDDDDDDDDDDDDDDDD",
"EEEEEEEEEEEEEEEEEEEEEE"};
