/* XPM */
static char * maximize_prelight_xpm[] = {
"24 24 120 2",
"  	c None",
". 	c #000000",
"+ 	c #6D7077",
"@ 	c #4D4F52",
"# 	c #4C4E51",
"$ 	c #4D4E52",
"% 	c #4D4E51",
"& 	c #4C4E52",
"* 	c #4C4F51",
"= 	c #4C4F52",
"- 	c #4C4E50",
"; 	c #4B4E51",
"> 	c #4B4D50",
", 	c #4C4D51",
"' 	c #4B4D51",
") 	c #4C4D50",
"! 	c #494C4E",
"~ 	c #323435",
"{ 	c #202123",
"] 	c #191A1A",
"^ 	c #19191B",
"/ 	c #212223",
"( 	c #323336",
"_ 	c #494B4F",
": 	c #4B4E50",
"< 	c #444649",
"[ 	c #1F2021",
"} 	c #191A1B",
"| 	c #1D1E1F",
"1 	c #1E1F20",
"2 	c #1D1D1F",
"3 	c #4B4D4F",
"4 	c #4A4D50",
"5 	c #494B4D",
"6 	c #1B1C1D",
"7 	c #1A1C1D",
"8 	c #484B4E",
"9 	c #4A4D4F",
"0 	c #4A4C4F",
"a 	c #4B4C4F",
"b 	c #4A4C50",
"c 	c #313334",
"d 	c #232324",
"e 	c #B7B7B7",
"f 	c #FFFFFF",
"g 	c #D2D2D3",
"h 	c #313335",
"i 	c #4A4C4E",
"j 	c #202122",
"k 	c #1C1D1E",
"l 	c #222324",
"m 	c #494B4E",
"n 	c #4A4B4F",
"o 	c #18191A",
"p 	c #BDBDBD",
"q 	c #242526",
"r 	c #B0B1B1",
"s 	c #1E1E20",
"t 	c #19191A",
"u 	c #4A4B4E",
"v 	c #BCBDBD",
"w 	c #212122",
"x 	c #1E1E1F",
"y 	c #505254",
"z 	c #1F2020",
"A 	c #222323",
"B 	c #1C1C1D",
"C 	c #222223",
"D 	c #484B4D",
"E 	c #494A4D",
"F 	c #515255",
"G 	c #37383A",
"H 	c #D5D5D5",
"I 	c #B6B7B7",
"J 	c #505255",
"K 	c #484A4D",
"L 	c #484A4C",
"M 	c #5B5D60",
"N 	c #1A1A1C",
"O 	c #5B5D5F",
"P 	c #484B4C",
"Q 	c #48494C",
"R 	c #474A4C",
"S 	c #525355",
"T 	c #5A5B5D",
"U 	c #202021",
"V 	c #1D1E1E",
"W 	c #1F2121",
"X 	c #595B5C",
"Y 	c #515355",
"Z 	c #474A4D",
"` 	c #47494C",
" .	c #474A4B",
"..	c #545657",
"+.	c #66686A",
"@.	c #3E4040",
"#.	c #232425",
"$.	c #3E3F41",
"%.	c #666869",
"&.	c #525556",
"*.	c #47494B",
"=.	c #5C5E60",
"-.	c #696B6D",
";.	c #707173",
">.	c #696C6C",
",.	c #5D5E61",
"'.	c #46494B",
").	c #47484B",
"!.	c #46484B",
"~.	c #46494A",
"{.	c #47494A",
"].	c #46484A",
"^.	c #47484A",
"/.	c #45474A",
"(.	c #45484A",
"_.	c #46474A",
":.	c #464749",
"<.	c #464849",
"[.	c #454749",
"}.	c #454849",
". . . . . . . . . . . . . . . . . . . . . . . . ",
"+ + + + + + + + + + + + + + + + + + + + + + + + ",
"@ @ @ @ @ @ @ @ @ @ @ @ @ @ @ @ @ @ @ @ @ @ @ @ ",
"# $ % & @ * $ = # * @ & # $ % & @ * $ = # * @ & ",
"# # # # % # # * # * # # # # # # % # # * # * # # ",
"# - - # # # # # ; - > , # - - # # # # # ; - > , ",
"' - ' ' ) ) > - ! ~ { ] ^ / ( _ ) ) > - : : > : ",
") > > > > > > < [ } | 1 1 2 } [ < > > > ) > : > ",
"> > 3 4 > 4 5 [ 6 1 1 1 1 1 1 7 [ 8 3 > > 9 3 4 ",
"0 0 3 a a b c } 1 1 d e f f g 1 } h 9 9 3 0 a a ",
"0 i 0 0 0 i j k 1 l 1 l e f f 1 k j 0 0 i 0 0 0 ",
"! m n i 0 i o | [ p q 1 j r f 1 s t ! ! m i m i ",
"! i m u u - t | [ f v q 1 w r s x ] - m ! u m m ",
"5 5 m 5 5 y / k z f f e A x l x B C y m 5 m m m ",
"D 5 5 D E F G t x H f f I A x | t G J E 5 5 E E ",
"D K D K L 0 M [ N | | | | | | N [ O 0 D E K P K ",
"L L Q R L L S T U o 6 | V 6 o W X Y L L Q L Z K ",
"L ` `  . .` Q ..+.@.#.] ] #.$.%.&.` Q L R  .L R ",
"*. .Q ` *.*.*.*.i =.-.;.;.>.,.0 *.*.*.*.*.*.` *.",
"'.*.).).!.*.).*.*.'.*.*.'.*.).).!.*.).*.*.'.*.*.",
"!.~.!.*.'.{.~.].^.!.~.!.!.~.!.*.'.{.~.].^.!.~.!.",
"].!.].'.].!.].].].].].^.].!.].'.].!.].].].].].^.",
"/.].].].(._.].(.(._.:.(./.].].].(._.].(.(._.:.(.",
"/.<.[.[.:.}.:.(./.(.[.[./.<.[.[.:.}.:.(./.(.[.[."};
