/* XPM */
static char * menu_active_xpm[] = {
"16 22 34 1",
" 	c None",
".	c #000000",
"+	c #6D7077",
"@	c #4D4F52",
"#	c #4C4E51",
"$	c #4B4D50",
"%	c #4B4D4F",
"&	c #4A4C4F",
"*	c #A1A2A3",
"=	c #6C6E70",
"-	c #4A4C4E",
";	c #C9CACA",
">	c #FFFFFF",
",	c #5D5E60",
"'	c #C9C9CA",
")	c #494B4E",
"!	c #B9BABB",
"~	c #FBFBFB",
"{	c #686A6C",
"]	c #66676A",
"^	c #FAFAFA",
"/	c #BDBEBF",
"(	c #C5C6C7",
"_	c #F8F8F8",
":	c #F9F9F9",
"<	c #C6C7C8",
"[	c #494B4D",
"}	c #C7C7C8",
"|	c #484A4D",
"1	c #484A4C",
"2	c #47494C",
"3	c #47494B",
"4	c #46484A",
"5	c #454749",
"................",
"++++++++++++++++",
"@@@@@@@@@@@@@@@@",
"@@@@@@@@@@@@@@@@",
"################",
"################",
"$$$$$$$$$$$$$$$$",
"$$$$$$$$$$$$$$$$",
"%%%%%%%%%%%%%%%%",
"&&&&*=&&&&=*&&&&",
"----;>,--,>'----",
")))))!~{]^/)))))",
"))))))(_:<))))))",
"[[[[[[-}}-[[[[[[",
"||||||||||||||||",
"1111111111111111",
"2222222222222222",
"3333333333333333",
"3333333333333333",
"4444444444444444",
"4444444444444444",
"5555555555555555"};
