<?xml version="1.0" encoding="UTF-8" standalone="no"?>
<svg
   xmlns:dc="http://purl.org/dc/elements/1.1/"
   xmlns:cc="http://creativecommons.org/ns#"
   xmlns:rdf="http://www.w3.org/1999/02/22-rdf-syntax-ns#"
   xmlns:svg="http://www.w3.org/2000/svg"
   xmlns="http://www.w3.org/2000/svg"
   xmlns:sodipodi="http://sodipodi.sourceforge.net/DTD/sodipodi-0.dtd"
   xmlns:inkscape="http://www.inkscape.org/namespaces/inkscape"
   width="54"
   height="54"
   viewBox="0 0 54 54.000001"
   id="svg2"
   version="1.1"
   inkscape:version="0.48.4 r9939"
   sodipodi:docname="launcher_icon_edge_54.svg">
  <metadata
     id="metadata12">
    <rdf:RDF>
      <cc:Work
         rdf:about="">
        <dc:format>image/svg+xml</dc:format>
        <dc:type
           rdf:resource="http://purl.org/dc/dcmitype/StillImage" />
      </cc:Work>
    </rdf:RDF>
  </metadata>
  <sodipodi:namedview
     pagecolor="#ffffff"
     bordercolor="#666666"
     borderopacity="1"
     objecttolerance="10"
     gridtolerance="10"
     guidetolerance="10"
     inkscape:pageopacity="0"
     inkscape:pageshadow="2"
     inkscape:window-width="1301"
     inkscape:window-height="673"
     id="namedview10"
     showgrid="true"
     inkscape:zoom="4.3703704"
     inkscape:cx="9.6923271"
     inkscape:cy="15.817126"
     inkscape:window-x="65"
     inkscape:window-y="24"
     inkscape:window-maximized="1"
     inkscape:current-layer="svg2"
     inkscape:snap-bbox="true">
    <inkscape:grid
       type="xygrid"
       id="grid3757" />
  </sodipodi:namedview>
  <defs
     id="defs4">
    <clipPath
       id="clipPath6">
      <path
         d="m 440,81.001953 c -1.67866,0 -2.99805,1.319387 -2.99805,2.998047 l 0,44 c 0,1.67866 1.31939,2.99805 2.99805,2.99805 l 44,0 c 1.67866,0 2.99805,-1.31939 2.99805,-2.99805 l 0,-44 c 0,-1.67866 -1.31939,-2.998047 -2.99805,-2.998047 l -44,0 z"
         id="path8" />
    </clipPath>
  </defs>
  <rect
     style="opacity:0.45;fill:#000000;fill-opacity:1;stroke-width:0;stroke-miterlimit:4;stroke-dasharray:none"
     id="rect3759"
     width="54"
     height="52.970341"
     x="-5e-07"
     y="0"
     ry="1.9618645" />
  <path
     style="opacity:0.4;fill:#000000;fill-opacity:1;stroke-width:0;stroke-miterlimit:4;stroke-dasharray:none"
     d="M 1.9687495,0 C 0.8818795,0 -5e-7,0.88187698 -5e-7,1.96875 l 0,49.0625 C -5e-7,52.118123 0.8818795,53 1.9687495,53 l 50.0624995,0 c 1.086873,0 1.96875,-0.881877 1.96875,-1.96875 l 0,-49.0625 C 53.999999,0.88187698 53.118122,0 52.031249,0 L 1.9687495,0 z m 0.03125,0.99999998 49.9999995,0 c 0.554,0 1,0.44600002 1,1.00000002 l 0,49 c 0,0.554 -0.446,1 -1,1 L 1.9999995,52 c -0.554,0 -1,-0.446 -1,-1 l 0,-49 c 0,-0.554 0.446,-1.00000002 1,-1.00000002 z"
     id="rect3772"
     inkscape:connector-curvature="0" />
</svg>
