<?xml version="1.0" encoding="UTF-8" standalone="no"?>
<!-- Created with Inkscape (http://www.inkscape.org/) -->

<svg
   xmlns:dc="http://purl.org/dc/elements/1.1/"
   xmlns:cc="http://creativecommons.org/ns#"
   xmlns:rdf="http://www.w3.org/1999/02/22-rdf-syntax-ns#"
   xmlns:svg="http://www.w3.org/2000/svg"
   xmlns="http://www.w3.org/2000/svg"
   xmlns:xlink="http://www.w3.org/1999/xlink"
   xmlns:sodipodi="http://sodipodi.sourceforge.net/DTD/sodipodi-0.dtd"
   xmlns:inkscape="http://www.inkscape.org/namespaces/inkscape"
   width="24"
   height="24"
   id="svg4306"
   version="1.1"
   inkscape:version="0.48.4 r9939"
   sodipodi:docname="maximize_unfocused.svg"
   style="enable-background:new">
  <defs
     id="defs4308">
    <linearGradient
       id="linearGradient3770">
      <stop
         style="stop-color:#000000;stop-opacity:0.62827224;"
         offset="0"
         id="stop3772" />
      <stop
         style="stop-color:#000000;stop-opacity:0.49803922;"
         offset="1"
         id="stop3774" />
    </linearGradient>
    <linearGradient
       id="linearGradient4882">
      <stop
         style="stop-color:#ffffff;stop-opacity:1;"
         offset="0"
         id="stop4884" />
      <stop
         style="stop-color:#ffffff;stop-opacity:0;"
         offset="1"
         id="stop4886" />
    </linearGradient>
    <linearGradient
       id="linearGradient3784-6">
      <stop
         style="stop-color:#ffffff;stop-opacity:0.21568628;"
         offset="0"
         id="stop3786-4" />
      <stop
         style="stop-color:#ffffff;stop-opacity:0;"
         offset="1"
         id="stop3788-6" />
    </linearGradient>
    <linearGradient
       y2="11"
       x2="8"
       y1="3"
       x1="8"
       gradientUnits="userSpaceOnUse"
       id="linearGradient4257"
       xlink:href="#linearGradient3784-6"
       inkscape:collect="always" />
    <linearGradient
       inkscape:collect="always"
       xlink:href="#linearGradient3770"
       id="linearGradient4281"
       gradientUnits="userSpaceOnUse"
       gradientTransform="matrix(0.85714286,0,0,0.85714286,5.1428571,1033.5051)"
       x1="8"
       y1="1"
       x2="8"
       y2="15" />
    <linearGradient
       inkscape:collect="always"
       xlink:href="#linearGradient4882"
       id="linearGradient4283"
       gradientUnits="userSpaceOnUse"
       x1="8"
       y1="16"
       x2="8"
       y2="8"
       gradientTransform="matrix(0.875,0,0,0.875,5,1033.3622)" />
  </defs>
  <sodipodi:namedview
     id="base"
     pagecolor="#f0f1f2"
     bordercolor="#666666"
     borderopacity="1.0"
     inkscape:pageopacity="1"
     inkscape:pageshadow="2"
     inkscape:zoom="11.313709"
     inkscape:cx="7.9514269"
     inkscape:cy="13.36921"
     inkscape:document-units="px"
     inkscape:current-layer="layer1"
     showgrid="true"
     showguides="true"
     inkscape:guide-bbox="true"
     inkscape:window-width="1012"
     inkscape:window-height="723"
     inkscape:window-x="207"
     inkscape:window-y="40"
     inkscape:window-maximized="0"
     inkscape:snap-bbox="true"
     inkscape:snap-global="true"
     inkscape:snap-bbox-midpoints="false">
    <inkscape:grid
       type="xygrid"
       id="grid4314"
       empspacing="5"
       visible="true"
       enabled="true"
       snapvisiblegridlinesonly="true" />
    <sodipodi:guide
       orientation="1,0"
       position="8,8"
       id="guide4316" />
    <sodipodi:guide
       orientation="0,1"
       position="8,8"
       id="guide4318" />
  </sodipodi:namedview>
  <metadata
     id="metadata4311">
    <rdf:RDF>
      <cc:Work
         rdf:about="">
        <dc:format>image/svg+xml</dc:format>
        <dc:type
           rdf:resource="http://purl.org/dc/dcmitype/StillImage" />
        <dc:title></dc:title>
      </cc:Work>
    </rdf:RDF>
  </metadata>
  <g
     inkscape:label="Ebene 1"
     inkscape:groupmode="layer"
     id="layer1"
     transform="translate(0,-1028.3622)"
     style="opacity:0.61565833">
    <path
       style="opacity:0.25;fill:url(#linearGradient4283);fill-opacity:1;stroke:#000000;stroke-width:0;stroke-linejoin:miter;stroke-miterlimit:4;stroke-opacity:1;stroke-dasharray:none"
       d="m 12,1033.3622 c -3.8659932,0 -7,3.134 -7,7 0,3.866 3.1340068,7 7,7 3.865993,0 7,-3.134 7,-7 0,-3.866 -3.134007,-7 -7,-7 z m 0,1 c 3.313708,0 6,2.6863 6,6 0,3.3137 -2.686292,6 -6,6 -3.3137085,0 -6,-2.6863 -6,-6 0,-3.3137 2.6862915,-6 6,-6 z"
       id="path4878"
       inkscape:connector-curvature="0" />
    <path
       style="fill:url(#linearGradient4281);fill-opacity:1;stroke:#000000;stroke-width:0;stroke-linejoin:miter;stroke-miterlimit:4;stroke-opacity:1;stroke-dasharray:none"
       d="m 12,1034.3622 c -3.3137085,0 -6,2.6863 -6,6 0,3.3137 2.6862915,6 6,6 3.313709,0 6,-2.6863 6,-6 0,-3.3137 -2.686291,-6 -6,-6 z m 0,2 c 2.209139,0 4,1.7909 4,4 0,2.2091 -1.790861,4 -4,4 -2.209139,0 -4,-1.7909 -4,-4 0,-2.2091 1.790861,-4 4,-4 z"
       id="path4880"
       inkscape:connector-curvature="0" />
    <path
       style="fill:#000000;fill-opacity:0.23754787;stroke:none"
       d="m 12,1035.3622 c -2.7614237,0 -5,2.2386 -5,5 0,2.7614 2.2385763,5 5,5 2.761424,0 5,-2.2386 5,-5 0,-2.7614 -2.238576,-5 -5,-5 z m 0,1 c 2.209139,0 4,1.7909 4,4 0,2.2091 -1.790861,4 -4,4 -2.209139,0 -4,-1.7909 -4,-4 0,-2.2091 1.790861,-4 4,-4 z"
       id="path3812"
       inkscape:connector-curvature="0" />
    <path
       sodipodi:type="arc"
       style="opacity:0.45907473;fill:url(#linearGradient4257);fill-opacity:1;stroke:none"
       id="path3847"
       sodipodi:cx="8"
       sodipodi:cy="7"
       sodipodi:rx="4"
       sodipodi:ry="4"
       d="M 12,7 A 4,4 0 1 1 4,7 4,4 0 1 1 12,7 z"
       transform="translate(4,1033.3622)" />
    <path
       style="opacity:0.25;fill:#ffffff;fill-opacity:1;stroke:none"
       d="m 12,1036.3622 c -2.209139,0 -4,1.7909 -4,4 0,0.1701 0.04189,0.3355 0.0625,0.5 0.247066,-1.972 1.898481,-3.5 3.9375,-3.5 2.039019,0 3.690434,1.528 3.9375,3.5 0.02061,-0.1645 0.0625,-0.3299 0.0625,-0.5 0,-2.2091 -1.790861,-4 -4,-4 z"
       id="path3847-2"
       inkscape:connector-curvature="0" />
  </g>
</svg>
