<?xml version="1.0" encoding="UTF-8" standalone="no"?>
<!-- Generator: Adobe Illustrator 13.0.2, SVG Export Plug-In . SVG Version: 6.00 Build 14948)  -->

<svg
   xmlns:dc="http://purl.org/dc/elements/1.1/"
   xmlns:cc="http://creativecommons.org/ns#"
   xmlns:rdf="http://www.w3.org/1999/02/22-rdf-syntax-ns#"
   xmlns:svg="http://www.w3.org/2000/svg"
   xmlns="http://www.w3.org/2000/svg"
   xmlns:xlink="http://www.w3.org/1999/xlink"
   xmlns:sodipodi="http://sodipodi.sourceforge.net/DTD/sodipodi-0.dtd"
   xmlns:inkscape="http://www.inkscape.org/namespaces/inkscape"
   version="1.0"
   id="Foreground"
   x="0px"
   y="0px"
   width="26"
   height="26"
   viewBox="0 0 18.909091 18.909091"
   enable-background="new 0 0 16 16"
   xml:space="preserve"
   sodipodi:version="0.32"
   inkscape:version="0.91 r13725"
   sodipodi:docname="message-list-close-hover.svg"
   inkscape:output_extension="org.inkscape.output.svg.inkscape"><metadata
     id="metadata2399"><rdf:RDF><cc:Work
         rdf:about=""><dc:format>image/svg+xml</dc:format><dc:type
           rdf:resource="http://purl.org/dc/dcmitype/StillImage" /><dc:title /></cc:Work></rdf:RDF></metadata><defs
     id="defs2397"><linearGradient
       id="linearGradient3845"><stop
         id="stop3847"
         offset="0"
         style="stop-color:#000000;stop-opacity:0.18039216;" /><stop
         id="stop3849"
         offset="1"
         style="stop-color:#000000;stop-opacity:0.43137255;" /></linearGradient><linearGradient
       id="linearGradient3837"><stop
         id="stop3839"
         offset="0"
         style="stop-color:#ffffff;stop-opacity:1;" /><stop
         style="stop-color:#ffffff;stop-opacity:0;"
         offset="0.08333334"
         id="stop3781" /><stop
         id="stop3783"
         offset="0.90909094"
         style="stop-color:#0b0b0b;stop-opacity:0;" /><stop
         id="stop3841"
         offset="1"
         style="stop-color:#000000;stop-opacity:0.02745098;" /></linearGradient><linearGradient
       gradientTransform="matrix(0.72727272,0,0,0.72727272,-2.9090857,-2.1818221)"
       gradientUnits="userSpaceOnUse"
       y2="27"
       x2="17"
       y1="5"
       x1="17"
       id="linearGradient3842-4"
       xlink:href="#linearGradient4397"
       inkscape:collect="always" /><linearGradient
       id="linearGradient4397"
       inkscape:collect="always"><stop
         id="stop4399"
         offset="0"
         style="stop-color:#797c84;stop-opacity:1" /><stop
         id="stop4401"
         offset="1"
         style="stop-color:#555558;stop-opacity:1" /></linearGradient></defs><sodipodi:namedview
     inkscape:window-height="720"
     inkscape:window-width="1364"
     inkscape:pageshadow="2"
     inkscape:pageopacity="0"
     guidetolerance="10.0"
     gridtolerance="10.0"
     objecttolerance="10.0"
     borderopacity="1.0"
     bordercolor="#666666"
     pagecolor="#3e3e3e"
     id="base"
     showgrid="true"
     inkscape:zoom="16"
     inkscape:cx="-3.6424283"
     inkscape:cy="14.011453"
     inkscape:window-x="0"
     inkscape:window-y="23"
     inkscape:current-layer="Foreground"
     showguides="true"
     inkscape:guide-bbox="true"
     borderlayer="true"
     inkscape:showpageshadow="false"
     inkscape:window-maximized="0"
     fit-margin-top="0"
     fit-margin-left="0"
     fit-margin-right="0"
     fit-margin-bottom="0"
     inkscape:snap-bbox="true"
     inkscape:bbox-paths="true"
     inkscape:bbox-nodes="true"
     inkscape:snap-bbox-edge-midpoints="false"><inkscape:grid
       type="xygrid"
       id="grid11246"
       empspacing="5"
       visible="true"
       enabled="true"
       snapvisiblegridlinesonly="true"
       originx="-3.6363603"
       originy="-2.9090857" /></sodipodi:namedview><g
     id="g4333"
     transform="translate(3.6485275e-6,3.6546726e-6)"><g
       style="opacity:0.8"
       transform="translate(1.8442626,0.64207074)"
       id="g3175-4-5"><g
         id="g3172-6-2" /></g><circle
       r="8.727273"
       cy="9.4545412"
       cx="9.4545498"
       id="path3003-8"
       style="opacity:0.5;fill:#000000;fill-opacity:1;stroke:#f70505;stroke-width:0;stroke-linejoin:round;stroke-miterlimit:4;stroke-dasharray:none;stroke-dashoffset:0;stroke-opacity:1" /><circle
       r="8"
       cy="9.4545412"
       cx="9.4545498"
       id="path3808-6"
       style="opacity:1;fill:url(#linearGradient3842-4);fill-opacity:1;stroke:#f70505;stroke-width:0;stroke-linejoin:round;stroke-miterlimit:4;stroke-dasharray:none;stroke-dashoffset:0;stroke-opacity:1" /><g
       transform="matrix(0.72727272,0,0,0.72727272,4.1762051,2.783836)"
       style="display:inline;fill:#000000;fill-opacity:1"
       id="g27275-6-6-6-8"
       inkscape:label="window-close"><g
         style="display:inline;fill:#000000;fill-opacity:1"
         id="g27277-1-1-2-7"
         transform="translate(-41,-760)"><path
           sodipodi:nodetypes="ccsccccccccccccccccccccccc"
           style="color:#bebebe;font-style:normal;font-variant:normal;font-weight:normal;font-stretch:normal;font-size:medium;line-height:normal;font-family:'Andale Mono';-inkscape-font-specification:'Andale Mono';text-indent:0;text-align:start;text-decoration:none;text-decoration-line:none;letter-spacing:normal;word-spacing:normal;text-transform:none;direction:ltr;block-progression:tb;writing-mode:lr-tb;text-anchor:start;display:inline;overflow:visible;visibility:visible;opacity:0.5;fill:#000000;fill-opacity:1;fill-rule:nonzero;stroke:none;stroke-width:1.78124988;marker:none;enable-background:new"
           id="path27279-0-5-8-7"
           inkscape:connector-curvature="0"
           d="m 44.226475,764.17222 1,0 c 0.01037,-1.2e-4 0.02079,-4.6e-4 0.03125,0 0.254951,0.0112 0.50987,0.12858 0.6875,0.3125 l 2.28125,2.28125 2.3125,-2.28125 c 0.265625,-0.2305 0.446672,-0.3055 0.6875,-0.3125 l 1,0 0,1 c 0,0.28647 -0.03434,0.55065 -0.25,0.75 l -2.28125,2.28125 2.25,2.25 c 0.188188,0.18817 0.281242,0.45345 0.28125,0.71875 l 0,1 -1,0 c -0.265301,-1e-5 -0.530586,-0.0931 -0.71875,-0.28125 l -2.28125,-2.28125 -2.28125,2.28125 c -0.188164,0.18819 -0.45346,0.28125 -0.71875,0.28125 l -1,0 0,-1 c -3e-6,-0.26529 0.09306,-0.53058 0.28125,-0.71875 l 2.28125,-2.25 -2.28125,-2.28125 c -0.210742,-0.19463 -0.30316,-0.46925 -0.28125,-0.75 l 0,-1 z" /></g></g><g
       transform="matrix(0.72727273,0,0,0.72727273,4.2045505,3.5383207)"
       style="display:inline;fill:#ffffff;fill-opacity:1"
       id="g27275-6-6-5"
       inkscape:label="window-close"><g
         style="display:inline;fill:#ffffff;fill-opacity:1"
         id="g27277-1-1-0"
         transform="translate(-41,-760)"><path
           sodipodi:nodetypes="ccsccccccccccccccccccccccc"
           style="color:#bebebe;font-style:normal;font-variant:normal;font-weight:normal;font-stretch:normal;font-size:medium;line-height:normal;font-family:'Andale Mono';-inkscape-font-specification:'Andale Mono';text-indent:0;text-align:start;text-decoration:none;text-decoration-line:none;letter-spacing:normal;word-spacing:normal;text-transform:none;direction:ltr;block-progression:tb;writing-mode:lr-tb;text-anchor:start;display:inline;overflow:visible;visibility:visible;fill:#ffffff;fill-opacity:1;fill-rule:nonzero;stroke:none;stroke-width:1.78124988;marker:none;enable-background:new"
           id="path27279-0-5-0"
           inkscape:connector-curvature="0"
           d="m 44.226475,764.17222 1,0 c 0.01037,-1.2e-4 0.02079,-4.6e-4 0.03125,0 0.254951,0.0112 0.50987,0.12858 0.6875,0.3125 l 2.28125,2.28125 2.3125,-2.28125 c 0.265625,-0.2305 0.446672,-0.3055 0.6875,-0.3125 l 1,0 0,1 c 0,0.28647 -0.03434,0.55065 -0.25,0.75 l -2.28125,2.28125 2.25,2.25 c 0.188188,0.18817 0.281242,0.45345 0.28125,0.71875 l 0,1 -1,0 c -0.265301,-1e-5 -0.530586,-0.0931 -0.71875,-0.28125 l -2.28125,-2.28125 -2.28125,2.28125 c -0.188164,0.18819 -0.45346,0.28125 -0.71875,0.28125 l -1,0 0,-1 c -3e-6,-0.26529 0.09306,-0.53058 0.28125,-0.71875 l 2.28125,-2.25 -2.28125,-2.28125 c -0.210742,-0.19463 -0.30316,-0.46925 -0.28125,-0.75 l 0,-1 z" /></g></g><path
       inkscape:connector-curvature="0"
       id="path3808-0-0"
       d="m 9.4545503,1.4545414 c -4.4182778,0 -7.9999997,3.5817222 -7.9999997,8.0000004 0,0.122777 0.017255,0.24221 0.022727,0.363636 0.1914686,-4.2482385 3.6817716,-7.6363636 7.9772727,-7.6363636 4.2955007,0 7.7858047,3.3881251 7.9772727,7.6363636 0.0055,-0.121426 0.02273,-0.240859 0.02273,-0.363636 0,-4.4182782 -3.581722,-8.0000004 -7.9999997,-8.0000004 z"
       style="opacity:0.15;fill:#ffffff;fill-opacity:1;stroke:#f70505;stroke-width:0;stroke-linejoin:round;stroke-miterlimit:4;stroke-dasharray:none;stroke-dashoffset:0;stroke-opacity:1" /></g></svg>