<?xml version="1.0" encoding="UTF-8" standalone="no"?>
<!-- Created with Inkscape (http://www.inkscape.org/) -->

<svg
   xmlns:dc="http://purl.org/dc/elements/1.1/"
   xmlns:cc="http://creativecommons.org/ns#"
   xmlns:rdf="http://www.w3.org/1999/02/22-rdf-syntax-ns#"
   xmlns:svg="http://www.w3.org/2000/svg"
   xmlns="http://www.w3.org/2000/svg"
   xmlns:xlink="http://www.w3.org/1999/xlink"
   xmlns:sodipodi="http://sodipodi.sourceforge.net/DTD/sodipodi-0.dtd"
   xmlns:inkscape="http://www.inkscape.org/namespaces/inkscape"
   width="14"
   height="14"
   id="svg2"
   version="1.1"
   inkscape:version="0.48.5 r10040"
   sodipodi:docname="menu-option-checked.svg"
   inkscape:export-filename="/home/steffen/.local/share/themes/Vertex-Dark/gtk-2.0/Check-Radio/menu-option-checked-hover.png"
   inkscape:export-xdpi="90"
   inkscape:export-ydpi="90">
  <defs
     id="defs4">
    <linearGradient
       inkscape:collect="always"
       xlink:href="#linearGradient3931-4"
       id="linearGradient3796"
       x1="8"
       y1="2"
       x2="8"
       y2="15"
       gradientUnits="userSpaceOnUse"
       gradientTransform="matrix(1,0,0,-1,-1,1053.3622)" />
    <linearGradient
       inkscape:collect="always"
       xlink:href="#linearGradient3969-0-4"
       id="linearGradient4048"
       x1="8"
       y1="14"
       x2="8"
       y2="3"
       gradientUnits="userSpaceOnUse" />
    <linearGradient
       id="linearGradient3931-4">
      <stop
         id="stop3933-1"
         offset="0"
         style="stop-color:#5890fb;stop-opacity:1;" />
      <stop
         id="stop3935-1"
         offset="1"
         style="stop-color:#032c75;stop-opacity:0.74509805;" />
    </linearGradient>
    <linearGradient
       id="linearGradient3969-0-4">
      <stop
         style="stop-color:#353537;stop-opacity:1;"
         offset="0"
         id="stop3971-2-2" />
      <stop
         style="stop-color:#4d4f52;stop-opacity:1;"
         offset="1"
         id="stop3973-0-5" />
    </linearGradient>
    <linearGradient
       gradientTransform="translate(0,1036.3622)"
       gradientUnits="userSpaceOnUse"
       y2="15"
       x2="8"
       y1="2"
       x1="8"
       id="linearGradient3796-15"
       xlink:href="#linearGradient7710"
       inkscape:collect="always" />
    <linearGradient
       id="linearGradient7710">
      <stop
         id="stop7712"
         offset="0"
         style="stop-color:#000000;stop-opacity:1;" />
      <stop
         style="stop-color:#0d0d0d;stop-opacity:1;"
         offset="0.078125"
         id="stop7714" />
      <stop
         id="stop7716"
         offset="0.97355771"
         style="stop-color:#0d0d0d;stop-opacity:1;" />
      <stop
         id="stop7718"
         offset="1"
         style="stop-color:#090909;stop-opacity:1;" />
    </linearGradient>
    <linearGradient
       gradientUnits="userSpaceOnUse"
       y2="3"
       x2="8"
       y1="14"
       x1="8"
       id="linearGradient4048-2"
       xlink:href="#linearGradient3969-0-4-3"
       inkscape:collect="always" />
    <linearGradient
       id="linearGradient3969-0-4-3">
      <stop
         style="stop-color:#353537;stop-opacity:1;"
         offset="0"
         id="stop3971-2-2-7" />
      <stop
         style="stop-color:#4d4f52;stop-opacity:1;"
         offset="1"
         id="stop3973-0-5-3" />
    </linearGradient>
    <linearGradient
       gradientTransform="matrix(0,-1,1,0,-1036.3622,1052.3622)"
       gradientUnits="userSpaceOnUse"
       y2="1044.3622"
       x2="16"
       y1="1044.3622"
       x1="0"
       id="linearGradient3890"
       xlink:href="#linearGradient7704"
       inkscape:collect="always" />
    <linearGradient
       id="linearGradient7704">
      <stop
         style="stop-color:#4080fb;stop-opacity:0.74509805;"
         offset="0"
         id="stop7706" />
      <stop
         style="stop-color:#4080fb;stop-opacity:0.49197862;"
         offset="1"
         id="stop7708" />
    </linearGradient>
    <linearGradient
       y2="1044.3622"
       x2="16"
       y1="1044.3622"
       x1="0"
       gradientTransform="matrix(0,-1,1,0,-1036.3622,1052.3622)"
       gradientUnits="userSpaceOnUse"
       id="linearGradient6935"
       xlink:href="#linearGradient7704"
       inkscape:collect="always" />
    <linearGradient
       gradientTransform="translate(0,1036.3622)"
       gradientUnits="userSpaceOnUse"
       y2="15"
       x2="8"
       y1="2"
       x1="8"
       id="linearGradient3796-15-1"
       xlink:href="#linearGradient7710-1"
       inkscape:collect="always" />
    <linearGradient
       id="linearGradient7710-1">
      <stop
         id="stop7712-6"
         offset="0"
         style="stop-color:#000000;stop-opacity:1;" />
      <stop
         style="stop-color:#0d0d0d;stop-opacity:1;"
         offset="0.078125"
         id="stop7714-7" />
      <stop
         id="stop7716-6"
         offset="0.97355771"
         style="stop-color:#0d0d0d;stop-opacity:1;" />
      <stop
         id="stop7718-8"
         offset="1"
         style="stop-color:#090909;stop-opacity:1;" />
    </linearGradient>
    <linearGradient
       y2="15"
       x2="8"
       y1="2"
       x1="8"
       gradientTransform="translate(-1,1037.3622)"
       gradientUnits="userSpaceOnUse"
       id="linearGradient3834"
       xlink:href="#linearGradient7710-1"
       inkscape:collect="always" />
  </defs>
  <sodipodi:namedview
     id="base"
     pagecolor="#ffffff"
     bordercolor="#666666"
     borderopacity="1.0"
     inkscape:pageopacity="0.0"
     inkscape:pageshadow="2"
     inkscape:zoom="5.6568546"
     inkscape:cx="-4.638677"
     inkscape:cy="2.6956331"
     inkscape:document-units="px"
     inkscape:current-layer="layer1"
     showgrid="true"
     inkscape:snap-bbox="true"
     showguides="true"
     inkscape:guide-bbox="true"
     inkscape:showpageshadow="false"
     showborder="true"
     inkscape:window-width="1366"
     inkscape:window-height="740"
     inkscape:window-x="0"
     inkscape:window-y="23"
     inkscape:window-maximized="1">
    <inkscape:grid
       type="xygrid"
       id="grid2985"
       empspacing="5"
       visible="true"
       enabled="true"
       snapvisiblegridlinesonly="true" />
  </sodipodi:namedview>
  <metadata
     id="metadata7">
    <rdf:RDF>
      <cc:Work
         rdf:about="">
        <dc:format>image/svg+xml</dc:format>
        <dc:type
           rdf:resource="http://purl.org/dc/dcmitype/StillImage" />
        <dc:title></dc:title>
      </cc:Work>
    </rdf:RDF>
  </metadata>
  <g
     inkscape:label="Ebene 1"
     inkscape:groupmode="layer"
     id="layer1"
     transform="translate(0,-1038.3622)">
    <path
       sodipodi:type="arc"
       style="fill:url(#linearGradient4048);fill-opacity:1.0;stroke:none"
       id="path3854"
       sodipodi:cx="8"
       sodipodi:cy="8"
       sodipodi:rx="6"
       sodipodi:ry="6"
       d="m 14,8 c 0,3.313708 -2.686292,6 -6,6 C 4.6862915,14 2,11.313708 2,8 2,4.6862915 4.6862915,2 8,2 c 3.313708,0 6,2.6862915 6,6 z"
       transform="translate(-1,1037.3622)" />
    <path
       style="fill:#ffffff;fill-opacity:1;stroke:none;opacity:0.2"
       d="m 7,1039.3622 c -3.313708,0 -6,2.6863 -6,6 0,0.1245 0.023779,0.2524 0.03125,0.375 0.30726,-3.0255 2.862148,-5.375 5.96875,-5.375 3.106602,0 5.66149,2.3495 5.96875,5.375 0.0075,-0.1226 0.03125,-0.2505 0.03125,-0.375 0,-3.3137 -2.686292,-6 -6,-6 z"
       id="path3798"
       inkscape:connector-curvature="0" />
    <path
       transform="translate(-1,1037.3622)"
       d="M 10,8 C 10,9.1045695 9.1045695,10 8,10 6.8954305,10 6,9.1045695 6,8 6,6.8954305 6.8954305,6 8,6 c 1.1045695,0 2,0.8954305 2,2 z"
       sodipodi:ry="2"
       sodipodi:rx="2"
       sodipodi:cy="8"
       sodipodi:cx="8"
       id="path4092-1-0"
       style="fill:#eeeeee;fill-opacity:1;stroke:none"
       sodipodi:type="arc" />
    <path
       inkscape:connector-curvature="0"
       id="path4092-5-6-12-3"
       d="m 7,1042.3622 c -1.1045695,0 -2,0.8954 -2,2 0,0.1726 0.021396,0.3402 0.0625,0.5 0.2219627,-0.8627 1.0055195,-1.5 1.9375,-1.5 0.9319805,0 1.7155373,0.6373 1.9375,1.5 0.041104,-0.1598 0.0625,-0.3274 0.0625,-0.5 0,-1.1046 -0.8954305,-2 -2,-2 z"
       style="fill:#1a1a1a;fill-opacity:1;stroke:none" />
    <path
       inkscape:connector-curvature="0"
       id="path4092-5-7-0"
       d="m 7,1043.3622 c -1.1045695,0 -2,0.8954 -2,2 0,0.1726 0.021396,0.3402 0.0625,0.5 0.2219627,-0.8627 1.0055195,-1.5 1.9375,-1.5 0.9319805,0 1.7155373,0.6373 1.9375,1.5 0.041104,-0.1598 0.0625,-0.3274 0.0625,-0.5 0,-1.1046 -0.8954305,-2 -2,-2 z"
       style="fill:#cdcdcd;fill-opacity:1;stroke:none" />
    <path
       inkscape:connector-curvature="0"
       id="path3017-7-6"
       d="m 7,1038.3622 c -3.8659932,0 -7,3.134 -7,7 0,3.866 3.1340068,7 7,7 3.865993,0 7,-3.134 7,-7 0,-3.866 -3.134007,-7 -7,-7 z m 0,1 c 3.313708,0 6,2.6863 6,6 0,3.3137 -2.686292,6 -6,6 -3.3137085,0 -6,-2.6863 -6,-6 0,-3.3137 2.6862915,-6 6,-6 z"
       style="fill:url(#linearGradient3834);fill-opacity:1;stroke:none" />
  </g>
</svg>
