<?xml version="1.0" encoding="UTF-8" standalone="no"?>
<!-- Created with Inkscape (http://www.inkscape.org/) -->

<svg
   xmlns:dc="http://purl.org/dc/elements/1.1/"
   xmlns:cc="http://creativecommons.org/ns#"
   xmlns:rdf="http://www.w3.org/1999/02/22-rdf-syntax-ns#"
   xmlns:svg="http://www.w3.org/2000/svg"
   xmlns="http://www.w3.org/2000/svg"
   xmlns:sodipodi="http://sodipodi.sourceforge.net/DTD/sodipodi-0.dtd"
   xmlns:inkscape="http://www.inkscape.org/namespaces/inkscape"
   id="svg2"
   version="1.1"
   inkscape:version="0.48.5 r10040"
   width="37"
   height="18"
   sodipodi:docname="terminal_tab_active.svg"
   inkscape:export-filename="/home/steffen/Sachen/Vertex_git/Vertex-theme/Vertex-gtk/gtk-3.0/tabs/darker/terminal_tab_active@2.png"
   inkscape:export-xdpi="180"
   inkscape:export-ydpi="180">
  <metadata
     id="metadata8">
    <rdf:RDF>
      <cc:Work
         rdf:about="">
        <dc:format>image/svg+xml</dc:format>
        <dc:type
           rdf:resource="http://purl.org/dc/dcmitype/StillImage" />
        <dc:title />
      </cc:Work>
    </rdf:RDF>
  </metadata>
  <defs
     id="defs6">
    <filter
       inkscape:collect="always"
       id="filter3867"
       x="-0.13613793"
       width="1.2722759"
       y="-0.21933333"
       height="1.4386667">
      <feGaussianBlur
         inkscape:collect="always"
         stdDeviation="1.645"
         id="feGaussianBlur3869" />
    </filter>
    <clipPath
       clipPathUnits="userSpaceOnUse"
       id="clipPath3915">
      <path
         style="fill:#151516;fill-opacity:0.39543726;stroke:#ffffff;stroke-width:0;stroke-linejoin:round;stroke-miterlimit:4;stroke-opacity:1;stroke-dasharray:none;stroke-dashoffset:0"
         d="m -3.8e-6,-2.6e-5 0,18 7,0 c -1.66201,0 -3,-1.338 -3,-3 l 0,-15 -4,0 z m 32.9999998,0 0,15 c 0,1.662 -1.33799,3 -3,3 l 7,0 0,-18 -4,0 z"
         id="path3917"
         inkscape:connector-curvature="0" />
    </clipPath>
  </defs>
  <sodipodi:namedview
     pagecolor="#ffffff"
     bordercolor="#666666"
     borderopacity="1"
     objecttolerance="10"
     gridtolerance="10"
     guidetolerance="10"
     inkscape:pageopacity="0"
     inkscape:pageshadow="2"
     inkscape:window-width="1033"
     inkscape:window-height="750"
     id="namedview4"
     showgrid="true"
     showguides="true"
     inkscape:zoom="11.313709"
     inkscape:cx="12.921683"
     inkscape:cy="12.112232"
     inkscape:window-x="376"
     inkscape:window-y="278"
     inkscape:window-maximized="0"
     inkscape:current-layer="layer6"
     fit-margin-top="0"
     fit-margin-left="0"
     fit-margin-right="0"
     fit-margin-bottom="0"
     inkscape:guide-bbox="true">
    <inkscape:grid
       type="xygrid"
       id="grid2987"
       empspacing="5"
       visible="true"
       enabled="true"
       snapvisiblegridlinesonly="true"
       originx="0px"
       originy="0px" />
  </sodipodi:namedview>
  <g
     inkscape:groupmode="layer"
     id="layer6"
     inkscape:label="Ebene#1"
     style="display:inline"
     transform="translate(-131.827,-1051.173)">
    <rect
       style="fill:#151516;fill-opacity:1;stroke:#ffffff;stroke-width:0;stroke-linejoin:round;stroke-miterlimit:4;stroke-opacity:1;stroke-dasharray:none;stroke-dashoffset:0;filter:url(#filter3867);opacity:0.5"
       id="rect2997"
       width="29"
       height="18"
       x="4"
       y="0"
       ry="3"
       transform="translate(131.827,1051.173)"
       clip-path="url(#clipPath3915)" />
    <path
       style="fill:#454749;fill-opacity:1;stroke:#ffffff;stroke-width:0;stroke-linejoin:round;stroke-miterlimit:4;stroke-opacity:1;stroke-dasharray:none;stroke-dashoffset:0;display:inline"
       d="m 167.827,1051.173 c -2.20914,0 -4,1.7908 -4,4 l 0,-4 4,0 z"
       id="rect3956-3"
       inkscape:connector-curvature="0" />
    <rect
       style="fill:#1e1e1f;fill-opacity:1;stroke:#ffffff;stroke-width:0;stroke-linejoin:round;stroke-miterlimit:4;stroke-opacity:1;stroke-dasharray:none;stroke-dashoffset:0"
       id="rect3100"
       width="1.9999958"
       height="1"
       x="166.827"
       y="1051.173" />
    <path
       style="fill:#454749;fill-opacity:1;stroke:#ffffff;stroke-width:0;stroke-linejoin:round;stroke-miterlimit:4;stroke-opacity:1;stroke-dasharray:none;stroke-dashoffset:0"
       d="m 132.827,1051.173 c 2.20914,0 4,1.7908 4,4 l 0,-4 -4,0 z"
       id="rect3956"
       inkscape:connector-curvature="0" />
    <rect
       style="fill:#1e1e1f;fill-opacity:1;stroke:#ffffff;stroke-width:0;stroke-linejoin:round;stroke-miterlimit:4;stroke-opacity:1;stroke-dasharray:none;stroke-dashoffset:0"
       id="rect3102"
       width="1.9999958"
       height="1"
       x="131.827"
       y="1051.173" />
    <path
       style="fill:#1e1e1f;fill-opacity:1;stroke:#ffffff;stroke-width:0;stroke-linejoin:round;stroke-miterlimit:4;stroke-opacity:1;stroke-dasharray:none;stroke-dashoffset:0"
       d="m 133.827,1051.173 0,1 c 1.10457,0 2,0.8954 2,2 l 1,0 c 0,-1.6569 -1.34315,-3 -3,-3 z"
       id="path3884"
       inkscape:connector-curvature="0" />
    <path
       style="fill:#1e1e1f;fill-opacity:1;stroke:#ffffff;stroke-width:0;stroke-linejoin:round;stroke-miterlimit:4;stroke-opacity:1;stroke-dasharray:none;stroke-dashoffset:0;display:inline"
       d="m 166.827,1051.173 0,1 c -1.10457,0 -2,0.8954 -2,2 l -1,0 c 0,-1.6569 1.34315,-3 3,-3 z"
       id="path3884-9"
       inkscape:connector-curvature="0" />
    <path
       style="fill:#1e1e1f;fill-opacity:1;stroke:#ffffff;stroke-width:0;stroke-linejoin:round;stroke-miterlimit:4;stroke-opacity:1;stroke-dasharray:none;stroke-dashoffset:0"
       d="m 135.827,1054.173 0,12 c 0,1.662 1.338,3 3,3 l 23,0 c 1.662,0 3,-1.338 3,-3 l 0,-12 -1,0 0,12 c 0,1.108 -0.892,2 -2,2 l -23,0 c -1.108,0 -2,-0.892 -2,-2 l 0,-12 -1,0 z"
       id="rect3987"
       inkscape:connector-curvature="0" />
  </g>
</svg>
