<?xml version="1.0" encoding="UTF-8" standalone="no"?>
<!-- Created with Inkscape (http://www.inkscape.org/) -->

<svg
   xmlns:dc="http://purl.org/dc/elements/1.1/"
   xmlns:cc="http://creativecommons.org/ns#"
   xmlns:rdf="http://www.w3.org/1999/02/22-rdf-syntax-ns#"
   xmlns:svg="http://www.w3.org/2000/svg"
   xmlns="http://www.w3.org/2000/svg"
   xmlns:xlink="http://www.w3.org/1999/xlink"
   xmlns:sodipodi="http://sodipodi.sourceforge.net/DTD/sodipodi-0.dtd"
   xmlns:inkscape="http://www.inkscape.org/namespaces/inkscape"
   width="14"
   height="14"
   id="svg2"
   version="1.1"
   inkscape:version="0.48.5 r10040"
   sodipodi:docname="menu-option-unchecked-insensitive.svg"
   inkscape:export-filename="/home/steffen/.local/share/themes/Vertex-dark/gtk-2.0/Check-Radio/menu-option-unchecked.png"
   inkscape:export-xdpi="90"
   inkscape:export-ydpi="90">
  <defs
     id="defs4">
    <linearGradient
       id="linearGradient3768-6-8">
      <stop
         style="stop-color:#000000;stop-opacity:1;"
         offset="0"
         id="stop3770-6-62" />
      <stop
         id="stop3778-2-5"
         offset="0.078125"
         style="stop-color:#0d0d0d;stop-opacity:1;" />
      <stop
         style="stop-color:#0d0d0d;stop-opacity:1;"
         offset="0.97355771"
         id="stop3774-0-7" />
      <stop
         style="stop-color:#090909;stop-opacity:1;"
         offset="1"
         id="stop3776-1-8" />
    </linearGradient>
    <linearGradient
       inkscape:collect="always"
       xlink:href="#linearGradient3768-6-8"
       id="linearGradient3981"
       x1="7"
       y1="1039.3622"
       x2="7"
       y2="1052.3622"
       gradientUnits="userSpaceOnUse" />
  </defs>
  <sodipodi:namedview
     id="base"
     pagecolor="#ffffff"
     bordercolor="#666666"
     borderopacity="1.0"
     inkscape:pageopacity="0.0"
     inkscape:pageshadow="2"
     inkscape:zoom="11.313709"
     inkscape:cx="13.008499"
     inkscape:cy="4.4394019"
     inkscape:document-units="px"
     inkscape:current-layer="layer1"
     showgrid="true"
     inkscape:snap-bbox="true"
     showguides="true"
     inkscape:guide-bbox="true"
     inkscape:showpageshadow="false"
     showborder="true"
     inkscape:window-width="1366"
     inkscape:window-height="740"
     inkscape:window-x="0"
     inkscape:window-y="23"
     inkscape:window-maximized="1">
    <inkscape:grid
       type="xygrid"
       id="grid2985"
       empspacing="5"
       visible="true"
       enabled="true"
       snapvisiblegridlinesonly="true" />
  </sodipodi:namedview>
  <metadata
     id="metadata7">
    <rdf:RDF>
      <cc:Work
         rdf:about="">
        <dc:format>image/svg+xml</dc:format>
        <dc:type
           rdf:resource="http://purl.org/dc/dcmitype/StillImage" />
        <dc:title />
      </cc:Work>
    </rdf:RDF>
  </metadata>
  <g
     inkscape:label="Ebene 1"
     inkscape:groupmode="layer"
     id="layer1"
     transform="translate(0,-1038.3622)">
    <path
       style="fill:url(#linearGradient3981);fill-opacity:1;stroke:none"
       d="m 7,1052.3622 c -3.8659932,0 -7,-3.134 -7,-7 0,-3.866 3.1340068,-7 7,-7 3.865993,0 7,3.134 7,7 0,3.866 -3.134007,7 -7,7 z m 0,-1 c 3.313708,0 6,-2.6863 6,-6 0,-3.3137 -2.686292,-6 -6,-6 -3.3137085,0 -6,2.6863 -6,6 0,3.3137 2.6862915,6 6,6 z"
       id="path3017"
       inkscape:connector-curvature="0" />
    <path
       sodipodi:type="arc"
       style="fill:#434446;fill-opacity:1;stroke:none"
       id="path3854"
       sodipodi:cx="8"
       sodipodi:cy="8"
       sodipodi:rx="6"
       sodipodi:ry="6"
       d="m 14,8 c 0,3.313708 -2.686292,6 -6,6 C 4.6862915,14 2,11.313708 2,8 2,4.6862915 4.6862915,2 8,2 c 3.313708,0 6,2.6862915 6,6 z"
       transform="translate(-1,1037.3622)" />
    <path
       style="fill:#000000;fill-opacity:1;stroke:none;opacity:0.20000000000000001"
       d="m 7,1039.3622 c -3.313708,0 -6,2.6863 -6,6 0,0.1245 0.023779,0.2524 0.03125,0.375 0.30726,-3.0255 2.862148,-5.375 5.96875,-5.375 3.106602,0 5.66149,2.3495 5.96875,5.375 0.0075,-0.1226 0.03125,-0.2505 0.03125,-0.375 0,-3.3137 -2.686292,-6 -6,-6 z"
       id="path3798"
       inkscape:connector-curvature="0" />
  </g>
</svg>
