<?xml version="1.0" encoding="UTF-8" standalone="no"?>
<!-- Created with Inkscape (http://www.inkscape.org/) -->

<svg
   xmlns:dc="http://purl.org/dc/elements/1.1/"
   xmlns:cc="http://creativecommons.org/ns#"
   xmlns:rdf="http://www.w3.org/1999/02/22-rdf-syntax-ns#"
   xmlns:svg="http://www.w3.org/2000/svg"
   xmlns="http://www.w3.org/2000/svg"
   xmlns:xlink="http://www.w3.org/1999/xlink"
   xmlns:sodipodi="http://sodipodi.sourceforge.net/DTD/sodipodi-0.dtd"
   xmlns:inkscape="http://www.inkscape.org/namespaces/inkscape"
   width="16"
   height="16"
   id="svg2"
   version="1.1"
   inkscape:version="0.48.4 r9939"
   sodipodi:docname="radio-unchecked.svg">
  <defs
     id="defs4">
    <linearGradient
       id="linearGradient3875">
      <stop
         style="stop-color:#000000;stop-opacity:0.55"
         offset="0"
         id="stop3877" />
      <stop
         id="stop3879"
         offset="0.46153846"
         style="stop-color:#000000;stop-opacity:0.27450982;" />
      <stop
         style="stop-color:#000000;stop-opacity:0.25490198;"
         offset="0.97355771"
         id="stop3881" />
      <stop
         style="stop-color:#000000;stop-opacity:0.1882353;"
         offset="1"
         id="stop3883" />
    </linearGradient>
    <linearGradient
       inkscape:collect="always"
       xlink:href="#linearGradient3837"
       id="linearGradient3843"
       x1="8"
       y1="2"
       x2="8"
       y2="13"
       gradientUnits="userSpaceOnUse"
       gradientTransform="translate(-2.9802322e-8,1036.3622)" />
    <linearGradient
       id="linearGradient3837">
      <stop
         style="stop-color:#ffffff;stop-opacity:1;"
         offset="0"
         id="stop3839" />
      <stop
         id="stop3781"
         offset="0.08333334"
         style="stop-color:#ffffff;stop-opacity:0;" />
      <stop
         style="stop-color:#0b0b0b;stop-opacity:0;"
         offset="0.90909094"
         id="stop3783" />
      <stop
         style="stop-color:#000000;stop-opacity:0.02745098;"
         offset="1"
         id="stop3841" />
    </linearGradient>
    <linearGradient
       inkscape:collect="always"
       xlink:href="#linearGradient3845"
       id="linearGradient3851"
       x1="8"
       y1="13"
       x2="8"
       y2="14"
       gradientUnits="userSpaceOnUse"
       gradientTransform="translate(-2.9802322e-8,1036.3622)" />
    <linearGradient
       id="linearGradient3845">
      <stop
         style="stop-color:#000000;stop-opacity:0.18039216;"
         offset="0"
         id="stop3847" />
      <stop
         style="stop-color:#000000;stop-opacity:0.43137255;"
         offset="1"
         id="stop3849" />
    </linearGradient>
    <linearGradient
       id="linearGradient3768">
      <stop
         id="stop3770"
         offset="0"
         style="stop-color:#000000;stop-opacity:0.44705883;" />
      <stop
         style="stop-color:#000000;stop-opacity:0.27450982;"
         offset="0.078125"
         id="stop3778" />
      <stop
         id="stop3774"
         offset="0.97355771"
         style="stop-color:#000000;stop-opacity:0.25490198;" />
      <stop
         id="stop3776"
         offset="1"
         style="stop-color:#000000;stop-opacity:0.1882353;" />
    </linearGradient>
    <linearGradient
       inkscape:collect="always"
       xlink:href="#linearGradient3875"
       id="linearGradient3796"
       x1="8"
       y1="2"
       x2="8"
       y2="15"
       gradientUnits="userSpaceOnUse" />
  </defs>
  <sodipodi:namedview
     id="base"
     pagecolor="#ffffff"
     bordercolor="#666666"
     borderopacity="1.0"
     inkscape:pageopacity="0.0"
     inkscape:pageshadow="2"
     inkscape:zoom="16.000001"
     inkscape:cx="5.7361143"
     inkscape:cy="5.5625897"
     inkscape:document-units="px"
     inkscape:current-layer="layer1"
     showgrid="true"
     inkscape:snap-bbox="true"
     showguides="true"
     inkscape:guide-bbox="true"
     inkscape:showpageshadow="false"
     showborder="true"
     inkscape:window-width="1006"
     inkscape:window-height="740"
     inkscape:window-x="60"
     inkscape:window-y="236"
     inkscape:window-maximized="0">
    <inkscape:grid
       type="xygrid"
       id="grid2985"
       empspacing="5"
       visible="true"
       enabled="true"
       snapvisiblegridlinesonly="true" />
  </sodipodi:namedview>
  <metadata
     id="metadata7">
    <rdf:RDF>
      <cc:Work
         rdf:about="">
        <dc:format>image/svg+xml</dc:format>
        <dc:type
           rdf:resource="http://purl.org/dc/dcmitype/StillImage" />
        <dc:title></dc:title>
      </cc:Work>
    </rdf:RDF>
  </metadata>
  <g
     inkscape:label="Ebene 1"
     inkscape:groupmode="layer"
     id="layer1"
     transform="translate(0,-1036.3622)">
    <path
       style="opacity:1;fill:url(#linearGradient3796);fill-opacity:1;stroke:none"
       d="M 8 1 C 4.1340068 1 1 4.1340068 1 8 C 1 11.865993 4.1340068 15 8 15 C 11.865993 15 15 11.865993 15 8 C 15 4.1340068 11.865993 1 8 1 z M 8 2 C 11.313708 2 14 4.6862915 14 8 C 14 11.313708 11.313708 14 8 14 C 4.6862915 14 2 11.313708 2 8 C 2 4.6862915 4.6862915 2 8 2 z "
       transform="translate(0,1036.3622)"
       id="path3017" />
    <path
       sodipodi:type="arc"
       style="opacity:1;fill:#f4f4f4;fill-opacity:1;stroke:none"
       id="path3854"
       sodipodi:cx="8"
       sodipodi:cy="8"
       sodipodi:rx="6"
       sodipodi:ry="6"
       d="M 14,8 A 6,6 0 1 1 2,8 6,6 0 1 1 14,8 z"
       transform="translate(0,1036.3622)" />
    <path
       style="fill:#000000;fill-opacity:0.23529412000000000;stroke:none;opacity:0.55"
       d="m 8,1038.3622 c -3.313708,0 -6,2.6863 -6,6 0,0.1245 0.023779,0.2524 0.03125,0.375 0.30726,-3.0255 2.862148,-5.375 5.96875,-5.375 3.106602,0 5.66149,2.3495 5.96875,5.375 0.0075,-0.1226 0.03125,-0.2505 0.03125,-0.375 0,-3.3137 -2.686292,-6 -6,-6 z"
       id="path3798"
       inkscape:connector-curvature="0" />
    <path
       style="opacity:0.3;fill:#ffffff;fill-opacity:1;stroke:none"
       d="M 1.03125,1044.8622 C 1.01958,1045.0275 1,1045.194 1,1045.3622 c 0,3.866 3.1340068,7 7,7 3.865993,0 7,-3.134 7,-7 0,-0.1682 -0.01958,-0.3347 -0.03125,-0.5 -0.256529,3.6325 -3.270982,6.5 -6.96875,6.5 -3.6977678,0 -6.7122214,-2.8675 -6.96875,-6.5 z"
       id="path3826"
       inkscape:connector-curvature="0" />
  </g>
</svg>
