/* XPM */
static char * close_prelight_xpm[] = {
"24 24 137 2",
"  	c None",
". 	c #000000",
"+ 	c #6D7077",
"@ 	c #4D4F52",
"# 	c #4C4E51",
"$ 	c #4D4E52",
"% 	c #4D4E51",
"& 	c #4C4E52",
"* 	c #4C4F51",
"= 	c #4C4F52",
"- 	c #4C4E50",
"; 	c #4B4E51",
"> 	c #4B4D50",
", 	c #4C4D51",
"' 	c #4B4D51",
") 	c #4C4D50",
"! 	c #4A4D4F",
"~ 	c #383A3C",
"{ 	c #2A2B2C",
"] 	c #202223",
"^ 	c #202123",
"/ 	c #38393C",
"( 	c #4A4C50",
"_ 	c #4B4E50",
": 	c #46484A",
"< 	c #29292B",
"[ 	c #1B1C1D",
"} 	c #18191A",
"| 	c #161718",
"1 	c #171718",
"2 	c #28292B",
"3 	c #4B4D4F",
"4 	c #4A4D50",
"5 	c #4A4C4E",
"6 	c #292A2B",
"7 	c #1A1B1C",
"8 	c #2C2728",
"9 	c #8E6162",
"0 	c #BB7576",
"a 	c #BC7576",
"b 	c #2D2728",
"c 	c #494C4F",
"d 	c #4A4C4F",
"e 	c #4B4C4F",
"f 	c #1C1D1E",
"g 	c #2C2727",
"h 	c #BD6D6E",
"i 	c #C15B5C",
"j 	c #BC4F50",
"k 	c #BE6E6E",
"l 	c #2C2627",
"m 	c #383A3D",
"n 	c #2B2D2E",
"o 	c #191A1B",
"p 	c #875455",
"q 	c #B94849",
"r 	c #B84445",
"s 	c #494C4E",
"t 	c #494B4E",
"u 	c #4A4B4F",
"v 	c #232425",
"w 	c #A64A4B",
"x 	c #B53E3F",
"y 	c #B53E40",
"z 	c #A74A4B",
"A 	c #4A4B4E",
"B 	c #242526",
"C 	c #9F3B3C",
"D 	c #B33839",
"E 	c #9F3A3C",
"F 	c #494B4D",
"G 	c #4F5153",
"H 	c #2E2F30",
"I 	c #6C2E2F",
"J 	c #B13133",
"K 	c #B13132",
"L 	c #484B4D",
"M 	c #494A4D",
"N 	c #505153",
"O 	c #404244",
"P 	c #202021",
"Q 	c #241E1F",
"R 	c #A12B2C",
"S 	c #AF2B2D",
"T 	c #AE2C2D",
"U 	c #AF2C2D",
"V 	c #414244",
"W 	c #484A4D",
"X 	c #484A4C",
"Y 	c #5B5C5F",
"Z 	c #2F3132",
"` 	c #1E1F20",
" .	c #231D1E",
"..	c #672727",
"+.	c #962728",
"@.	c #672628",
"#.	c #2F3031",
"$.	c #484B4C",
"%.	c #48494C",
"&.	c #474A4C",
"*.	c #5C5E5F",
"=.	c #303133",
"-.	c #212122",
";.	c #1C1E1F",
">.	c #1B1C1C",
",.	c #1D1E1E",
"'.	c #474A4D",
").	c #47494C",
"!.	c #474A4B",
"~.	c #505254",
"{.	c #656769",
"].	c #4A4C4D",
"^.	c #353738",
"/.	c #282A2B",
"(.	c #353638",
"_.	c #4A4B4D",
":.	c #656768",
"<.	c #4F5253",
"[.	c #47494B",
"}.	c #5A5C5E",
"|.	c #646668",
"1.	c #6D6E70",
"2.	c #646767",
"3.	c #5B5C5E",
"4.	c #46494B",
"5.	c #47484B",
"6.	c #46484B",
"7.	c #46494A",
"8.	c #47494A",
"9.	c #47484A",
"0.	c #45474A",
"a.	c #45484A",
"b.	c #46474A",
"c.	c #464749",
"d.	c #464849",
"e.	c #454749",
"f.	c #454849",
". . . . . . . . . . . . . . . . . . . . . . . . ",
"+ + + + + + + + + + + + + + + + + + + + + + + + ",
"@ @ @ @ @ @ @ @ @ @ @ @ @ @ @ @ @ @ @ @ @ @ @ @ ",
"# $ % & @ * $ = # * @ & # $ % & @ * $ = # * @ & ",
"# # # # % # # * # * # # # # # # % # # * # * # # ",
"# - - # # # # # ; - > , # - - # # # # # ; - > , ",
"' - ' ' ) ) > - ! ~ { ] ^ { / ( ) ) > - _ _ > _ ",
") > > > > > > : < [ } | 1 } [ 2 : > > > ) > _ > ",
"> > 3 4 > 4 5 6 7 8 9 0 a 9 b 7 6 c 3 > > ! 3 4 ",
"d d 3 e e ( ~ f g h i j j i k l f m ! ! 3 d e e ",
"d 5 d d d 5 n o p q r r r r q p o n d d 5 d d d ",
"s t u 5 d 5 v } w x x x x x y z } v s s t 5 t 5 ",
"s 5 t A A - B o C D D D D D D E o B - t s A t t ",
"F F t F F G H [ I J J J K K J I [ H G t F t t t ",
"L F F L M N O P Q R S S T U R Q P V G M F F M M ",
"L W L W X W Y Z `  ...+.+.@. .` #.Y W L M W $.W ",
"X X %.&.X X G *.=.-.;.[ >.,.-.=.*.G X X %.X '.W ",
"X ).).!.!.).%.~.{.].^./.6 (._.:.<.).%.X &.!.X &.",
"[.!.%.).[.[.[.[.X }.|.1.1.2.3.W [.[.[.[.[.[.).[.",
"4.[.5.5.6.[.5.[.[.4.[.[.4.[.5.5.6.[.5.[.[.4.[.[.",
"6.7.6.[.4.8.7.: 9.6.7.6.6.7.6.[.4.8.7.: 9.6.7.6.",
": 6.: 4.: 6.: : : : : 9.: 6.: 4.: 6.: : : : : 9.",
"0.: : : a.b.: a.a.b.c.a.0.: : : a.b.: a.a.b.c.a.",
"0.d.e.e.c.f.c.a.0.a.e.e.0.d.e.e.c.f.c.a.0.a.e.e."};
