/* XPM */
static char * hide_prelight_xpm[] = {
"24 24 134 2",
"  	c None",
". 	c #000000",
"+ 	c #6D7077",
"@ 	c #4D4F52",
"# 	c #4C4E51",
"$ 	c #4D4E52",
"% 	c #4D4E51",
"& 	c #4C4E52",
"* 	c #4C4F51",
"= 	c #4C4F52",
"- 	c #4C4E50",
"; 	c #4B4E51",
"> 	c #4B4D50",
", 	c #4C4D51",
"' 	c #4B4D51",
") 	c #4C4D50",
"! 	c #4A4D4F",
"~ 	c #383A3C",
"{ 	c #2A2B2C",
"] 	c #202223",
"^ 	c #202123",
"/ 	c #38393C",
"( 	c #4A4C50",
"_ 	c #4B4E50",
": 	c #46484A",
"< 	c #29292B",
"[ 	c #1B1C1D",
"} 	c #18191A",
"| 	c #161718",
"1 	c #171718",
"2 	c #28292B",
"3 	c #4B4D4F",
"4 	c #4A4D50",
"5 	c #4A4C4E",
"6 	c #292A2B",
"7 	c #1A1B1C",
"8 	c #282D28",
"9 	c #678F62",
"0 	c #80BC76",
"a 	c #81BC76",
"b 	c #494C4F",
"c 	c #4A4C4F",
"d 	c #4B4C4F",
"e 	c #1C1D1E",
"f 	c #272D27",
"g 	c #7BBE6E",
"h 	c #6AC15C",
"i 	c #5FBD50",
"j 	c #272C27",
"k 	c #383A3D",
"l 	c #2B2D2E",
"m 	c #191A1B",
"n 	c #5C8755",
"o 	c #5ABA49",
"p 	c #56B845",
"q 	c #494C4E",
"r 	c #494B4E",
"s 	c #4A4B4F",
"t 	c #232425",
"u 	c #59A74B",
"v 	c #51B63F",
"w 	c #50B63F",
"x 	c #51B640",
"y 	c #4A4B4E",
"z 	c #242526",
"A 	c #4BA03C",
"B 	c #4BB439",
"C 	c #494B4D",
"D 	c #4F5153",
"E 	c #2E2F30",
"F 	c #376D2F",
"G 	c #44B233",
"H 	c #44B232",
"I 	c #484B4D",
"J 	c #494A4D",
"K 	c #505153",
"L 	c #404244",
"M 	c #202021",
"N 	c #1F251F",
"O 	c #3EA22C",
"P 	c #40AF2D",
"Q 	c #3FAF2D",
"R 	c #414244",
"S 	c #484A4D",
"T 	c #484A4C",
"U 	c #5B5C5F",
"V 	c #2F3132",
"W 	c #1E1F20",
"X 	c #1E241E",
"Y 	c #2F6927",
"Z 	c #389728",
"` 	c #389828",
" .	c #2F6828",
"..	c #2F3031",
"+.	c #484B4C",
"@.	c #48494C",
"#.	c #474A4C",
"$.	c #5C5E5F",
"%.	c #303133",
"&.	c #212122",
"*.	c #1C1E1F",
"=.	c #1B1C1C",
"-.	c #1D1E1E",
";.	c #474A4D",
">.	c #47494C",
",.	c #474A4B",
"'.	c #505254",
").	c #656769",
"!.	c #4A4C4D",
"~.	c #353738",
"{.	c #282A2B",
"].	c #353638",
"^.	c #4A4B4D",
"/.	c #656768",
"(.	c #4F5253",
"_.	c #47494B",
":.	c #5A5C5E",
"<.	c #646668",
"[.	c #6D6E70",
"}.	c #646767",
"|.	c #5B5C5E",
"1.	c #46494B",
"2.	c #47484B",
"3.	c #46484B",
"4.	c #46494A",
"5.	c #47494A",
"6.	c #47484A",
"7.	c #45474A",
"8.	c #45484A",
"9.	c #46474A",
"0.	c #464749",
"a.	c #464849",
"b.	c #454749",
"c.	c #454849",
". . . . . . . . . . . . . . . . . . . . . . . . ",
"+ + + + + + + + + + + + + + + + + + + + + + + + ",
"@ @ @ @ @ @ @ @ @ @ @ @ @ @ @ @ @ @ @ @ @ @ @ @ ",
"# $ % & @ * $ = # * @ & # $ % & @ * $ = # * @ & ",
"# # # # % # # * # * # # # # # # % # # * # * # # ",
"# - - # # # # # ; - > , # - - # # # # # ; - > , ",
"' - ' ' ) ) > - ! ~ { ] ^ { / ( ) ) > - _ _ > _ ",
") > > > > > > : < [ } | 1 } [ 2 : > > > ) > _ > ",
"> > 3 4 > 4 5 6 7 8 9 0 a 9 8 7 6 b 3 > > ! 3 4 ",
"c c 3 d d ( ~ e f g h i i h g j e k ! ! 3 c d d ",
"c 5 c c c 5 l m n o p p p p o n m l c c 5 c c c ",
"q r s 5 c 5 t } u v w v w w x u } t q q r 5 r 5 ",
"q 5 r y y - z m A B B B B B B A m z - r q y r r ",
"C C r C C D E [ F G G G H H G F [ E D r C r r r ",
"I C C I J K L M N O P P Q P O N M R D J C C J J ",
"I S I S T S U V W X Y Z `  .X W ..U S I J S +.S ",
"T T @.#.T T D $.%.&.*.[ =.-.&.%.$.D T T @.T ;.S ",
"T >.>.,.,.>.@.'.).!.~.{.6 ].^./.(.>.@.T #.,.T #.",
"_.,.@.>._._._._.T :.<.[.[.}.|.S _._._._._._.>._.",
"1._.2.2.3._.2._._.1._._.1._.2.2.3._.2._._.1._._.",
"3.4.3._.1.5.4.: 6.3.4.3.3.4.3._.1.5.4.: 6.3.4.3.",
": 3.: 1.: 3.: : : : : 6.: 3.: 1.: 3.: : : : : 6.",
"7.: : : 8.9.: 8.8.9.0.8.7.: : : 8.9.: 8.8.9.0.8.",
"7.a.b.b.0.c.0.8.7.8.b.b.7.a.b.b.0.c.0.8.7.8.b.b."};
