/* XPM */
static char * hide_active_xpm[] = {
"22 22 83 1",
" 	c None",
".	c #000000",
"+	c #6D7077",
"@	c #4D4F52",
"#	c #4C4E51",
"$	c #4A4C4F",
"%	c #383A3C",
"&	c #262728",
"*	c #1F2021",
"=	c #4B4D50",
"-	c #46474A",
";	c #252628",
">	c #1A1B1C",
",	c #171819",
"'	c #161718",
")	c #46484A",
"!	c #494B4E",
"~	c #191A1B",
"{	c #28292A",
"]	c #6F7072",
"^	c #8B8D8E",
"/	c #707173",
"(	c #2B2B2D",
"_	c #1A1A1B",
":	c #262729",
"<	c #4B4D4F",
"[	c #37393A",
"}	c #1C1D1E",
"|	c #272829",
"1	c #848586",
"2	c #767879",
"3	c #27282A",
"4	c #646567",
"5	c #686A6C",
"6	c #646669",
"7	c #636466",
"8	c #28292B",
"9	c #4A4C4E",
"0	c #212223",
"a	c #18191A",
"b	c #696A6C",
"c	c #606163",
"d	c #222324",
"e	c #595B5D",
"f	c #5A5B5E",
"g	c #505255",
"h	c #2B2C2D",
"i	c #1B1B1D",
"j	c #414345",
"k	c #555759",
"l	c #3F4143",
"m	c #2B2C2E",
"n	c #494B4D",
"o	c #515355",
"p	c #3F4142",
"q	c #505253",
"r	c #404243",
"s	c #505254",
"t	c #484A4D",
"u	c #5B5D60",
"v	c #1D1E20",
"w	c #1E1F20",
"x	c #38393C",
"y	c #47494C",
"z	c #38393B",
"A	c #484A4C",
"B	c #525355",
"C	c #5D5E60",
"D	c #2D2E2F",
"E	c #202121",
"F	c #202122",
"G	c #2E2F30",
"H	c #5D5F60",
"I	c #535558",
"J	c #67686B",
"K	c #2E3031",
"L	c #252627",
"M	c #303133",
"N	c #535557",
"O	c #47494B",
"P	c #5C5E60",
"Q	c #5B5D5F",
"R	c #454749",
"......................",
"++++++++++++++++++++++",
"@@@@@@@@@@@@@@@@@@@@@@",
"@@@@@@@@@@@@@@@@@@@@@@",
"######################",
"#######$%&**&%=#######",
"======-;>,'',>&)======",
"=====!&~{]^^/(_:!=====",
"<<<<<[}|12]]21&}[<<<<<",
"$$$$$3~45666657~8$$$$$",
"999990abccccccbad99999",
"!!!!=daeffffffead=!!!!",
"!!!!ghijkkkkkklimg!!!!",
"nnnnop*0<qqqq<**rsnnnn",
"tttt$uhvwxyyzwwmu$tttt",
"AAAAABCDE}>>}FGHoAAAAA",
"yyyyyyIJnKLLMnJNyyyyyy",
"OOOOOOO9P5//5Q9OOOOOOO",
"OOOOOOOOOOOOOOOOOOOOOO",
"))))))))))))))))))))))",
"))))))))))))))))))))))",
"RRRRRRRRRRRRRRRRRRRRRR"};
