/* XPM */
static char * maximize_pressed_xpm[] = {
"24 24 128 2",
"  	c None",
". 	c #000000",
"+ 	c #6D7077",
"@ 	c #4D4F52",
"# 	c #4C4E51",
"$ 	c #4D4E52",
"% 	c #4D4E51",
"& 	c #4C4E52",
"* 	c #4C4F51",
"= 	c #4C4F52",
"- 	c #4C4E50",
"; 	c #4B4E51",
"> 	c #4B4D50",
", 	c #4C4D51",
"' 	c #4B4D51",
") 	c #4C4D50",
"! 	c #4A4D4F",
"~ 	c #383A3C",
"{ 	c #2A2B2C",
"] 	c #202223",
"^ 	c #202123",
"/ 	c #38393C",
"( 	c #4A4C50",
"_ 	c #4B4E50",
": 	c #46484A",
"< 	c #29292B",
"[ 	c #1B1C1D",
"} 	c #18191A",
"| 	c #161718",
"1 	c #171718",
"2 	c #28292B",
"3 	c #4B4D4F",
"4 	c #4A4D50",
"5 	c #4A4C4E",
"6 	c #292A2B",
"7 	c #1A1B1C",
"8 	c #2D2F30",
"9 	c #1B1B1C",
"0 	c #494C4F",
"a 	c #4A4C4F",
"b 	c #4B4C4F",
"c 	c #1C1D1E",
"d 	c #1B1C1C",
"e 	c #313234",
"f 	c #333335",
"g 	c #323335",
"h 	c #323334",
"i 	c #383A3D",
"j 	c #2B2D2E",
"k 	c #191A1B",
"l 	c #2C2D2F",
"m 	c #353739",
"n 	c #353738",
"o 	c #494C4E",
"p 	c #494B4E",
"q 	c #4A4B4F",
"r 	c #232425",
"s 	c #393B3C",
"t 	c #383B3C",
"u 	c #393A3D",
"v 	c #363839",
"w 	c #4A4B4E",
"x 	c #242526",
"y 	c #3D3E40",
"z 	c #3C3E40",
"A 	c #393A3C",
"B 	c #494B4D",
"C 	c #4F5153",
"D 	c #2E2F30",
"E 	c #404144",
"F 	c #404143",
"G 	c #484B4D",
"H 	c #494A4D",
"I 	c #505153",
"J 	c #404244",
"K 	c #202021",
"L 	c #1E1F20",
"M 	c #434447",
"N 	c #424547",
"O 	c #434547",
"P 	c #1D1F20",
"Q 	c #414244",
"R 	c #484A4D",
"S 	c #484A4C",
"T 	c #5B5C5F",
"U 	c #2F3132",
"V 	c #414345",
"W 	c #353639",
"X 	c #1E2020",
"Y 	c #2F3031",
"Z 	c #484B4C",
"` 	c #48494C",
" .	c #474A4C",
"..	c #5C5E5F",
"+.	c #303133",
"@.	c #212122",
"#.	c #1C1E1F",
"$.	c #1D1E1E",
"%.	c #474A4D",
"&.	c #47494C",
"*.	c #474A4B",
"=.	c #505254",
"-.	c #656769",
";.	c #4A4C4D",
">.	c #282A2B",
",.	c #353638",
"'.	c #4A4B4D",
").	c #656768",
"!.	c #4F5253",
"~.	c #47494B",
"{.	c #5A5C5E",
"].	c #646668",
"^.	c #6D6E70",
"/.	c #646767",
"(.	c #5B5C5E",
"_.	c #46494B",
":.	c #47484B",
"<.	c #46484B",
"[.	c #46494A",
"}.	c #47494A",
"|.	c #47484A",
"1.	c #45474A",
"2.	c #45484A",
"3.	c #46474A",
"4.	c #464749",
"5.	c #464849",
"6.	c #454749",
"7.	c #454849",
". . . . . . . . . . . . . . . . . . . . . . . . ",
"+ + + + + + + + + + + + + + + + + + + + + + + + ",
"@ @ @ @ @ @ @ @ @ @ @ @ @ @ @ @ @ @ @ @ @ @ @ @ ",
"# $ % & @ * $ = # * @ & # $ % & @ * $ = # * @ & ",
"# # # # % # # * # * # # # # # # % # # * # * # # ",
"# - - # # # # # ; - > , # - - # # # # # ; - > , ",
"' - ' ' ) ) > - ! ~ { ] ^ { / ( ) ) > - _ _ > _ ",
") > > > > > > : < [ } | 1 } [ 2 : > > > ) > _ > ",
"> > 3 4 > 4 5 6 7 7 6 8 8 6 9 7 6 0 3 > > ! 3 4 ",
"a a 3 b b ( ~ c d e f f g g h 9 c i ! ! 3 a b b ",
"a 5 a a a 5 j k l m m m m n m l k j a a 5 a a a ",
"o p q 5 a 5 r } m s ~ s t ~ u v } r o o p 5 p 5 ",
"o 5 p w w - x k t y z z z y z A k x - p o w p p ",
"B B p B B C D [ h E E E F F E h [ D C p B p p p ",
"G B B G H I J K L J M M N O J P K Q C H B B H H ",
"G R G R S R T U L L n V V W X L Y T R G H R Z R ",
"S S `  .S S C ..+.@.#.[ d $.@.+...C S S ` S %.R ",
"S &.&.*.*.&.` =.-.;.n >.6 ,.'.).!.&.` S  .*.S  .",
"~.*.` &.~.~.~.~.S {.].^.^./.(.R ~.~.~.~.~.~.&.~.",
"_.~.:.:.<.~.:.~.~._.~.~._.~.:.:.<.~.:.~.~._.~.~.",
"<.[.<.~._.}.[.: |.<.[.<.<.[.<.~._.}.[.: |.<.[.<.",
": <.: _.: <.: : : : : |.: <.: _.: <.: : : : : |.",
"1.: : : 2.3.: 2.2.3.4.2.1.: : : 2.3.: 2.2.3.4.2.",
"1.5.6.6.4.7.4.2.1.2.6.6.1.5.6.6.4.7.4.2.1.2.6.6."};
