/* XPM */
static char * maximize_inactive_xpm[] = {
"24 24 137 2",
"  	c None",
". 	c #000000",
"+ 	c #6D7077",
"@ 	c #4D4F52",
"# 	c #4C4E51",
"$ 	c #4D4E52",
"% 	c #4D4E51",
"& 	c #4C4E52",
"* 	c #4C4F51",
"= 	c #4C4F52",
"- 	c #4C4E50",
"; 	c #4B4E51",
"> 	c #4B4D50",
", 	c #4C4D51",
"' 	c #4B4D51",
") 	c #4C4D50",
"! 	c #4A4D4F",
"~ 	c #3E4142",
"{ 	c #343537",
"] 	c #2F3132",
"^ 	c #2F3033",
"/ 	c #353637",
"( 	c #3E4043",
"_ 	c #4A4C50",
": 	c #4B4E50",
"< 	c #48494C",
"[ 	c #2D2E30",
"} 	c #2B2D2E",
"| 	c #2A2B2D",
"1 	c #2B2B2D",
"2 	c #2B2C2E",
"3 	c #4B4D4F",
"4 	c #4A4D50",
"5 	c #4A4C4E",
"6 	c #323435",
"7 	c #595A5C",
"8 	c #6A6D6F",
"9 	c #6B6D6F",
"0 	c #5B5D5F",
"a 	c #363839",
"b 	c #2C2E30",
"c 	c #343638",
"d 	c #494C4F",
"e 	c #4A4C4F",
"f 	c #4B4C4F",
"g 	c #3E4042",
"h 	c #2D2F30",
"i 	c #333435",
"j 	c #656669",
"k 	c #5C5D60",
"l 	c #57575A",
"m 	c #56575A",
"n 	c #5B5D60",
"o 	c #666769",
"p 	c #2E2F30",
"q 	c #353638",
"r 	c #2C2D2F",
"s 	c #545557",
"t 	c #535558",
"u 	c #515355",
"v 	c #515354",
"w 	c #545558",
"x 	c #494C4E",
"y 	c #494B4E",
"z 	c #4A4B4F",
"A 	c #303234",
"B 	c #2A2C2D",
"C 	c #55575A",
"D 	c #505254",
"E 	c #4F5154",
"F 	c #4F5254",
"G 	c #505155",
"H 	c #56585A",
"I 	c #313234",
"J 	c #4A4B4E",
"K 	c #313334",
"L 	c #4D5052",
"M 	c #4E4F52",
"N 	c #4E5052",
"O 	c #2C2C2E",
"P 	c #494B4D",
"Q 	c #4D4F51",
"R 	c #363739",
"S 	c #414345",
"T 	c #404143",
"U 	c #2C2E2F",
"V 	c #484B4D",
"W 	c #494A4D",
"X 	c #424346",
"Y 	c #2F3032",
"Z 	c #303133",
"` 	c #484A4B",
" .	c #47494B",
"..	c #2E2F31",
"+.	c #484A4D",
"@.	c #484A4C",
"#.	c #36383A",
"$.	c #3E4041",
"%.	c #47484B",
"&.	c #2E3031",
"*.	c #545659",
"=.	c #484B4C",
"-.	c #474A4C",
";.	c #555759",
">.	c #37383A",
",.	c #2C2D2E",
"'.	c #2D2E2F",
").	c #37393A",
"!.	c #545658",
"~.	c #474A4D",
"{.	c #47494C",
"].	c #474A4B",
"^.	c #4F5153",
"/.	c #5A5D5F",
"(.	c #393A3C",
"_.	c #323436",
":.	c #333436",
"<.	c #383A3C",
"[.	c #5A5D5E",
"}.	c #4E5152",
"|.	c #535557",
"1.	c #5C5E61",
"2.	c #606163",
"3.	c #5C5F60",
"4.	c #46494B",
"5.	c #46484B",
"6.	c #46494A",
"7.	c #47494A",
"8.	c #46484A",
"9.	c #47484A",
"0.	c #45474A",
"a.	c #45484A",
"b.	c #46474A",
"c.	c #464749",
"d.	c #464849",
"e.	c #454749",
"f.	c #454849",
". . . . . . . . . . . . . . . . . . . . . . . . ",
"+ + + + + + + + + + + + + + + + + + + + + + + + ",
"@ @ @ @ @ @ @ @ @ @ @ @ @ @ @ @ @ @ @ @ @ @ @ @ ",
"# $ % & @ * $ = # * @ & # $ % & @ * $ = # * @ & ",
"# # # # % # # * # * # # # # # # % # # * # * # # ",
"# - - # # # # # ; - > , # - - # # # # # ; - > , ",
"' - ' ' ) ) > - ! ~ { ] ^ / ( _ ) ) > - : : > : ",
") > > > > > > < { [ } | 1 2 [ { < > > > ) > : > ",
"> > 3 4 > 4 5 { [ 6 7 8 9 0 a b c d 3 > > ! 3 4 ",
"e e 3 f f _ g h i j k l m n o i p ( ! ! 3 e f f ",
"e 5 e e e 5 q r s t u u u v t w r q e e 5 e e e ",
"x y z 5 e 5 A B C D E D F E G H 2 I x x y 5 y 5 ",
"x 5 y J J 3 K 2 L M @ @ L N @ M O K 3 y x J y y ",
"P P y P P Q R b S # # # - - # T U a Q y P y y y ",
"V P P V W % X Y Z ` f f ! 3  ...Y X % W P P W W ",
"V +.V +.@.y w #.....$.%. .g &...R *.y V W +.=.+.",
"@.@.< -.@.@.N ;.>.] b r ,.'.Y ).!.Q @.@.< @.~.+.",
"@.{.{.].].{.< ^./.].(._.:.<.{.[.}.{.< @.-.].@.-.",
" .].< {. . . . .P |.1.2.2.3.w y  . . . . . .{. .",
"4. .%.%.5. .%. . .4. . .4. .%.%.5. .%. . .4. . .",
"5.6.5. .4.7.6.8.9.5.6.5.5.6.5. .4.7.6.8.9.5.6.5.",
"8.5.8.4.8.5.8.8.8.8.8.9.8.5.8.4.8.5.8.8.8.8.8.9.",
"0.8.8.8.a.b.8.a.a.b.c.a.0.8.8.8.a.b.8.a.a.b.c.a.",
"0.d.e.e.c.f.c.a.0.a.e.e.0.d.e.e.c.f.c.a.0.a.e.e."};
