/* XPM */
static char * top_left_active_shaded_xpm[] = {
"5 22 27 1",
" 	c None",
".	c #000000",
"+	c #0B0B0B",
"@	c #353535",
"#	c #252628",
"$	c #424449",
"%	c #6D7077",
"&	c #2D2F31",
"*	c #696C72",
"=	c #57595E",
"-	c #4D4F52",
";	c #37383A",
">	c #4F5154",
",	c #050505",
"'	c #4C4E51",
")	c #4B4D50",
"!	c #4B4D4F",
"~	c #4A4C4F",
"{	c #4A4C4E",
"]	c #494B4E",
"^	c #494B4D",
"/	c #484A4D",
"(	c #484A4C",
"_	c #47494C",
":	c #47494B",
"<	c #46484A",
"[	c #454749",
"   .+",
" @#$%",
" &*=-",
".;>--",
",''''",
".''''",
".))))",
".))))",
".!!!!",
".~~~~",
".{{{{",
".]]]]",
".]]]]",
".^^^^",
".////",
".((((",
".____",
".::::",
".::::",
".<<<<",
".<<<<",
".[[[["};
