/* XPM */
static char * close_prelight_xpm[] = {
"24 24 60 1",
" 	c None",
".	c #6D6D6D",
"+	c #FFFFFF",
"@	c #F6F6F7",
"#	c #F5F5F6",
"$	c #B9B9B9",
"%	c #89898A",
"&	c #6C6C6C",
"*	c #E6E6E7",
"=	c #858585",
"-	c #5A5A5B",
";	c #505050",
">	c #4B4B4B",
",	c #878787",
"'	c #565657",
")	c #666060",
"!	c #C99B9B",
"~	c #EEA8A8",
"{	c #BCBCBC",
"]	c #5E5E5E",
"^	c #655F5F",
"/	c #F3A2A2",
"(	c #FB9595",
"_	c #FB8D8E",
":	c #919192",
"<	c #555556",
"[	c #C69393",
"}	c #FB898A",
"|	c #FB8787",
"1	c #777778",
"2	c #525253",
"3	c #EA8D8D",
"4	c #FB8383",
"5	c #7A7A7B",
"6	c #E98484",
"7	c #FB7F7F",
"8	c #F5F5F7",
"9	c #969698",
"0	c #5D5D5D",
"a	c #BC7D7E",
"b	c #FA7A7B",
"c	c #C1C1C3",
"d	c #6B6B6C",
"e	c #676162",
"f	c #EF7879",
"g	c #FA7677",
"h	c #959596",
"i	c #666667",
"j	c #686161",
"k	c #BB797A",
"l	c #E87778",
"m	c #E9E9EB",
"n	c #979798",
"o	c #707071",
"p	c #636364",
"q	c #C5C5C6",
"r	c #9F9FA0",
"s	c #868687",
"t	c #F6F6F8",
"u	c #F7F7F8",
"........................",
"++++++++++++++++++++++++",
"@@@@@@@@@@@@@@@@@@@@@@@@",
"@@@@@@@@@@@@@@@@@@@@@@@@",
"@@@@@@@@@@@@@@@@@@@@@@@@",
"@@@@@@@@@@@@@@@@@@@@@@@@",
"@@@@@@@@#$%&&%$#@@@@@@@@",
"@@@@@@@*=-;>>;-=*@@@@@@@",
"@@@@@@#,')!~~!)',#@@@@@@",
"@@@@@@{]^/(__(/^]{@@@@@@",
"@@@@@@:<[}||||}[<:@@@@@@",
"@@@@@@123444444321@@@@@@",
"@@@@@@5<67777776<5@@@@@@",
"88888890abbbbbba09888888",
"888888cdefggggfedc888888",
"888888#hijkllkjih#888888",
"8888888mnop00ponm8888888",
"888888888qrssrq888888888",
"888888888@tuut@888888888",
"888888888888888888888888",
"888888888888888888888888",
"888888888888888888888888",
"888888888888888888888888",
"888888888888888888888888"};
