/* XPM */
static char * maximize_active_xpm[] = {
"22 22 79 1",
" 	c None",
".	c #6D6D6D",
"+	c #FFFFFF",
"@	c #F6F6F7",
"#	c #F2F2F3",
"$	c #B7B7B8",
"%	c #7B7B7B",
"&	c #676767",
"*	c #7C7C7C",
"=	c #B8B8B9",
"-	c #F3F3F4",
";	c #E5E5E6",
">	c #575758",
",	c #4E4E4E",
"'	c #4A4A4A",
")	c #7D7D7D",
"!	c #E6E6E7",
"~	c #F1F1F2",
"{	c #545455",
"]	c #656565",
"^	c #CBCBCB",
"/	c #EFEFF0",
"(	c #CCCCCC",
"_	c #696969",
":	c #555556",
"<	c #7E7E7E",
"[	c #B6B6B7",
"}	c #5D5D5D",
"|	c #EFEFEF",
"1	c #F8F8F8",
"2	c #F7F7F8",
"3	c #646464",
"4	c #848484",
"5	c #C7C7C8",
"6	c #C6C6C7",
"7	c #868686",
"8	c #707071",
"9	c #525252",
"0	c #F7F7F7",
"a	c #EEEEEE",
"b	c #717172",
"c	c #727273",
"d	c #535354",
"e	c #EEEEEF",
"f	c #EDEDEE",
"g	c #737374",
"h	c #8C8C8C",
"i	c #5B5B5C",
"j	c #C0C0C1",
"k	c #BDBDBE",
"l	c #8E8E8E",
"m	c #F5F5F7",
"n	c #BEBEC0",
"o	c #69696A",
"p	c #6B6B6C",
"q	c #E8E8EA",
"r	c #E7E7E9",
"s	c #BFBFC1",
"t	c #F2F2F4",
"u	c #8B8B8C",
"v	c #656566",
"w	c #676768",
"x	c #BBBBBC",
"y	c #EBEBED",
"z	c #BABABB",
"A	c #666667",
"B	c #8C8C8D",
"C	c #8F8F90",
"D	c #6D6D6E",
"E	c #626262",
"F	c #6E6E6F",
"G	c #909091",
"H	c #E9E9EB",
"I	c #F3F3F5",
"J	c #C4C4C5",
"K	c #939394",
"L	c #7D7D7E",
"M	c #949495",
"N	c #F6F6F8",
"......................",
"++++++++++++++++++++++",
"@@@@@@@@@@@@@@@@@@@@@@",
"@@@@@@@@@@@@@@@@@@@@@@",
"@@@@@@@@@@@@@@@@@@@@@@",
"@@@@@@@#$%&&*=-@@@@@@@",
"@@@@@@;*>,'',>)!@@@@@@",
"@@@@@~){]^//(_:<#@@@@@",
"@@@@@[}]|1221|3}$@@@@@",
"@@@@@4{52222226{7@@@@@",
"@@@@@89/000000a9b@@@@@",
"@@@@@cde@@@@@@fdg@@@@@",
"@@@@@hij@@@@@@kil@@@@@",
"mmmmmnopqmmmmr&osmmmmm",
"mmmmmtuvwxyyzAAB-mmmmm",
"mmmmmmqCDEiiEFGHmmmmmm",
"mmmmmmmIJKLLMJImmmmmmm",
"mmmmmmmm@N22N@mmmmmmmm",
"mmmmmmmmmmmmmmmmmmmmmm",
"mmmmmmmmmmmmmmmmmmmmmm",
"mmmmmmmmmmmmmmmmmmmmmm",
"mmmmmmmmmmmmmmmmmmmmmm"};
