<?xml version="1.0" encoding="UTF-8" standalone="no"?>
<!-- Created with Inkscape (http://www.inkscape.org/) -->

<svg
   xmlns:dc="http://purl.org/dc/elements/1.1/"
   xmlns:cc="http://creativecommons.org/ns#"
   xmlns:rdf="http://www.w3.org/1999/02/22-rdf-syntax-ns#"
   xmlns:svg="http://www.w3.org/2000/svg"
   xmlns="http://www.w3.org/2000/svg"
   xmlns:xlink="http://www.w3.org/1999/xlink"
   xmlns:sodipodi="http://sodipodi.sourceforge.net/DTD/sodipodi-0.dtd"
   xmlns:inkscape="http://www.inkscape.org/namespaces/inkscape"
   width="40"
   height="40"
   id="svg2"
   version="1.1"
   inkscape:version="0.48.5 r10040"
   sodipodi:docname="grid-selection-unchecked.svg">
  <defs
     id="defs4">
    <linearGradient
       id="linearGradient3984">
      <stop
         style="stop-color:#000000;stop-opacity:0.23529412;"
         offset="0"
         id="stop3986" />
      <stop
         style="stop-color:#000000;stop-opacity:0;"
         offset="1"
         id="stop3988" />
    </linearGradient>
    <linearGradient
       id="linearGradient3913">
      <stop
         style="stop-color:#000000;stop-opacity:0.44705883;"
         offset="0"
         id="stop3915" />
      <stop
         id="stop3917"
         offset="0.15789473"
         style="stop-color:#000000;stop-opacity:0.27450982;" />
      <stop
         style="stop-color:#000000;stop-opacity:0.25490198;"
         offset="0.89473683"
         id="stop3919" />
      <stop
         style="stop-color:#000000;stop-opacity:0.1882353;"
         offset="1"
         id="stop3921" />
    </linearGradient>
    <linearGradient
       inkscape:collect="always"
       xlink:href="#linearGradient3913"
       id="linearGradient3901"
       x1="19"
       y1="1"
       x2="19"
       y2="39"
       gradientUnits="userSpaceOnUse" />
    <linearGradient
       inkscape:collect="always"
       xlink:href="#linearGradient3984"
       id="linearGradient3990"
       x1="19"
       y1="1015.3622"
       x2="19"
       y2="1017.3622"
       gradientUnits="userSpaceOnUse" />
  </defs>
  <sodipodi:namedview
     id="base"
     pagecolor="#ffffff"
     bordercolor="#666666"
     borderopacity="1.0"
     inkscape:pageopacity="0.0"
     inkscape:pageshadow="2"
     inkscape:zoom="5.6568543"
     inkscape:cx="-41.326554"
     inkscape:cy="38.948868"
     inkscape:document-units="px"
     inkscape:current-layer="layer1"
     showgrid="true"
     inkscape:snap-bbox="true"
     showguides="true"
     inkscape:guide-bbox="true"
     inkscape:showpageshadow="false"
     showborder="true"
     inkscape:window-width="1920"
     inkscape:window-height="1052"
     inkscape:window-x="0"
     inkscape:window-y="23"
     inkscape:window-maximized="1"
     inkscape:snap-global="true">
    <inkscape:grid
       type="xygrid"
       id="grid2985"
       empspacing="5"
       visible="true"
       enabled="true"
       snapvisiblegridlinesonly="true" />
  </sodipodi:namedview>
  <metadata
     id="metadata7">
    <rdf:RDF>
      <cc:Work
         rdf:about="">
        <dc:format>image/svg+xml</dc:format>
        <dc:type
           rdf:resource="http://purl.org/dc/dcmitype/StillImage" />
        <dc:title />
      </cc:Work>
    </rdf:RDF>
  </metadata>
  <g
     inkscape:label="Ebene 1"
     inkscape:groupmode="layer"
     id="layer1"
     transform="translate(0,-1012.3622)">
    <path
       style="fill:url(#linearGradient3901);fill-opacity:1;stroke:#4080fb;stroke-width:0;stroke-linejoin:round;stroke-miterlimit:4;stroke-opacity:0.23529412000000000;stroke-dasharray:none;stroke-dashoffset:0;opacity:1"
       d="M 6 1 C 3.23 1 1 3.2299905 1 6 L 1 34 C 1 36.77001 3.23 39 6 39 L 34 39 C 36.77 39 39 36.77001 39 34 L 39 6 C 39 3.2299905 36.77 1 34 1 L 6 1 z M 6 3 L 34 3 C 35.662 3 37 4.338 37 6 L 37 34 C 37 35.662 35.662 37 34 37 L 6 37 C 4.338 37 3 35.662 3 34 L 3 6 C 3 4.338 4.338 3 6 3 z "
       transform="translate(0,1012.3622)"
       id="rect3020" />
    <rect
       style="opacity:1;fill:#ffffff;fill-opacity:1;stroke:#4080fb;stroke-width:0;stroke-linejoin:round;stroke-miterlimit:4;stroke-opacity:0.23529412000000000;stroke-dasharray:none;stroke-dashoffset:0"
       id="rect3800"
       width="34"
       height="34"
       x="3"
       y="3"
       rx="3"
       ry="3"
       transform="translate(0,1012.3622)" />
    <path
       style="opacity:0.40000000000000002;fill:url(#linearGradient3990);fill-opacity:1;stroke:#4080fb;stroke-width:0;stroke-linejoin:round;stroke-miterlimit:4;stroke-opacity:0.23529412000000000;stroke-dasharray:none;stroke-dashoffset:0"
       d="m 6,1015.3622 c -1.662,0 -3,1.338 -3,3 l 0,2 c 0,-1.662 1.338,-3 3,-3 l 28,0 c 1.662,0 3,1.338 3,3 l 0,-2 c 0,-1.662 -1.338,-3 -3,-3 l -28,0 z"
       id="rect3800-7"
       inkscape:connector-curvature="0" />
  </g>
</svg>
