<?xml version="1.0" encoding="UTF-8" standalone="no"?>
<!-- Created with Inkscape (http://www.inkscape.org/) -->

<svg
   xmlns:dc="http://purl.org/dc/elements/1.1/"
   xmlns:cc="http://creativecommons.org/ns#"
   xmlns:rdf="http://www.w3.org/1999/02/22-rdf-syntax-ns#"
   xmlns:svg="http://www.w3.org/2000/svg"
   xmlns="http://www.w3.org/2000/svg"
   xmlns:xlink="http://www.w3.org/1999/xlink"
   xmlns:sodipodi="http://sodipodi.sourceforge.net/DTD/sodipodi-0.dtd"
   xmlns:inkscape="http://www.inkscape.org/namespaces/inkscape"
   width="17"
   height="15"
   id="svg4306"
   version="1.1"
   inkscape:version="0.48.5 r10040"
   sodipodi:docname="min.svg"
   enable-background="new">
  <defs
     id="defs4308">
    <linearGradient
       id="linearGradient3770">
      <stop
         style="stop-color:#000000;stop-opacity:0.62827224;"
         offset="0"
         id="stop3772" />
      <stop
         style="stop-color:#000000;stop-opacity:0.49803922;"
         offset="1"
         id="stop3774" />
    </linearGradient>
    <linearGradient
       id="linearGradient4882">
      <stop
         style="stop-color:#ffffff;stop-opacity:1;"
         offset="0"
         id="stop4884" />
      <stop
         style="stop-color:#ffffff;stop-opacity:0;"
         offset="1"
         id="stop4886" />
    </linearGradient>
    <linearGradient
       id="linearGradient3784-6">
      <stop
         style="stop-color:#ffffff;stop-opacity:0.21568628;"
         offset="0"
         id="stop3786-4" />
      <stop
         style="stop-color:#ffffff;stop-opacity:0;"
         offset="1"
         id="stop3788-6" />
    </linearGradient>
    <linearGradient
       y2="11"
       x2="8"
       y1="3"
       x1="8"
       gradientUnits="userSpaceOnUse"
       id="linearGradient4257"
       xlink:href="#linearGradient3784-6"
       inkscape:collect="always" />
    <linearGradient
       inkscape:collect="always"
       xlink:href="#linearGradient3770"
       id="linearGradient4281"
       gradientUnits="userSpaceOnUse"
       gradientTransform="matrix(0.85714286,0,0,0.85714286,1.1428571,1037.5051)"
       x1="8"
       y1="1"
       x2="8"
       y2="15" />
    <linearGradient
       inkscape:collect="always"
       xlink:href="#linearGradient4882"
       id="linearGradient4283"
       gradientUnits="userSpaceOnUse"
       x1="8"
       y1="16"
       x2="8"
       y2="8"
       gradientTransform="matrix(0.875,0,0,0.875,1,0)" />
  </defs>
  <sodipodi:namedview
     id="base"
     pagecolor="#f0f1f2"
     bordercolor="#666666"
     borderopacity="1.0"
     inkscape:pageopacity="1"
     inkscape:pageshadow="2"
     inkscape:zoom="22.627417"
     inkscape:cx="6.696008"
     inkscape:cy="5.6252187"
     inkscape:document-units="px"
     inkscape:current-layer="layer1"
     showgrid="true"
     showguides="true"
     inkscape:guide-bbox="true"
     inkscape:window-width="518"
     inkscape:window-height="618"
     inkscape:window-x="919"
     inkscape:window-y="171"
     inkscape:window-maximized="0"
     inkscape:snap-bbox="true"
     inkscape:snap-global="true"
     inkscape:snap-bbox-midpoints="false">
    <inkscape:grid
       type="xygrid"
       id="grid4314"
       empspacing="5"
       visible="true"
       enabled="true"
       snapvisiblegridlinesonly="true" />
    <sodipodi:guide
       orientation="1,0"
       position="8,8"
       id="guide4316" />
    <sodipodi:guide
       orientation="0,1"
       position="8,8"
       id="guide4318" />
  </sodipodi:namedview>
  <metadata
     id="metadata4311">
    <rdf:RDF>
      <cc:Work
         rdf:about="">
        <dc:format>image/svg+xml</dc:format>
        <dc:type
           rdf:resource="http://purl.org/dc/dcmitype/StillImage" />
        <dc:title />
      </cc:Work>
    </rdf:RDF>
  </metadata>
  <g
     inkscape:label="Ebene 1"
     inkscape:groupmode="layer"
     id="layer1"
     transform="translate(0,-1037.3622)">
    <path
       style="opacity:0.25000000000000000;fill:url(#linearGradient4283);fill-opacity:1;stroke:#000000;stroke-width:0;stroke-linejoin:miter;stroke-miterlimit:4;stroke-opacity:1;stroke-dasharray:none"
       d="M 8 0 C 4.1340068 5.9211895e-16 1 3.1340068 1 7 C 1 10.865993 4.1340068 14 8 14 C 11.865993 14 15 10.865993 15 7 C 15 3.1340068 11.865993 -1.5543122e-15 8 0 z M 8 1 C 11.313708 1 14 3.6862915 14 7 C 14 10.313708 11.313708 13 8 13 C 4.6862915 13 2 10.313708 2 7 C 2 3.6862915 4.6862915 1 8 1 z "
       transform="translate(0,1037.3622)"
       id="path4878" />
    <path
       style="fill:url(#linearGradient4281);fill-opacity:1;stroke:#000000;stroke-width:0;stroke-linejoin:miter;stroke-miterlimit:4;stroke-opacity:1;stroke-dasharray:none"
       d="m 8,1038.3622 c -3.3137085,0 -6,2.6863 -6,6 0,3.3137 2.6862915,6 6,6 3.313709,0 6,-2.6863 6,-6 0,-3.3137 -2.686291,-6 -6,-6 z m 0,2 c 2.209139,0 4,1.7909 4,4 0,2.2091 -1.790861,4 -4,4 -2.209139,0 -4,-1.7909 -4,-4 0,-2.2091 1.790861,-4 4,-4 z"
       id="path4880"
       inkscape:connector-curvature="0" />
    <path
       style="fill:#000000;fill-opacity:0.23754787;stroke:none"
       d="m 8,1039.3622 c -2.7614237,0 -5,2.2386 -5,5 0,2.7614 2.2385763,5 5,5 2.761424,0 5,-2.2386 5,-5 0,-2.7614 -2.238576,-5 -5,-5 z m 0,1 c 2.209139,0 4,1.7909 4,4 0,2.2091 -1.790861,4 -4,4 -2.209139,0 -4,-1.7909 -4,-4 0,-2.2091 1.790861,-4 4,-4 z"
       id="path3812"
       inkscape:connector-curvature="0" />
    <path
       style="fill:#ffffff;fill-opacity:1;stroke:none;opacity:0.25"
       d="m 8,1040.3622 c -2.209139,0 -4,1.7909 -4,4 0,0.1701 0.04189,0.3355 0.0625,0.5 0.247066,-1.972 1.898481,-3.5 3.9375,-3.5 2.039019,0 3.690434,1.528 3.9375,3.5 0.02061,-0.1645 0.0625,-0.3299 0.0625,-0.5 0,-2.2091 -1.790861,-4 -4,-4 z"
       id="path3847-2"
       inkscape:connector-curvature="0" />
    <path
       sodipodi:type="arc"
       style="fill:url(#linearGradient4257);fill-opacity:1;stroke:none"
       id="path3847"
       sodipodi:cx="8"
       sodipodi:cy="7"
       sodipodi:rx="4"
       sodipodi:ry="4"
       d="M 12,7 C 12,9.209139 10.209139,11 8,11 5.790861,11 4,9.209139 4,7 4,4.790861 5.790861,3 8,3 c 2.209139,0 4,1.790861 4,4 z"
       transform="translate(0,1037.3622)" />
  </g>
</svg>
