<?xml version="1.0" encoding="UTF-8" standalone="no"?>
<svg
   xmlns:dc="http://purl.org/dc/elements/1.1/"
   xmlns:cc="http://creativecommons.org/ns#"
   xmlns:rdf="http://www.w3.org/1999/02/22-rdf-syntax-ns#"
   xmlns:svg="http://www.w3.org/2000/svg"
   xmlns="http://www.w3.org/2000/svg"
   xmlns:xlink="http://www.w3.org/1999/xlink"
   xmlns:sodipodi="http://sodipodi.sourceforge.net/DTD/sodipodi-0.dtd"
   xmlns:inkscape="http://www.inkscape.org/namespaces/inkscape"
   width="30"
   height="31"
   id="svg2"
   version="1.1"
   inkscape:version="0.48.5 r10040"
   sodipodi:docname="tabActiveStart.svg">
  <metadata
     id="metadata18">
    <rdf:RDF>
      <cc:Work
         rdf:about="">
        <dc:format>image/svg+xml</dc:format>
        <dc:type
           rdf:resource="http://purl.org/dc/dcmitype/StillImage" />
        <dc:title />
      </cc:Work>
    </rdf:RDF>
  </metadata>
  <sodipodi:namedview
     pagecolor="#ffffff"
     bordercolor="#666666"
     borderopacity="1"
     objecttolerance="10"
     gridtolerance="10"
     guidetolerance="10"
     inkscape:pageopacity="0"
     inkscape:pageshadow="2"
     inkscape:window-width="1920"
     inkscape:window-height="1052"
     id="namedview16"
     showgrid="true"
     inkscape:zoom="7.6129032"
     inkscape:cx="13.000656"
     inkscape:cy="4.6671837"
     inkscape:window-x="0"
     inkscape:window-y="23"
     inkscape:window-maximized="1"
     inkscape:current-layer="svg2"
     inkscape:snap-bbox="true">
    <inkscape:grid
       type="xygrid"
       id="grid3911" />
  </sodipodi:namedview>
  <defs
     id="defs4">
    <linearGradient
       id="linearGradient3839">
      <stop
         style="stop-color:#3f4042;stop-opacity:1"
         offset="0"
         id="stop3842" />
      <stop
         style="stop-color:#494a4d;stop-opacity:1;"
         offset="1"
         id="stop3844" />
    </linearGradient>
    <linearGradient
       inkscape:collect="always"
       xlink:href="#linearGradient3839"
       id="linearGradient3846"
       x1="0"
       y1="31"
       x2="0"
       y2="2"
       gradientUnits="userSpaceOnUse"
       gradientTransform="translate(32,-1)" />
    <filter
       inkscape:collect="always"
       id="filter3846"
       x="-0.098181818"
       width="1.1963636"
       y="-0.12"
       height="1.24">
      <feGaussianBlur
         inkscape:collect="always"
         stdDeviation="1.8"
         id="feGaussianBlur3848" />
    </filter>
  </defs>
  <rect
     style="fill:#000000;fill-opacity:1;stroke:#4080fb;stroke-width:0;stroke-linecap:butt;stroke-linejoin:miter;stroke-miterlimit:4;stroke-opacity:0.84555981000000002;stroke-dasharray:none;stroke-dashoffset:0;filter:url(#filter3846);opacity:0.35"
     id="rect3036"
     width="44"
     height="36"
     x="-25"
     y="0"
     ry="3"
     transform="matrix(0.98784195,0,0,0.98566309,35.963526,0.2580644)" />
  <path
     style="fill:#151516;fill-opacity:1;stroke:#4080fb;stroke-width:0;stroke-linecap:butt;stroke-linejoin:miter;stroke-miterlimit:4;stroke-opacity:0.84555981;stroke-dasharray:none;stroke-dashoffset:0"
     d="m 14,0 c -1.662,0 -3.000001,1.338 -3.000001,3 l 0,30 c 0,1.662 1.338001,3 3.000001,3 l 38,0 c 1.662,0 3,-1.338 3,-3 L 55,3 C 55,1.338 53.662,0 52,0 L 14,0 z m 0,1 38,0 c 1.108,0 2,0.892 2,2 l 0,30 c 0,1.108 -0.892,2 -2,2 l -38,0 c -1.108,0 -2,-0.892 -2,-2 L 12,3 c 0,-1.108 0.892,-2 2,-2 z"
     id="rect3978"
     inkscape:connector-curvature="0" />
  <rect
     style="fill:url(#linearGradient3846);fill-opacity:1;stroke:#4080fb;stroke-width:0;stroke-linecap:butt;stroke-linejoin:miter;stroke-miterlimit:4;stroke-opacity:0.84555981;stroke-dasharray:none;stroke-dashoffset:0"
     id="rect3837"
     width="42"
     height="34"
     x="11.999993"
     y="1"
     ry="2" />
  <path
     style="opacity:0.15;fill:#ffffff;fill-opacity:1;stroke:#4080fb;stroke-width:0;stroke-linecap:butt;stroke-linejoin:miter;stroke-miterlimit:4;stroke-opacity:0.84555981;stroke-dasharray:none;stroke-dashoffset:0"
     d="m 14,1 c -1.108,0 -2,0.892 -2,2 l 0,1 c 0,-1.108 0.892,-2 2,-2 l 38,0 c 1.108,0 2,0.892 2,2 L 54,3 C 54,1.892 53.108,1 52,1 L 14,1 z"
     id="rect3837-6"
     inkscape:connector-curvature="0" />
  <rect
     style="fill:#3f4042;fill-opacity:1;stroke:#4080fb;stroke-width:0;stroke-linecap:butt;stroke-linejoin:miter;stroke-miterlimit:4;stroke-opacity:0.84555981;stroke-dasharray:none;stroke-dashoffset:0"
     id="rect3869"
     width="44"
     height="1"
     x="11"
     y="30"
     ry="0" />
</svg>
