<?xml version="1.0" encoding="UTF-8" standalone="no"?>
<svg
   xmlns:dc="http://purl.org/dc/elements/1.1/"
   xmlns:cc="http://creativecommons.org/ns#"
   xmlns:rdf="http://www.w3.org/1999/02/22-rdf-syntax-ns#"
   xmlns:svg="http://www.w3.org/2000/svg"
   xmlns="http://www.w3.org/2000/svg"
   xmlns:xlink="http://www.w3.org/1999/xlink"
   xmlns:sodipodi="http://sodipodi.sourceforge.net/DTD/sodipodi-0.dtd"
   xmlns:inkscape="http://www.inkscape.org/namespaces/inkscape"
   width="30"
   height="31"
   id="svg2"
   version="1.1"
   inkscape:version="0.48.5 r10040"
   sodipodi:docname="tabActiveMiddle.svg">
  <metadata
     id="metadata18">
    <rdf:RDF>
      <cc:Work
         rdf:about="">
        <dc:format>image/svg+xml</dc:format>
        <dc:type
           rdf:resource="http://purl.org/dc/dcmitype/StillImage" />
        <dc:title />
      </cc:Work>
    </rdf:RDF>
  </metadata>
  <sodipodi:namedview
     pagecolor="#ffffff"
     bordercolor="#666666"
     borderopacity="1"
     objecttolerance="10"
     gridtolerance="10"
     guidetolerance="10"
     inkscape:pageopacity="0"
     inkscape:pageshadow="2"
     inkscape:window-width="1920"
     inkscape:window-height="1052"
     id="namedview16"
     showgrid="true"
     inkscape:zoom="5.3831355"
     inkscape:cx="76.84891"
     inkscape:cy="-27.528703"
     inkscape:window-x="0"
     inkscape:window-y="23"
     inkscape:window-maximized="1"
     inkscape:current-layer="svg2">
    <inkscape:grid
       type="xygrid"
       id="grid3911" />
  </sodipodi:namedview>
  <defs
     id="defs4">
    <linearGradient
       id="linearGradient3839">
      <stop
         style="stop-color:#3f4042;stop-opacity:1"
         offset="0"
         id="stop3842" />
      <stop
         style="stop-color:#494a4d;stop-opacity:1;"
         offset="1"
         id="stop3844" />
    </linearGradient>
    <linearGradient
       inkscape:collect="always"
       xlink:href="#linearGradient3839"
       id="linearGradient3846"
       x1="0"
       y1="31"
       x2="0"
       y2="2"
       gradientUnits="userSpaceOnUse"
       gradientTransform="translate(15,-1)" />
  </defs>
  <path
     style="fill:#151516;fill-opacity:1;stroke:#4080fb;stroke-width:0;stroke-linecap:butt;stroke-linejoin:miter;stroke-miterlimit:4;stroke-opacity:0.84555981;stroke-dasharray:none;stroke-dashoffset:0"
     d="m -3,0 c -1.662,0 -3,1.338 -3,3 l 0,30 c 0,1.662 1.338,3 3,3 l 38,0 c 1.662,0 3,-1.338 3,-3 L 38,3 C 38,1.338 36.662,0 35,0 L -3,0 z m 0,1 38,0 c 1.108,0 2,0.892 2,2 l 0,30 c 0,1.108 -0.892,2 -2,2 l -38,0 c -1.108,0 -2,-0.892 -2,-2 L -5,3 c 0,-1.108 0.892,-2 2,-2 z"
     id="rect3978"
     inkscape:connector-curvature="0" />
  <rect
     style="fill:url(#linearGradient3846);fill-opacity:1;stroke:#4080fb;stroke-width:0;stroke-linecap:butt;stroke-linejoin:miter;stroke-miterlimit:4;stroke-opacity:0.84555981;stroke-dasharray:none;stroke-dashoffset:0"
     id="rect3837"
     width="42"
     height="34"
     x="-5"
     y="1"
     ry="2" />
  <path
     style="opacity:0.15;fill:#ffffff;fill-opacity:1;stroke:#4080fb;stroke-width:0;stroke-linecap:butt;stroke-linejoin:miter;stroke-miterlimit:4;stroke-opacity:0.84555981;stroke-dasharray:none;stroke-dashoffset:0"
     d="m -3,1 c -1.108,0 -2,0.892 -2,2 l 0,1 c 0,-1.108 0.892,-2 2,-2 l 38,0 c 1.108,0 2,0.892 2,2 L 37,3 C 37,1.892 36.108,1 35,1 L -3,1 z"
     id="rect3837-6"
     inkscape:connector-curvature="0" />
</svg>
