<?xml version="1.0" encoding="UTF-8" standalone="no"?>
<svg
   xmlns:dc="http://purl.org/dc/elements/1.1/"
   xmlns:cc="http://creativecommons.org/ns#"
   xmlns:rdf="http://www.w3.org/1999/02/22-rdf-syntax-ns#"
   xmlns:svg="http://www.w3.org/2000/svg"
   xmlns="http://www.w3.org/2000/svg"
   xmlns:xlink="http://www.w3.org/1999/xlink"
   xmlns:sodipodi="http://sodipodi.sourceforge.net/DTD/sodipodi-0.dtd"
   xmlns:inkscape="http://www.inkscape.org/namespaces/inkscape"
   width="30"
   height="31"
   id="svg2"
   version="1.1"
   inkscape:version="0.48.5 r10040"
   sodipodi:docname="tab-start-hover.svg">
  <metadata
     id="metadata18">
    <rdf:RDF>
      <cc:Work
         rdf:about="">
        <dc:format>image/svg+xml</dc:format>
        <dc:type
           rdf:resource="http://purl.org/dc/dcmitype/StillImage" />
        <dc:title></dc:title>
      </cc:Work>
    </rdf:RDF>
  </metadata>
  <sodipodi:namedview
     pagecolor="#ffffff"
     bordercolor="#666666"
     borderopacity="1"
     objecttolerance="10"
     gridtolerance="10"
     guidetolerance="10"
     inkscape:pageopacity="0"
     inkscape:pageshadow="2"
     inkscape:window-width="1920"
     inkscape:window-height="1052"
     id="namedview16"
     showgrid="true"
     inkscape:zoom="15.225806"
     inkscape:cx="31.406898"
     inkscape:cy="17.033697"
     inkscape:window-x="0"
     inkscape:window-y="23"
     inkscape:window-maximized="1"
     inkscape:current-layer="svg2"
     inkscape:snap-bbox="true">
    <inkscape:grid
       type="xygrid"
       id="grid3911" />
  </sodipodi:namedview>
  <defs
     id="defs4">
    <linearGradient
       id="linearGradient3839-64">
      <stop
         style="stop-color:#444547;stop-opacity:1;"
         offset="0"
         id="stop3842-0" />
      <stop
         style="stop-color:#58595c;stop-opacity:1;"
         offset="1"
         id="stop3844-1" />
    </linearGradient>
    <linearGradient
       inkscape:collect="always"
       xlink:href="#linearGradient3839-64"
       id="linearGradient3769"
       gradientUnits="userSpaceOnUse"
       gradientTransform="matrix(1.0476191,0,0,1,12.952389,0)"
       x1="0"
       y1="31"
       x2="0"
       y2="2" />
  </defs>
  <g
     id="g3863"
     transform="translate(3,1)">
    <path
       style="opacity:0.5;fill:url(#linearGradient3769);fill-opacity:1;stroke:#4080fb;stroke-width:0;stroke-linecap:butt;stroke-linejoin:miter;stroke-miterlimit:4;stroke-opacity:0.84555981;stroke-dasharray:none;stroke-dashoffset:0"
       d="m -6,2 c -1.108,0 -2,0.892 -2,2 l 0,25 -2,0 0,1 2,0 0,4 c 0,1.108 0.892,2 2,2 l 40,0 c 1.108,0 2,-0.892 2,-2 l 0,-4 2,0 0,-1 -2,0 0,-25 C 36,2.892 35.108,2 34,2 L -6,2 z"
       transform="translate(19,-1)"
       id="rect3837"
       inkscape:connector-curvature="0" />
    <path
       inkscape:connector-curvature="0"
       id="rect3837-6"
       d="m 14,1 c -1.108,0 -2,0.892 -2,2 l 0,1 c 0,-1.108 0.892,-2 2,-2 l 38,0 c 1.108,0 2,0.892 2,2 L 54,3 C 54,1.892 53.108,1 52,1 L 14,1 z"
       style="opacity:0.075;fill:#ffffff;fill-opacity:1;stroke:#4080fb;stroke-width:0;stroke-linecap:butt;stroke-linejoin:miter;stroke-miterlimit:4;stroke-opacity:0.84555981;stroke-dasharray:none;stroke-dashoffset:0" />
    <g
       id="g3809">
      <path
         style="fill:#262627;fill-opacity:1;stroke:#4080fb;stroke-width:0;stroke-linecap:butt;stroke-linejoin:miter;stroke-miterlimit:4;stroke-opacity:0.84555981000000002;stroke-dasharray:none;stroke-dashoffset:0"
         d="M 14,0 C 12.338,0 10.999999,1.338 10.999999,3 L 11,26 55.000001,26 55,3 C 55,1.338 53.662,0 52,0 z m 0,1 38,0 c 1.108,0 2,0.892 2,2 l 10e-7,23 -42,0 L 12,3 c 0,-1.108 0.892,-2 2,-2 z"
         id="rect3978"
         inkscape:connector-curvature="0"
         sodipodi:nodetypes="ssccssssssccss" />
      <path
         inkscape:connector-curvature="0"
         id="path3884-95"
         d="m 9,29 0,-1 c 1.10457,0 2,-0.8954 2,-2 l 1,0 c 0,1.6569 -1.34315,3 -3,3 z"
         style="fill:#262627;fill-opacity:1;stroke:#ffffff;stroke-width:0;stroke-linejoin:round;stroke-miterlimit:4;stroke-opacity:1;stroke-dasharray:none;stroke-dashoffset:0;display:inline" />
      <path
         inkscape:connector-curvature="0"
         id="path3884-95-0"
         d="m 57,29 0,-1 c -1.10457,0 -2,-0.8954 -2,-2 l -1,0 c 0,1.6569 1.34315,3 3,3 z"
         style="fill:#262627;fill-opacity:1;stroke:#ffffff;stroke-width:0;stroke-linejoin:round;stroke-miterlimit:4;stroke-opacity:1;stroke-dasharray:none;stroke-dashoffset:0;display:inline" />
    </g>
  </g>
</svg>
