/* XPM */
static char * close_pressed_xpm[] = {
"24 24 50 1",
" 	c None",
".	c #6D6D6D",
"+	c #FFFFFF",
"@	c #F6F6F7",
"#	c #EFEFF0",
"$	c #9D9D9D",
"%	c #606060",
"&	c #444444",
"*	c #DEDEDF",
"=	c #5A5A5B",
"-	c #4D4D4D",
";	c #515151",
">	c #5B5B5C",
",	c #494949",
"'	c #525252",
")	c #484848",
"!	c #C9C9C9",
"~	c #929292",
"{	c #919191",
"]	c #9F9F9F",
"^	c #5F5F5F",
"/	c #979797",
"(	c #CACACA",
"_	c #949495",
":	c #949494",
"<	c #9B9B9B",
"[	c #454545",
"}	c #535353",
"|	c #979798",
"1	c #969696",
"2	c #99999A",
"3	c #464646",
"4	c #F5F5F7",
"5	c #5F5F60",
"6	c #4C4C4D",
"7	c #515152",
"8	c #939394",
"9	c #989898",
"0	c #606061",
"a	c #9C9C9D",
"b	c #9E9EA0",
"c	c #EFEFF1",
"d	c #F1F1F3",
"e	c #DFDFE0",
"f	c #505051",
"g	c #F2F2F3",
"h	c #9F9FA0",
"i	c #444445",
"j	c #F6F6F8",
"k	c #F7F7F8",
"........................",
"++++++++++++++++++++++++",
"@@@@@@@@@@@@@@@@@@@@@@@@",
"@@@@@@@@@@@@@@@@@@@@@@@@",
"@@@@@@@@@@@@@@@@@@@@@@@@",
"@@@@@@@@@@@@@@@@@@@@@@@@",
"@@@@@@@@#$%&&%$#@@@@@@@@",
"@@@@@@@*=&-;;-&>*@@@@@@@",
"@@@@@@#=,'''''')>#@@@@@@",
"@@@@@@$&'!~''{!'&]@@@@@@",
"@@@@@@^-'/(_:(<'-%@@@@@@",
"@@@@@@[;'}|(($}';[@@@@@@",
"@@@@@@[;'}1((2}';3@@@@@@",
"4444445678(99(_760444444",
"444444a&7!_}}_!7&b444444",
"444444c=)777777)=d444444",
"4444444e=&6ff6&=e4444444",
"44444444gh^ii5hg44444444",
"444444444@jkkj@444444444",
"444444444444444444444444",
"444444444444444444444444",
"444444444444444444444444",
"444444444444444444444444",
"444444444444444444444444"};
