/* XPM */
static char * close_active_xpm[] = {
"24 24 71 1",
" 	c None",
".	c #6D6D6D",
"+	c #FFFFFF",
"@	c #F6F6F7",
"#	c #F2F2F3",
"$	c #B3B3B4",
"%	c #7D7D7D",
"&	c #636363",
"*	c #B4B4B5",
"=	c #E5E5E6",
"-	c #7B7B7B",
";	c #585859",
">	c #4F4F4F",
",	c #4A4A4A",
"'	c #555556",
")	c #7C7C7C",
"!	c #F6F6F6",
"~	c #FEFEFE",
"{	c #8C8C8C",
"]	c #565657",
"^	c #7E7E7E",
"/	c #B7B7B8",
"(	c #5C5C5C",
"_	c #FDFDFD",
":	c #FDFDFE",
"<	c #5D5D5D",
"[	c #B8B8B9",
"}	c #858585",
"|	c #545455",
"1	c #EEEEEE",
"2	c #FCFCFC",
"3	c #EDEDED",
"4	c #878787",
"5	c #707071",
"6	c #525252",
"7	c #F8F8F8",
"8	c #FBFBFB",
"9	c #F9F9F9",
"0	c #737374",
"a	c #F5F5F5",
"b	c #F9F9FA",
"c	c #F3F3F3",
"d	c #F5F5F7",
"e	c #F7F7F8",
"f	c #8B8B8C",
"g	c #CACACB",
"h	c #F8F8F9",
"i	c #C6C6C8",
"j	c #8D8D8E",
"k	c #F7F7F9",
"l	c #BEBEBF",
"m	c #69696A",
"n	c #6E6E6F",
"o	c #ECECED",
"p	c #F6F6F8",
"q	c #EBEBEC",
"r	c #676768",
"s	c #BFBFC0",
"t	c #656566",
"u	c #686869",
"v	c #BDBDBF",
"w	c #ECECEE",
"x	c #EFEFEF",
"y	c #909091",
"z	c #626262",
"A	c #626263",
"B	c #C5C5C6",
"C	c #969697",
"D	c #808081",
"E	c #979798",
"F	c #FAFAFB",
"........................",
"++++++++++++++++++++++++",
"@@@@@@@@@@@@@@@@@@@@@@@@",
"@@@@@@@@@@@@@@@@@@@@@@@@",
"@@@@@@@@@@@@@@@@@@@@@@@@",
"@@@@@@@@@@@@@@@@@@@@@@@@",
"@@@@@@@@#$%&&%*#@@@@@@@@",
"@@@@@@@=-;>,,>;-=@@@@@@@",
"@@@@@@#%')!~~!{]^#@@@@@@",
"@@@@@@/()_:__:_)<[@@@@@@",
"@@@@@@}|12222223|4@@@@@@",
"@@@@@@567888888965@@@@@@",
"@@@@@@0|abbbbbbc|0@@@@@@",
"dddddef(ghhhhhhi(jeddddd",
"dddddklmnoppppqrmskddddd",
"ddddddejtuvwwvutj7dddddd",
"ddddddkxynz((Anyxkdddddd",
"dddddddh8BCDDEB8hddddddd",
"dddddddddF_~~_Fddddddddd",
"dddddddddddddddddddddddd",
"dddddddddddddddddddddddd",
"dddddddddddddddddddddddd",
"dddddddddddddddddddddddd",
"dddddddddddddddddddddddd"};
