/* XPM */
static char * hide_pressed_xpm[] = {
"24 24 37 1",
" 	c None",
".	c #6D6D6D",
"+	c #FFFFFF",
"@	c #F6F6F7",
"#	c #EFEFF0",
"$	c #9D9D9D",
"%	c #606060",
"&	c #444444",
"*	c #DEDEDF",
"=	c #5A5A5B",
"-	c #4D4D4D",
";	c #515151",
">	c #5B5B5C",
",	c #494949",
"'	c #525252",
")	c #484848",
"!	c #9F9F9F",
"~	c #5F5F5F",
"{	c #454545",
"]	c #CACACA",
"^	c #464646",
"/	c #F5F5F7",
"(	c #5F5F60",
"_	c #4C4C4D",
":	c #515152",
"<	c #606061",
"[	c #9C9C9D",
"}	c #9E9EA0",
"|	c #EFEFF1",
"1	c #F1F1F3",
"2	c #DFDFE0",
"3	c #505051",
"4	c #F2F2F3",
"5	c #9F9FA0",
"6	c #444445",
"7	c #F6F6F8",
"8	c #F7F7F8",
"........................",
"++++++++++++++++++++++++",
"@@@@@@@@@@@@@@@@@@@@@@@@",
"@@@@@@@@@@@@@@@@@@@@@@@@",
"@@@@@@@@@@@@@@@@@@@@@@@@",
"@@@@@@@@@@@@@@@@@@@@@@@@",
"@@@@@@@@#$%&&%$#@@@@@@@@",
"@@@@@@@*=&-;;-&>*@@@@@@@",
"@@@@@@#=,'''''')>#@@@@@@",
"@@@@@@$&''''''''&!@@@@@@",
"@@@@@@~-''''''''-%@@@@@@",
"@@@@@@{;']]]]]]';{@@@@@@",
"@@@@@@{;']]]]]]';^@@@@@@",
"//////(_::::::::_<//////",
"//////[&::::::::&}//////",
"//////|=)::::::)=1//////",
"///////2=&_33_&=2///////",
"////////45~66(54////////",
"/////////@7887@/////////",
"////////////////////////",
"////////////////////////",
"////////////////////////",
"////////////////////////",
"////////////////////////"};
