/* XPM */
static char * menu_inactive_xpm[] = {
"16 22 20 1",
" 	c None",
".	c #F6F6F7",
"+	c #BBBBBB",
"@	c #DEDEDF",
"#	c #9F9F9F",
"$	c #7B7B7B",
"%	c #E9E9EA",
"&	c #A0A0A0",
"*	c #A9A9AA",
"=	c #7D7D7D",
"-	c #E0E0E1",
";	c #E2E2E3",
">	c #7E7E7E",
",	c #A7A7A8",
"'	c #A2A2A2",
")	c #7F7F7F",
"!	c #A1A1A1",
"~	c #F5F5F7",
"{	c #F4F4F6",
"]	c #A0A0A1",
"                ",
"                ",
"................",
"................",
"................",
"................",
"................",
"................",
"................",
"....+@....@+....",
"....#$%..%$&....",
".....*=-;>,.....",
"......'))!......",
"~~~~~~{]]{~~~~~~",
"~~~~~~~~~~~~~~~~",
"~~~~~~~~~~~~~~~~",
"~~~~~~~~~~~~~~~~",
"~~~~~~~~~~~~~~~~",
"~~~~~~~~~~~~~~~~",
"~~~~~~~~~~~~~~~~",
"~~~~~~~~~~~~~~~~",
"~~~~~~~~~~~~~~~~"};
