<?xml version="1.0" encoding="UTF-8" standalone="no"?>
<svg
   xmlns:dc="http://purl.org/dc/elements/1.1/"
   xmlns:cc="http://creativecommons.org/ns#"
   xmlns:rdf="http://www.w3.org/1999/02/22-rdf-syntax-ns#"
   xmlns:svg="http://www.w3.org/2000/svg"
   xmlns="http://www.w3.org/2000/svg"
   xmlns:sodipodi="http://sodipodi.sourceforge.net/DTD/sodipodi-0.dtd"
   xmlns:inkscape="http://www.inkscape.org/namespaces/inkscape"
   height="16"
   width="16"
   version="1.1"
   id="svg1077"
   inkscape:version="0.48.5 r10040"
   sodipodi:docname="player-playing.svg">
  <metadata
     id="metadata1093">
    <rdf:RDF>
      <cc:Work
         rdf:about="">
        <dc:format>image/svg+xml</dc:format>
        <dc:type
           rdf:resource="http://purl.org/dc/dcmitype/StillImage" />
      </cc:Work>
    </rdf:RDF>
  </metadata>
  <defs
     id="defs1091" />
  <sodipodi:namedview
     pagecolor="#ffffff"
     bordercolor="#666666"
     borderopacity="1"
     objecttolerance="10"
     gridtolerance="10"
     guidetolerance="10"
     inkscape:pageopacity="0"
     inkscape:pageshadow="2"
     inkscape:window-width="640"
     inkscape:window-height="480"
     id="namedview1089" />
  <g
     fill="#bebebe"
     id="g1079">
    <rect
       rx=".53250"
       ry=".53250"
       height="12"
       width="2"
       y="1"
       x="6.1621"
       id="rect1081" />
    <rect
       rx=".49537"
       ry=".49537"
       height="2"
       width="4.6952"
       y="1"
       x="6.1621"
       id="rect1083" />
    <path
       stroke-linejoin="round"
       d="m7.6573 12.516a2.9953 2.9953 0 0 1 -5.9905 0 2.9953 2.9953 0 1 1 5.9905 0z"
       stroke="#bebebe"
       stroke-width="1.0095"
       id="path1085" />
  </g>
  <path
     d="m9.6734 10.461v4.7956h0.47968c0.08388 0.00048 0.16678-0.01861 0.23978-0.05994l3.3569-1.9182c0.149-0.08243 0.22479-0.25103 0.22479-0.41962s-0.0758-0.33718-0.22479-0.41962l-3.3569-1.9182c-0.073-0.044-0.156-0.063-0.24-0.063h-0.04496z"
     fill="#8ae234"
     id="path1087" />
</svg>
