<?xml version="1.0" encoding="UTF-8" standalone="no"?>
<svg
   xmlns:dc="http://purl.org/dc/elements/1.1/"
   xmlns:cc="http://creativecommons.org/ns#"
   xmlns:rdf="http://www.w3.org/1999/02/22-rdf-syntax-ns#"
   xmlns:svg="http://www.w3.org/2000/svg"
   xmlns="http://www.w3.org/2000/svg"
   xmlns:xlink="http://www.w3.org/1999/xlink"
   xmlns:sodipodi="http://sodipodi.sourceforge.net/DTD/sodipodi-0.dtd"
   xmlns:inkscape="http://www.inkscape.org/namespaces/inkscape"
   height="48"
   width="96"
   version="1.1"
   id="svg1113"
   inkscape:version="0.48.5 r10040"
   sodipodi:docname="process-working.svg">
  <metadata
     id="metadata1164">
    <rdf:RDF>
      <cc:Work
         rdf:about="">
        <dc:format>image/svg+xml</dc:format>
        <dc:type
           rdf:resource="http://purl.org/dc/dcmitype/StillImage" />
      </cc:Work>
    </rdf:RDF>
  </metadata>
  <defs
     id="defs1162" />
  <sodipodi:namedview
     pagecolor="#ffffff"
     bordercolor="#666666"
     borderopacity="1"
     objecttolerance="10"
     gridtolerance="10"
     guidetolerance="10"
     inkscape:pageopacity="0"
     inkscape:pageshadow="2"
     inkscape:window-width="640"
     inkscape:window-height="480"
     id="namedview1160" />
  <g
     style="color:#000000"
     id="g1115">
    <g
       display="none"
       id="g1117">
      <rect
         height="24"
         width="24"
         y="0"
         x="0"
         id="rect1119" />
      <rect
         height="24"
         width="24"
         y="24"
         x="0"
         id="rect1121" />
      <rect
         height="24"
         width="24"
         y="0"
         x="24"
         id="rect1123" />
      <rect
         height="24"
         width="24"
         y="24"
         x="24"
         id="rect1125" />
      <rect
         height="24"
         width="24"
         y="0"
         x="48"
         id="rect1127" />
      <rect
         height="24"
         width="24"
         y="24"
         x="48"
         id="rect1129" />
      <rect
         height="24"
         width="24"
         y="0"
         x="72"
         id="rect1131" />
      <rect
         height="24"
         width="24"
         y="24"
         x="72"
         id="rect1133" />
    </g>
    <g
       id="h"
       transform="matrix(.2824 0 0 .2824 146.92 -382.52)"
       stroke="#fff"
       stroke-linecap="round"
       stroke-width="7.0821"
       fill="none">
      <path
         opacity=".6"
         d="m-477.76 1373.4v9.4717"
         id="path1136" />
      <path
         opacity=".7"
         d="m-461.02 1380.3-7.2343 7.3824"
         id="path1138" />
      <path
         opacity=".8"
         d="m-454.08 1397h-9.4716"
         id="path1140" />
      <path
         opacity=".9"
         d="m-461.02 1413.8-6.9383-7.0864"
         id="path1142" />
      <path
         d="m-477.76 1420.7 0.00009-9.4716"
         id="path1144" />
      <path
         opacity=".3"
         d="m-494.5 1413.8 6.7905-6.9384"
         id="path1146" />
      <path
         opacity=".4"
         d="m-501.44 1397h9.4717"
         id="path1148" />
      <path
         opacity=".5"
         d="m-494.5 1380.3 6.6424 6.9384"
         id="path1150" />
    </g>
  </g>
  <use
     id="i"
     xlink:href="#h"
     transform="matrix(.70711 .70711 -.70711 .70711 36 -4.9706)"
     height="400"
     width="400"
     y="0"
     x="0" />
  <use
     id="j"
     xlink:href="#i"
     transform="matrix(.70711 .70711 -.70711 .70711 43.032 -21.91)"
     height="400"
     width="400"
     y="0"
     x="0" />
  <use
     id="k"
     xlink:href="#j"
     transform="matrix(.70711 .70711 -.70711 .70711 50.082 -38.905)"
     height="400"
     width="400"
     y="0"
     x="0" />
  <use
     id="l"
     xlink:href="#k"
     transform="matrix(.70711 .70711 -.70711 .70711 -38.92 -31.872)"
     height="400"
     width="400"
     y="0"
     x="0" />
  <use
     id="m"
     xlink:href="#l"
     transform="matrix(.70711 .70711 -.70711 .70711 52.987 2.0891)"
     height="400"
     width="400"
     y="0"
     x="0" />
  <use
     id="n"
     xlink:href="#m"
     transform="matrix(.70711 .70711 -.70711 .70711 60.013 -14.913)"
     height="400"
     width="400"
     y="0"
     x="0" />
  <use
     xlink:href="#n"
     transform="matrix(.70711 .70711 -.70711 .70711 67.022 -31.859)"
     height="400"
     width="400"
     y="0"
     x="0"
     id="use1158" />
</svg>
