<?xml version="1.0" encoding="UTF-8" standalone="no"?>
<!-- Created with Inkscape (http://www.inkscape.org/) -->

<svg
   xmlns:dc="http://purl.org/dc/elements/1.1/"
   xmlns:cc="http://creativecommons.org/ns#"
   xmlns:rdf="http://www.w3.org/1999/02/22-rdf-syntax-ns#"
   xmlns:svg="http://www.w3.org/2000/svg"
   xmlns="http://www.w3.org/2000/svg"
   xmlns:xlink="http://www.w3.org/1999/xlink"
   xmlns:sodipodi="http://sodipodi.sourceforge.net/DTD/sodipodi-0.dtd"
   xmlns:inkscape="http://www.inkscape.org/namespaces/inkscape"
   width="18"
   height="17"
   id="svg33222"
   version="1.1"
   inkscape:version="0.48.5 r10040"
   sodipodi:docname="osd.svg">
  <defs
     id="defs33224">
    <linearGradient
       id="linearGradient3768">
      <stop
         id="stop3770"
         offset="0"
         style="stop-color:#000000;stop-opacity:1;" />
      <stop
         style="stop-color:#000000;stop-opacity:1;"
         offset="0.078125"
         id="stop3778" />
      <stop
         id="stop3774"
         offset="0.97355771"
         style="stop-color:#000000;stop-opacity:1;" />
      <stop
         id="stop3776"
         offset="1"
         style="stop-color:#000000;stop-opacity:1;" />
    </linearGradient>
    <linearGradient
       inkscape:collect="always"
       xlink:href="#linearGradient3768"
       id="linearGradient3818"
       gradientUnits="userSpaceOnUse"
       x1="8"
       y1="1"
       x2="8"
       y2="14"
       gradientTransform="translate(1,0)" />
  </defs>
  <sodipodi:namedview
     id="base"
     pagecolor="#eaeaea"
     bordercolor="#666666"
     borderopacity="1.0"
     inkscape:pageopacity="1"
     inkscape:pageshadow="2"
     inkscape:zoom="11.313709"
     inkscape:cx="27.954668"
     inkscape:cy="4.6143078"
     inkscape:current-layer="layer1"
     showgrid="true"
     inkscape:grid-bbox="true"
     inkscape:document-units="px"
     inkscape:window-width="1366"
     inkscape:window-height="741"
     inkscape:window-x="0"
     inkscape:window-y="22"
     inkscape:window-maximized="1"
     inkscape:snap-nodes="false"
     inkscape:snap-bbox="true"
     inkscape:showpageshadow="false"
     showborder="true"
     inkscape:snap-global="true">
    <inkscape:grid
       type="xygrid"
       id="grid2992"
       empspacing="5"
       visible="true"
       enabled="true"
       snapvisiblegridlinesonly="true" />
  </sodipodi:namedview>
  <metadata
     id="metadata33227">
    <rdf:RDF>
      <cc:Work
         rdf:about="">
        <dc:format>image/svg+xml</dc:format>
        <dc:type
           rdf:resource="http://purl.org/dc/dcmitype/StillImage" />
        <dc:title />
      </cc:Work>
    </rdf:RDF>
  </metadata>
  <g
     id="layer1"
     inkscape:label="Layer 1"
     inkscape:groupmode="layer"
     transform="translate(0,1)">
    <rect
       ry="3.5"
       rx="3.5"
       y="0.5"
       x="1.5"
       height="13.999999"
       width="15"
       id="rect17861"
       style="opacity:0.92000002;color:#000000;fill:none;stroke:url(#linearGradient3818);stroke-width:1;stroke-miterlimit:4;stroke-opacity:1;stroke-dasharray:none;marker:none;visibility:visible;display:inline;overflow:visible;enable-background:accumulate" />
    <rect
       style="opacity:0.7;fill:#000000;fill-opacity:1;stroke:#000000;stroke-width:0;stroke-linejoin:round;stroke-miterlimit:4;stroke-opacity:1;stroke-dasharray:none;stroke-dashoffset:0"
       id="rect3002"
       width="14"
       height="13"
       x="2"
       y="1"
       rx="3"
       ry="3" />
    <path
       style="opacity:0.2;fill:#000000;fill-opacity:1;stroke:#000000;stroke-width:0;stroke-linejoin:round;stroke-miterlimit:4;stroke-opacity:1;stroke-dasharray:none;stroke-dashoffset:0"
       d="M 5,1 C 3.338,1 2,2.338 2,4 L 2,5 C 2,3.338 3.338,2 5,2 l 8,0 c 1.662,0 3,1.338 3,3 L 16,4 C 16,2.338 14.662,1 13,1 L 5,1 z"
       id="rect3002-9"
       inkscape:connector-curvature="0" />
    <path
       style="opacity:0.20000000000000001;fill:#ffffff;fill-opacity:1;stroke:#ffffff;stroke-width:0;stroke-linejoin:round;stroke-miterlimit:4;stroke-opacity:1;stroke-dasharray:none;stroke-dashoffset:0"
       d="M 4.5,-1 C 2.007,-1 0,1.007 0,3.5 l 0,8 C 0,13.993 2.007,16 4.5,16 l 9,0 c 2.493,0 4.5,-2.007 4.5,-4.5 l 0,-8 C 18,1.007 15.993,-1 13.5,-1 l -9,0 z M 5,0 13,0 c 2.216,0 4,1.7690441 4,3.96875 l 0,7.0625 C 17,13.230956 15.216,15 13,15 L 5,15 C 2.784,15 1,13.230956 1,11.03125 L 1,3.96875 C 1,1.7690441 2.784,0 5,0 z"
       id="rect3809"
       inkscape:connector-curvature="0" />
  </g>
</svg>
