/* XPM */
static char * close_inactive_xpm[] = {
"24 24 66 1",
" 	c None",
".	c #6D6D6D",
"+	c #FFFFFF",
"@	c #F6F6F7",
"#	c #F4F4F5",
"$	c #CDCDCE",
"%	c #ABABAC",
"&	c #9B9B9B",
"*	c #ECECED",
"=	c #AAAAAB",
"-	c #959596",
";	c #8E8E8F",
">	c #8B8B8C",
",	c #939394",
"'	c #A6A6A7",
")	c #F1F1F1",
"!	c #FAFAFA",
"~	c #F2F2F2",
"{	c #AEAEAF",
"]	c #ACACAD",
"^	c #CFCFD0",
"/	c #979798",
"(	c #F8F8F9",
"_	c #F9F9F9",
":	c #F9F9FA",
"<	c #989899",
"[	c #D0D0D1",
"}	c #B0B0B1",
"|	c #929293",
"1	c #F8F8F8",
"2	c #F7F7F8",
"3	c #B1B1B2",
"4	c #A4A4A4",
"5	c #909091",
"6	c #F5F5F6",
"7	c #A5A5A6",
"8	c #F2F2F3",
"9	c #F7F7F7",
"0	c #F1F1F2",
"a	c #F5F5F7",
"b	c #F6F6F8",
"c	c #B4B4B6",
"d	c #969698",
"e	c #D4D4D6",
"f	c #D4D4D5",
"g	c #D2D2D4",
"h	c #9F9FA0",
"i	c #A1A1A2",
"j	c #EEEEF0",
"k	c #EDEDEF",
"l	c #9C9C9E",
"m	c #D3D3D5",
"n	c #B5B5B6",
"o	c #9C9C9D",
"p	c #9E9E9F",
"q	c #D1D1D3",
"r	c #EFEFF1",
"s	c #F0F0F1",
"t	c #B6B6B7",
"u	c #A2A2A3",
"v	c #9A9A9B",
"w	c #D6D6D8",
"x	c #BABABB",
"y	c #ADADAE",
"z	c #BBBBBC",
"A	c #FAFAFB",
"........................",
"++++++++++++++++++++++++",
"@@@@@@@@@@@@@@@@@@@@@@@@",
"@@@@@@@@@@@@@@@@@@@@@@@@",
"@@@@@@@@@@@@@@@@@@@@@@@@",
"@@@@@@@@@@@@@@@@@@@@@@@@",
"@@@@@@@@#$%&&%$#@@@@@@@@",
"@@@@@@@*=-;>>;-=*@@@@@@@",
"@@@@@@#%,')!!~{,]#@@@@@@",
"@@@@@@^/'(_((_:'<[@@@@@@",
"@@@@@@}|*122221*|3@@@@@@",
"@@@@@@456222222654@@@@@@",
"@@@@@@7|89999990|7@@@@@@",
"aaaaabcdeaaaaaafdcbaaaaa",
"aaaaabghijaaaaklhmbaaaaa",
"aaaaaa@nopqrrqponbaaaaaa",
"aaaaaabstuvddvut8baaaaaa",
"aaaaaaa2(wxyyzw(baaaaaaa",
"aaaaaaaaa(:AA:(aaaaaaaaa",
"aaaaaaaaaaaaaaaaaaaaaaaa",
"aaaaaaaaaaaaaaaaaaaaaaaa",
"aaaaaaaaaaaaaaaaaaaaaaaa",
"aaaaaaaaaaaaaaaaaaaaaaaa",
"aaaaaaaaaaaaaaaaaaaaaaaa"};
