/* XPM */
static char * hide_pressed_xpm[] = {
"22 22 81 1",
" 	c None",
".	c #6D6D6D",
"+	c #FFFFFF",
"@	c #F6F6F7",
"#	c #F2F2F3",
"$	c #B7B7B8",
"%	c #7B7B7B",
"&	c #676767",
"*	c #7C7C7C",
"=	c #B8B8B9",
"-	c #F3F3F4",
";	c #E5E5E6",
">	c #575758",
",	c #4E4E4E",
"'	c #4A4A4A",
")	c #7D7D7D",
"!	c #E6E6E7",
"~	c #F1F1F2",
"{	c #545455",
"]	c #888889",
"^	c #979798",
"/	c #89898A",
"(	c #5A5A5B",
"_	c #555556",
":	c #7E7E7E",
"<	c #B6B6B7",
"[	c #5D5D5D",
"}	c #59595A",
"|	c #A3A3A3",
"1	c #A7A7A8",
"2	c #848484",
"3	c #969697",
"4	c #B3B3B4",
"5	c #868686",
"6	c #707071",
"7	c #525252",
"8	c #BBBBBB",
"9	c #BFBFC0",
"0	c #B9B9B9",
"a	c #717172",
"b	c #727273",
"c	c #535354",
"d	c #C5C5C6",
"e	c #CBCBCC",
"f	c #C4C4C5",
"g	c #737374",
"h	c #8C8C8C",
"i	c #5B5B5C",
"j	c #ADADAE",
"k	c #D8D8D8",
"l	c #AAAAAB",
"m	c #8E8E8E",
"n	c #F5F5F7",
"o	c #BEBEC0",
"p	c #69696A",
"q	c #D8D8D9",
"r	c #E2E2E4",
"s	c #D7D7D8",
"t	c #646465",
"u	c #BFBFC1",
"v	c #F2F2F4",
"w	c #8B8B8C",
"x	c #656566",
"y	c #676768",
"z	c #E5E5E7",
"A	c #B7B7B9",
"B	c #666667",
"C	c #8C8C8D",
"D	c #E8E8EA",
"E	c #8F8F90",
"F	c #6D6D6E",
"G	c #626262",
"H	c #6E6E6F",
"I	c #909091",
"J	c #E9E9EB",
"K	c #F3F3F5",
"L	c #939394",
"M	c #7D7D7E",
"N	c #949495",
"O	c #F6F6F8",
"P	c #F7F7F8",
"......................",
"++++++++++++++++++++++",
"@@@@@@@@@@@@@@@@@@@@@@",
"@@@@@@@@@@@@@@@@@@@@@@",
"@@@@@@@@@@@@@@@@@@@@@@",
"@@@@@@@#$%&&*=-@@@@@@@",
"@@@@@@;*>,'',>)!@@@@@@",
"@@@@@~){>]^^/(_:#@@@@@",
"@@@@@<[}|1111|}[$@@@@@",
"@@@@@2{34444443{5@@@@@",
"@@@@@67899999907a@@@@@",
"@@@@@bcdeeeeeefcg@@@@@",
"@@@@@hijkkkkkklim@@@@@",
"nnnnnoppqrrrrstpunnnnn",
"nnnnnvwxy=zzABBC-nnnnn",
"nnnnnnDEFGiiGHIJnnnnnn",
"nnnnnnnKfLMMNfKnnnnnnn",
"nnnnnnnn@OPPO@nnnnnnnn",
"nnnnnnnnnnnnnnnnnnnnnn",
"nnnnnnnnnnnnnnnnnnnnnn",
"nnnnnnnnnnnnnnnnnnnnnn",
"nnnnnnnnnnnnnnnnnnnnnn"};
