/* XPM */
static char * hide_prelight_xpm[] = {
"22 22 90 1",
" 	c None",
".	c #6D6D6D",
"+	c #FFFFFF",
"@	c #F6F6F7",
"#	c #F2F2F3",
"$	c #B7B7B8",
"%	c #7B7B7B",
"&	c #676767",
"*	c #7C7C7C",
"=	c #B8B8B9",
"-	c #F3F3F4",
";	c #E5E5E6",
">	c #575758",
",	c #4E4E4E",
"'	c #4A4A4A",
")	c #7D7D7D",
"!	c #E6E6E7",
"~	c #F1F1F2",
"{	c #545455",
"]	c #5E645E",
"^	c #A3CC9C",
"/	c #B4F2A9",
"(	c #A4CD9C",
"_	c #656A64",
":	c #555556",
"<	c #7E7E7E",
"[	c #B6B6B7",
"}	c #5D5D5D",
"|	c #606660",
"1	c #AEF2A2",
"2	c #A4FB94",
"3	c #9FFB8E",
"4	c #60645F",
"5	c #848484",
"6	c #9CC995",
"7	c #9BFB89",
"8	c #9AFB87",
"9	c #868686",
"0	c #707071",
"a	c #525252",
"b	c #9EF48E",
"c	c #96FB83",
"d	c #9DF18D",
"e	c #717172",
"f	c #727273",
"g	c #535354",
"h	c #94F182",
"i	c #93FB7F",
"j	c #95F183",
"k	c #737374",
"l	c #8C8C8C",
"m	c #5B5B5C",
"n	c #88C37E",
"o	c #8EFB7B",
"p	c #87BF7E",
"q	c #8E8E8E",
"r	c #F5F5F7",
"s	c #BEBEC0",
"t	c #69696A",
"u	c #656D63",
"v	c #8BEE7A",
"w	c #8BFA77",
"x	c #8BED7A",
"y	c #626561",
"z	c #BFBFC1",
"A	c #F2F2F4",
"B	c #8B8B8C",
"C	c #656566",
"D	c #626861",
"E	c #83BE79",
"F	c #8AF277",
"G	c #8BF278",
"H	c #83BD79",
"I	c #616760",
"J	c #666667",
"K	c #8C8C8D",
"L	c #E8E8EA",
"M	c #8F8F90",
"N	c #6D6D6E",
"O	c #626262",
"P	c #6E6E6F",
"Q	c #909091",
"R	c #E9E9EB",
"S	c #F3F3F5",
"T	c #C4C4C5",
"U	c #939394",
"V	c #7D7D7E",
"W	c #949495",
"X	c #F6F6F8",
"Y	c #F7F7F8",
"......................",
"++++++++++++++++++++++",
"@@@@@@@@@@@@@@@@@@@@@@",
"@@@@@@@@@@@@@@@@@@@@@@",
"@@@@@@@@@@@@@@@@@@@@@@",
"@@@@@@@#$%&&*=-@@@@@@@",
"@@@@@@;*>,'',>)!@@@@@@",
"@@@@@~){]^//(_:<#@@@@@",
"@@@@@[}|1233214}$@@@@@",
"@@@@@5{67888876{9@@@@@",
"@@@@@0abccccccdae@@@@@",
"@@@@@fghiiiiiijgk@@@@@",
"@@@@@lmnoooooopmq@@@@@",
"rrrrrstuvwwwwxytzrrrrr",
"rrrrrABCDEFGHIJK-rrrrr",
"rrrrrrLMNOmmOPQRrrrrrr",
"rrrrrrrSTUVVWTSrrrrrrr",
"rrrrrrrr@XYYX@rrrrrrrr",
"rrrrrrrrrrrrrrrrrrrrrr",
"rrrrrrrrrrrrrrrrrrrrrr",
"rrrrrrrrrrrrrrrrrrrrrr",
"rrrrrrrrrrrrrrrrrrrrrr"};
