/* XPM */
static char * maximize_pressed_xpm[] = {
"24 24 57 1",
" 	c None",
".	c #6D6D6D",
"+	c #FFFFFF",
"@	c #F6F6F7",
"#	c #F5F5F6",
"$	c #B9B9B9",
"%	c #89898A",
"&	c #6C6C6C",
"*	c #E6E6E7",
"=	c #858585",
"-	c #5A5A5B",
";	c #505050",
">	c #4B4B4B",
",	c #878787",
"'	c #565657",
")	c #585859",
"!	c #969697",
"~	c #BCBCBC",
"{	c #5E5E5E",
"]	c #59595A",
"^	c #A4A4A4",
"/	c #A7A7A8",
"(	c #919192",
"_	c #555556",
":	c #949495",
"<	c #B3B3B4",
"[	c #777778",
"}	c #525253",
"|	c #B5B5B6",
"1	c #BFBFC0",
"2	c #7A7A7B",
"3	c #BFBFBF",
"4	c #CBCBCC",
"5	c #F5F5F7",
"6	c #969698",
"7	c #5D5D5D",
"8	c #A8A8A9",
"9	c #D7D7D8",
"0	c #C1C1C3",
"a	c #6B6B6C",
"b	c #656566",
"c	c #D9D9DA",
"d	c #E2E2E4",
"e	c #959596",
"f	c #666667",
"g	c #686869",
"h	c #B5B5B7",
"i	c #DDDDDF",
"j	c #E9E9EB",
"k	c #979798",
"l	c #707071",
"m	c #636364",
"n	c #C5C5C6",
"o	c #9F9FA0",
"p	c #868687",
"q	c #F6F6F8",
"r	c #F7F7F8",
"........................",
"++++++++++++++++++++++++",
"@@@@@@@@@@@@@@@@@@@@@@@@",
"@@@@@@@@@@@@@@@@@@@@@@@@",
"@@@@@@@@@@@@@@@@@@@@@@@@",
"@@@@@@@@@@@@@@@@@@@@@@@@",
"@@@@@@@@#$%&&%$#@@@@@@@@",
"@@@@@@@*=-;>>;-=*@@@@@@@",
"@@@@@@#,'),!!,)',#@@@@@@",
"@@@@@@~{]^////^]{~@@@@@@",
"@@@@@@(_:<<<<<<:_(@@@@@@",
"@@@@@@[}|111111|}[@@@@@@",
"@@@@@@2_34444443_2@@@@@@",
"555555678999999876555555",
"5555550abcddddcba0555555",
"555555#efghiihgfe#555555",
"5555555jklm77mlkj5555555",
"555555555noppon555555555",
"555555555@qrrq@555555555",
"555555555555555555555555",
"555555555555555555555555",
"555555555555555555555555",
"555555555555555555555555",
"555555555555555555555555"};
