/* XPM */
static char * maximize_inactive_xpm[] = {
"22 22 62 1",
" 	c None",
".	c #6D6D6D",
"+	c #FFFFFF",
"@	c #F6F6F7",
"#	c #F4F4F5",
"$	c #CFCFD0",
"%	c #AAAAAB",
"&	c #9E9E9E",
"*	c #D0D0D1",
"=	c #ECECED",
"-	c #949495",
";	c #8E8E8F",
">	c #8B8B8C",
",	c #ABABAC",
"'	c #F3F3F4",
")	c #929293",
"!	c #9B9B9C",
"~	c #D8D8D8",
"{	c #F0F0F1",
"]	c #D9D9DA",
"^	c #9D9D9E",
"/	c #939394",
"(	c #ACACAD",
"_	c #CECECF",
":	c #989899",
"<	c #F1F1F2",
"[	c #AFAFB0",
"}	c #D7D7D7",
"|	c #B1B1B2",
"1	c #A4A4A4",
"2	c #909091",
"3	c #EFEFF0",
"4	c #A4A4A5",
"5	c #A5A5A6",
"6	c #B4B4B5",
"7	c #969697",
"8	c #D4D4D5",
"9	c #D1D1D2",
"0	c #B5B5B6",
"a	c #F5F5F7",
"b	c #D3D3D5",
"c	c #9F9FA0",
"d	c #A0A0A1",
"e	c #EDEDEF",
"f	c #ECECEE",
"g	c #D4D4D6",
"h	c #F3F3F5",
"i	c #B3B3B5",
"j	c #9C9C9D",
"k	c #D1D1D3",
"l	c #EFEFF1",
"m	c #B4B4B6",
"n	c #EEEEEF",
"o	c #B6B6B8",
"p	c #A1A1A2",
"q	c #9A9A9B",
"r	c #959597",
"s	c #A2A2A3",
"t	c #D6D6D8",
"u	c #B9B9BA",
"v	c #ABABAD",
"w	c #F6F6F8",
"......................",
"++++++++++++++++++++++",
"@@@@@@@@@@@@@@@@@@@@@@",
"@@@@@@@@@@@@@@@@@@@@@@",
"@@@@@@@@@@@@@@@@@@@@@@",
"@@@@@@@#$%&&%*#@@@@@@@",
"@@@@@@=%-;>>;-,=@@@@@@",
"@@@@@',)!~{{]^/(#@@@@@",
"@@@@@_:!<@@@@<!:$@@@@@",
"@@@@@[)}@@@@@@})|@@@@@",
"@@@@@12<@@@@@@324@@@@@",
"@@@@@4){@@@@@@{)5@@@@@",
"@@@@@678@@@@@@970@@@@@",
"aaaaabcdeaaaaf^cgaaaaa",
"aaaaahij^kllk^^mhaaaaa",
"aaaaaanopqrrqsonaaaaaa",
"aaaaaaa#tuvvut#aaaaaaa",
"aaaaaaaaa@ww@aaaaaaaaa",
"aaaaaaaaaaaaaaaaaaaaaa",
"aaaaaaaaaaaaaaaaaaaaaa",
"aaaaaaaaaaaaaaaaaaaaaa",
"aaaaaaaaaaaaaaaaaaaaaa"};
