/* XPM */
static char * stick_active_xpm[] = {
"16 22 6 1",
" 	c None",
".	c #6D6D6D",
"+	c #FFFFFF",
"@	c #F6F6F7",
"#	c #313131",
"$	c #F5F5F7",
"................",
"++++++++++++++++",
"@@@@@@@@@@@@@@@@",
"@@@@@@@@@@@@@@@@",
"@@@@@@@@@@@@@@@@",
"@@@@@@@@@@@@@@@@",
"@@@@@@@@@@@@@@@@",
"@@@@@@@##@@@@@@@",
"@@@@@@@##@@@@@@@",
"@@@@@@@##@@@@@@@",
"@@@@########@@@@",
"@@@@########@@@@",
"@@@@@@@##@@@@@@@",
"$$$$$$$##$$$$$$$",
"$$$$$$$##$$$$$$$",
"$$$$$$$$$$$$$$$$",
"$$$$$$$$$$$$$$$$",
"$$$$$$$$$$$$$$$$",
"$$$$$$$$$$$$$$$$",
"$$$$$$$$$$$$$$$$",
"$$$$$$$$$$$$$$$$",
"$$$$$$$$$$$$$$$$"};
