/* XPM */
static char * top_left_active_shaded_xpm[] = {
"5 22 18 1",
" 	c None",
".	c #8C8C8C",
"+	c #7A7A7B",
"@	c #727272",
"#	c #898989",
"$	c #A9A9A9",
"%	c #EDEDED",
"&	c #FFFFFF",
"*	c #8B8B8B",
"=	c #B5B5B5",
"-	c #FEFEFE",
";	c #F9F9F9",
">	c #F6F6F7",
",	c #7A7A7A",
"'	c #F7F7F7",
")	c #6F6F6F",
"!	c #6D6D6D",
"~	c #F5F5F7",
"  .+@",
" #$%&",
"*=-;>",
",''>>",
")>>>>",
"!>>>>",
"!>>>>",
"!>>>>",
"!>>>>",
"!>>>>",
"!>>>>",
"!>>>>",
"!>>>>",
"!~~~~",
"!~~~~",
"!~~~~",
"!~~~~",
"!~~~~",
"!~~~~",
"!~~~~",
"!~~~~",
"!~~~~"};
