/* XPM */
static char * top_right_active_shaded_xpm[] = {
"5 22 18 1",
" 	c None",
".	c #727272",
"+	c #7A7A7B",
"@	c #8C8C8C",
"#	c #FFFFFF",
"$	c #EDEDED",
"%	c #A9A9A9",
"&	c #898989",
"*	c #F6F6F7",
"=	c #F9F9F9",
"-	c #FEFEFE",
";	c #B5B5B5",
">	c #8B8B8B",
",	c #F7F7F7",
"'	c #7A7A7A",
")	c #6F6F6F",
"!	c #6D6D6D",
"~	c #F5F5F7",
".+@  ",
"#$%& ",
"*=-;>",
"**,,'",
"****)",
"****!",
"****!",
"****!",
"****!",
"****!",
"****!",
"****!",
"****!",
"~~~~!",
"~~~~!",
"~~~~!",
"~~~~!",
"~~~~!",
"~~~~!",
"~~~~!",
"~~~~!",
"~~~~!"};
