/* XPM */
static char * close_prelight_xpm[] = {
"24 24 126 2",
"  	c None",
". 	c #000000",
"+ 	c #6D7077",
"@ 	c #4D4F52",
"# 	c #4C4E51",
"$ 	c #4D4E52",
"% 	c #4D4E51",
"& 	c #4C4E52",
"* 	c #4C4F51",
"= 	c #4C4F52",
"- 	c #4C4E50",
"; 	c #4B4E51",
"> 	c #4B4D50",
", 	c #4C4D51",
"' 	c #4B4D51",
") 	c #4C4D50",
"! 	c #494C4E",
"~ 	c #323435",
"{ 	c #202123",
"] 	c #191A1A",
"^ 	c #19191B",
"/ 	c #212223",
"( 	c #323336",
"_ 	c #494B4F",
": 	c #4B4E50",
"< 	c #444649",
"[ 	c #1F2021",
"} 	c #191A1B",
"| 	c #1D1E1F",
"1 	c #1E1F20",
"2 	c #1D1D1F",
"3 	c #4B4D4F",
"4 	c #4A4D50",
"5 	c #494B4D",
"6 	c #1B1C1D",
"7 	c #1A1C1D",
"8 	c #484B4E",
"9 	c #4A4D4F",
"0 	c #4A4C4F",
"a 	c #4B4C4F",
"b 	c #4A4C50",
"c 	c #313334",
"d 	c #F8F8F8",
"e 	c #969696",
"f 	c #929293",
"g 	c #FBFBFB",
"h 	c #202021",
"i 	c #313335",
"j 	c #4A4C4E",
"k 	c #202122",
"l 	c #1C1D1E",
"m 	c #9E9E9E",
"n 	c #FFFFFF",
"o 	c #9B9B9C",
"p 	c #989999",
"q 	c #A7A7A7",
"r 	c #494B4E",
"s 	c #4A4B4F",
"t 	c #18191A",
"u 	c #1E1E20",
"v 	c #A0A1A1",
"w 	c #A9A9A9",
"x 	c #19191A",
"y 	c #4A4B4E",
"z 	c #949495",
"A 	c #A5A6A6",
"B 	c #1E1E1F",
"C 	c #505254",
"D 	c #989899",
"E 	c #9E9F9F",
"F 	c #1C1C1D",
"G 	c #222223",
"H 	c #484B4D",
"I 	c #494A4D",
"J 	c #515255",
"K 	c #37383A",
"L 	c #9A9A9B",
"M 	c #1F1F20",
"N 	c #1E2020",
"O 	c #999A9A",
"P 	c #F9F9F9",
"Q 	c #505255",
"R 	c #484A4D",
"S 	c #484A4C",
"T 	c #5B5D60",
"U 	c #1A1A1C",
"V 	c #5B5D5F",
"W 	c #484B4C",
"X 	c #48494C",
"Y 	c #474A4C",
"Z 	c #525355",
"` 	c #5A5B5D",
" .	c #1D1E1E",
"..	c #1F2121",
"+.	c #595B5C",
"@.	c #515355",
"#.	c #474A4D",
"$.	c #47494C",
"%.	c #474A4B",
"&.	c #545657",
"*.	c #66686A",
"=.	c #3E4040",
"-.	c #232425",
";.	c #3E3F41",
">.	c #666869",
",.	c #525556",
"'.	c #47494B",
").	c #5C5E60",
"!.	c #696B6D",
"~.	c #707173",
"{.	c #696C6C",
"].	c #5D5E61",
"^.	c #46494B",
"/.	c #47484B",
"(.	c #46484B",
"_.	c #46494A",
":.	c #47494A",
"<.	c #46484A",
"[.	c #47484A",
"}.	c #45474A",
"|.	c #45484A",
"1.	c #46474A",
"2.	c #464749",
"3.	c #464849",
"4.	c #454749",
"5.	c #454849",
". . . . . . . . . . . . . . . . . . . . . . . . ",
"+ + + + + + + + + + + + + + + + + + + + + + + + ",
"@ @ @ @ @ @ @ @ @ @ @ @ @ @ @ @ @ @ @ @ @ @ @ @ ",
"# $ % & @ * $ = # * @ & # $ % & @ * $ = # * @ & ",
"# # # # % # # * # * # # # # # # % # # * # * # # ",
"# - - # # # # # ; - > , # - - # # # # # ; - > , ",
"' - ' ' ) ) > - ! ~ { ] ^ / ( _ ) ) > - : : > : ",
") > > > > > > < [ } | 1 1 2 } [ < > > > ) > : > ",
"> > 3 4 > 4 5 [ 6 1 1 1 1 1 1 7 [ 8 3 > > 9 3 4 ",
"0 0 3 a a b c } 1 d e 1 1 f g h } i 9 9 3 0 a a ",
"0 j 0 0 0 j k l 1 m n o p n q 1 l k 0 0 j 0 0 0 ",
"! r s j 0 j t | u [ v n n w [ 1 u x ! ! r j r j ",
"! j r y y - x | 1 u z n n A [ u B ] - r ! y r r ",
"5 5 r 5 5 C / l B D n v E n o B F G C r 5 r r r ",
"H 5 5 H I J K x B d L M N O P N x K Q I 5 5 I I ",
"H R H R S 0 T [ U | | | | | | U [ V 0 H I R W R ",
"S S X Y S S Z ` h t 6 |  .6 t ..+.@.S S X S #.R ",
"S $.$.%.%.$.X &.*.=.-.] ] -.;.>.,.$.X S Y %.S Y ",
"'.%.X $.'.'.'.'.j ).!.~.~.{.].0 '.'.'.'.'.'.$.'.",
"^.'././.(.'./.'.'.^.'.'.^.'././.(.'./.'.'.^.'.'.",
"(._.(.'.^.:._.<.[.(._.(.(._.(.'.^.:._.<.[.(._.(.",
"<.(.<.^.<.(.<.<.<.<.<.[.<.(.<.^.<.(.<.<.<.<.<.[.",
"}.<.<.<.|.1.<.|.|.1.2.|.}.<.<.<.|.1.<.|.|.1.2.|.",
"}.3.4.4.2.5.2.|.}.|.4.4.}.3.4.4.2.5.2.|.}.|.4.4."};
