/* XPM */
static char * hide_prelight_xpm[] = {
"24 24 107 2",
"  	c None",
". 	c #000000",
"+ 	c #6D7077",
"@ 	c #4D4F52",
"# 	c #4C4E51",
"$ 	c #4D4E52",
"% 	c #4D4E51",
"& 	c #4C4E52",
"* 	c #4C4F51",
"= 	c #4C4F52",
"- 	c #4C4E50",
"; 	c #4B4E51",
"> 	c #4B4D50",
", 	c #4C4D51",
"' 	c #4B4D51",
") 	c #4C4D50",
"! 	c #494C4E",
"~ 	c #323435",
"{ 	c #202123",
"] 	c #191A1A",
"^ 	c #19191B",
"/ 	c #212223",
"( 	c #323336",
"_ 	c #494B4F",
": 	c #4B4E50",
"< 	c #444649",
"[ 	c #1F2021",
"} 	c #191A1B",
"| 	c #1D1E1F",
"1 	c #1E1F20",
"2 	c #1D1D1F",
"3 	c #4B4D4F",
"4 	c #4A4D50",
"5 	c #494B4D",
"6 	c #1B1C1D",
"7 	c #1A1C1D",
"8 	c #484B4E",
"9 	c #4A4D4F",
"0 	c #4A4C4F",
"a 	c #4B4C4F",
"b 	c #4A4C50",
"c 	c #313334",
"d 	c #313335",
"e 	c #4A4C4E",
"f 	c #202122",
"g 	c #1C1D1E",
"h 	c #494B4E",
"i 	c #4A4B4F",
"j 	c #18191A",
"k 	c #1E1E20",
"l 	c #FFFFFF",
"m 	c #19191A",
"n 	c #4A4B4E",
"o 	c #1E1E1F",
"p 	c #505254",
"q 	c #1C1C1D",
"r 	c #222223",
"s 	c #484B4D",
"t 	c #494A4D",
"u 	c #515255",
"v 	c #37383A",
"w 	c #505255",
"x 	c #484A4D",
"y 	c #484A4C",
"z 	c #5B5D60",
"A 	c #1A1A1C",
"B 	c #5B5D5F",
"C 	c #484B4C",
"D 	c #48494C",
"E 	c #474A4C",
"F 	c #525355",
"G 	c #5A5B5D",
"H 	c #202021",
"I 	c #1D1E1E",
"J 	c #1F2121",
"K 	c #595B5C",
"L 	c #515355",
"M 	c #474A4D",
"N 	c #47494C",
"O 	c #474A4B",
"P 	c #545657",
"Q 	c #66686A",
"R 	c #3E4040",
"S 	c #232425",
"T 	c #3E3F41",
"U 	c #666869",
"V 	c #525556",
"W 	c #47494B",
"X 	c #5C5E60",
"Y 	c #696B6D",
"Z 	c #707173",
"` 	c #696C6C",
" .	c #5D5E61",
"..	c #46494B",
"+.	c #47484B",
"@.	c #46484B",
"#.	c #46494A",
"$.	c #47494A",
"%.	c #46484A",
"&.	c #47484A",
"*.	c #45474A",
"=.	c #45484A",
"-.	c #46474A",
";.	c #464749",
">.	c #464849",
",.	c #454749",
"'.	c #454849",
". . . . . . . . . . . . . . . . . . . . . . . . ",
"+ + + + + + + + + + + + + + + + + + + + + + + + ",
"@ @ @ @ @ @ @ @ @ @ @ @ @ @ @ @ @ @ @ @ @ @ @ @ ",
"# $ % & @ * $ = # * @ & # $ % & @ * $ = # * @ & ",
"# # # # % # # * # * # # # # # # % # # * # * # # ",
"# - - # # # # # ; - > , # - - # # # # # ; - > , ",
"' - ' ' ) ) > - ! ~ { ] ^ / ( _ ) ) > - : : > : ",
") > > > > > > < [ } | 1 1 2 } [ < > > > ) > : > ",
"> > 3 4 > 4 5 [ 6 1 1 1 1 1 1 7 [ 8 3 > > 9 3 4 ",
"0 0 3 a a b c } 1 1 1 1 1 1 1 1 } d 9 9 3 0 a a ",
"0 e 0 0 0 e f g 1 1 1 1 1 1 1 1 g f 0 0 e 0 0 0 ",
"! h i e 0 e j | k l l l l l l 1 k m ! ! h e h e ",
"! e h n n - m | 1 l l l l l l k o ] - h ! n h h ",
"5 5 h 5 5 p / g o k k k o o k o q r p h 5 h h h ",
"s 5 5 s t u v m o o o o | o o | m v w t 5 5 t t ",
"s x s x y 0 z [ A | | | | | | A [ B 0 s t x C x ",
"y y D E y y F G H j 6 | I 6 j J K L y y D y M x ",
"y N N O O N D P Q R S ] ] S T U V N D y E O y E ",
"W O D N W W W W e X Y Z Z `  .0 W W W W W W N W ",
"..W +.+.@.W +.W W ..W W ..W +.+.@.W +.W W ..W W ",
"@.#.@.W ..$.#.%.&.@.#.@.@.#.@.W ..$.#.%.&.@.#.@.",
"%.@.%...%.@.%.%.%.%.%.&.%.@.%...%.@.%.%.%.%.%.&.",
"*.%.%.%.=.-.%.=.=.-.;.=.*.%.%.%.=.-.%.=.=.-.;.=.",
"*.>.,.,.;.'.;.=.*.=.,.,.*.>.,.,.;.'.;.=.*.=.,.,."};
