/* XPM */
static char * hide_pressed_xpm[] = {
"24 24 103 2",
"  	c None",
". 	c #000000",
"+ 	c #6D7077",
"@ 	c #4D4F52",
"# 	c #4C4E51",
"$ 	c #4D4E52",
"% 	c #4D4E51",
"& 	c #4C4E52",
"* 	c #4C4F51",
"= 	c #4C4F52",
"- 	c #4C4E50",
"; 	c #4B4E51",
"> 	c #4B4D50",
", 	c #4C4D51",
"' 	c #4B4D51",
") 	c #4C4D50",
"! 	c #484B4D",
"~ 	c #2F3133",
"{ 	c #1D1E1F",
"] 	c #141516",
"^ 	c #484A4E",
"/ 	c #4B4E50",
"( 	c #434548",
"_ 	c #1C1C1D",
": 	c #171819",
"< 	c #18191A",
"[ 	c #19191A",
"} 	c #1B1C1D",
"| 	c #4B4D4F",
"1 	c #4A4D50",
"2 	c #484A4C",
"3 	c #161617",
"4 	c #151617",
"5 	c #474A4D",
"6 	c #4A4D4F",
"7 	c #4A4C4F",
"8 	c #4B4C4F",
"9 	c #4A4C50",
"0 	c #2F3132",
"a 	c #141515",
"b 	c #4A4C4E",
"c 	c #1C1D1E",
"d 	c #171718",
"e 	c #1D1D1E",
"f 	c #494C4E",
"g 	c #494B4E",
"h 	c #4A4B4F",
"i 	c #181919",
"j 	c #B9BABA",
"k 	c #B9B9BA",
"l 	c #4A4B4E",
"m 	c #181819",
"n 	c #151516",
"o 	c #494B4D",
"p 	c #505254",
"q 	c #1D1E1E",
"r 	c #161718",
"s 	c #494A4D",
"t 	c #515255",
"u 	c #333436",
"v 	c #141415",
"w 	c #353537",
"x 	c #505255",
"y 	c #484A4D",
"z 	c #5A5C5F",
"A 	c #5B5D5F",
"B 	c #484B4C",
"C 	c #48494C",
"D 	c #474A4C",
"E 	c #525355",
"F 	c #585A5C",
"G 	c #161717",
"H 	c #58595B",
"I 	c #515355",
"J 	c #47494C",
"K 	c #474A4B",
"L 	c #545657",
"M 	c #66686A",
"N 	c #3B3D3D",
"O 	c #1E1F20",
"P 	c #3B3C3E",
"Q 	c #666869",
"R 	c #525556",
"S 	c #47494B",
"T 	c #5C5E60",
"U 	c #696B6D",
"V 	c #707173",
"W 	c #696C6C",
"X 	c #5D5E61",
"Y 	c #46494B",
"Z 	c #47484B",
"` 	c #46484B",
" .	c #46494A",
"..	c #47494A",
"+.	c #46484A",
"@.	c #47484A",
"#.	c #45474A",
"$.	c #45484A",
"%.	c #46474A",
"&.	c #464749",
"*.	c #464849",
"=.	c #454749",
"-.	c #454849",
". . . . . . . . . . . . . . . . . . . . . . . . ",
"+ + + + + + + + + + + + + + + + + + + + + + + + ",
"@ @ @ @ @ @ @ @ @ @ @ @ @ @ @ @ @ @ @ @ @ @ @ @ ",
"# $ % & @ * $ = # * @ & # $ % & @ * $ = # * @ & ",
"# # # # % # # * # * # # # # # # % # # * # * # # ",
"# - - # # # # # ; - > , # - - # # # # # ; - > , ",
"' - ' ' ) ) > - ! ~ { ] ] { ~ ^ ) ) > - / / > / ",
") > > > > > > ( _ ] : < [ : ] } ( > > > ) > / > ",
"> > | 1 > 1 2 } 3 < [ < [ [ [ 4 } 5 | > > 6 | 1 ",
"7 7 | 8 8 9 0 a [ < [ [ < < [ [ a ~ 6 6 | 7 8 8 ",
"7 b 7 7 7 b c d < < < < < < < < d e 7 7 b 7 7 7 ",
"f g h b 7 b ] i < j k j j k k < < ] f f g b g b ",
"f b g l l - ] m < k k k j j k < m n - g f l g g ",
"o o g o o p q r i < < < i i < i r { p g o g g g ",
"! o o ! s t u v i i m m i i i i v w x s o o s s ",
"! y ! y 2 7 z } n m i m i m i n } A 7 ! s y B y ",
"2 2 C D 2 2 E F c v r : : G v c H I 2 2 C 2 5 y ",
"2 J J K K J C L M N O a a O P Q R J C 2 D K 2 D ",
"S K C J S S S S b T U V V W X 7 S S S S S S J S ",
"Y S Z Z ` S Z S S Y S S Y S Z Z ` S Z S S Y S S ",
"`  .` S Y .. .+.@.`  .` `  .` S Y .. .+.@.`  .` ",
"+.` +.Y +.` +.+.+.+.+.@.+.` +.Y +.` +.+.+.+.+.@.",
"#.+.+.+.$.%.+.$.$.%.&.$.#.+.+.+.$.%.+.$.$.%.&.$.",
"#.*.=.=.&.-.&.$.#.$.=.=.#.*.=.=.&.-.&.$.#.$.=.=."};
