/* XPM */
static char * maximize_pressed_xpm[] = {
"24 24 111 2",
"  	c None",
". 	c #000000",
"+ 	c #6D7077",
"@ 	c #4D4F52",
"# 	c #4C4E51",
"$ 	c #4D4E52",
"% 	c #4D4E51",
"& 	c #4C4E52",
"* 	c #4C4F51",
"= 	c #4C4F52",
"- 	c #4C4E50",
"; 	c #4B4E51",
"> 	c #4B4D50",
", 	c #4C4D51",
"' 	c #4B4D51",
") 	c #4C4D50",
"! 	c #484B4D",
"~ 	c #2F3133",
"{ 	c #1D1E1F",
"] 	c #141516",
"^ 	c #484A4E",
"/ 	c #4B4E50",
"( 	c #434548",
"_ 	c #1C1C1D",
": 	c #171819",
"< 	c #18191A",
"[ 	c #19191A",
"} 	c #1B1C1D",
"| 	c #4B4D4F",
"1 	c #4A4D50",
"2 	c #484A4C",
"3 	c #161617",
"4 	c #151617",
"5 	c #474A4D",
"6 	c #4A4D4F",
"7 	c #4A4C4F",
"8 	c #4B4C4F",
"9 	c #4A4C50",
"0 	c #2F3132",
"a 	c #141515",
"b 	c #1C1D1E",
"c 	c #868687",
"d 	c #B9BABA",
"e 	c #9A9A9B",
"f 	c #4A4C4E",
"g 	c #171718",
"h 	c #1D1D1E",
"i 	c #494C4E",
"j 	c #494B4E",
"k 	c #4A4B4F",
"l 	c #181919",
"m 	c #191A1B",
"n 	c #8A8B8B",
"o 	c #1A1B1B",
"p 	c #828283",
"q 	c #B9B9BA",
"r 	c #4A4B4E",
"s 	c #181819",
"t 	c #151516",
"u 	c #494B4D",
"v 	c #505254",
"w 	c #1D1E1E",
"x 	c #161718",
"y 	c #858686",
"z 	c #494A4D",
"A 	c #515255",
"B 	c #333436",
"C 	c #141415",
"D 	c #9C9C9C",
"E 	c #353537",
"F 	c #505255",
"G 	c #484A4D",
"H 	c #5A5C5F",
"I 	c #5B5D5F",
"J 	c #484B4C",
"K 	c #48494C",
"L 	c #474A4C",
"M 	c #525355",
"N 	c #585A5C",
"O 	c #161717",
"P 	c #58595B",
"Q 	c #515355",
"R 	c #47494C",
"S 	c #474A4B",
"T 	c #545657",
"U 	c #66686A",
"V 	c #3B3D3D",
"W 	c #1E1F20",
"X 	c #3B3C3E",
"Y 	c #666869",
"Z 	c #525556",
"` 	c #47494B",
" .	c #5C5E60",
"..	c #696B6D",
"+.	c #707173",
"@.	c #696C6C",
"#.	c #5D5E61",
"$.	c #46494B",
"%.	c #47484B",
"&.	c #46484B",
"*.	c #46494A",
"=.	c #47494A",
"-.	c #46484A",
";.	c #47484A",
">.	c #45474A",
",.	c #45484A",
"'.	c #46474A",
").	c #464749",
"!.	c #464849",
"~.	c #454749",
"{.	c #454849",
". . . . . . . . . . . . . . . . . . . . . . . . ",
"+ + + + + + + + + + + + + + + + + + + + + + + + ",
"@ @ @ @ @ @ @ @ @ @ @ @ @ @ @ @ @ @ @ @ @ @ @ @ ",
"# $ % & @ * $ = # * @ & # $ % & @ * $ = # * @ & ",
"# # # # % # # * # * # # # # # # % # # * # * # # ",
"# - - # # # # # ; - > , # - - # # # # # ; - > , ",
"' - ' ' ) ) > - ! ~ { ] ] { ~ ^ ) ) > - / / > / ",
") > > > > > > ( _ ] : < [ : ] } ( > > > ) > / > ",
"> > | 1 > 1 2 } 3 < [ < [ [ [ 4 } 5 | > > 6 | 1 ",
"7 7 | 8 8 9 0 a [ < b c d d e [ a ~ 6 6 | 7 8 8 ",
"7 f 7 7 7 f b g < b < b c d d < g h 7 7 f 7 7 7 ",
"i j k f 7 f ] l m n b < o p q < < ] i i j f j f ",
"i f j r r - ] s m q n b < o p < s t - j i r j j ",
"u u j u u v w x m q q y _ l _ l x { v j u j j j ",
"! u u ! z A B C l D q q y _ l l C E F z u u z z ",
"! G ! G 2 7 H } t s l s l s l t } I 7 ! z G J G ",
"2 2 K L 2 2 M N b C x : : O C b P Q 2 2 K 2 5 G ",
"2 R R S S R K T U V W a a W X Y Z R K 2 L S 2 L ",
"` S K R ` ` ` ` f  ...+.+.@.#.7 ` ` ` ` ` ` R ` ",
"$.` %.%.&.` %.` ` $.` ` $.` %.%.&.` %.` ` $.` ` ",
"&.*.&.` $.=.*.-.;.&.*.&.&.*.&.` $.=.*.-.;.&.*.&.",
"-.&.-.$.-.&.-.-.-.-.-.;.-.&.-.$.-.&.-.-.-.-.-.;.",
">.-.-.-.,.'.-.,.,.'.).,.>.-.-.-.,.'.-.,.,.'.).,.",
">.!.~.~.).{.).,.>.,.~.~.>.!.~.~.).{.).,.>.,.~.~."};
