/* XPM */
static char * maximize_active_xpm[] = {
"24 24 152 2",
"  	c None",
". 	c #000000",
"+ 	c #6D7077",
"@ 	c #4D4F52",
"# 	c #4C4E51",
"$ 	c #4D4E52",
"% 	c #4D4E51",
"& 	c #4C4E52",
"* 	c #4C4F51",
"= 	c #4C4F52",
"- 	c #4C4E50",
"; 	c #4B4E51",
"> 	c #4B4D50",
", 	c #4C4D51",
"' 	c #4B4D51",
") 	c #4C4D50",
"! 	c #494C4E",
"~ 	c #36383A",
"{ 	c #262728",
"] 	c #1E1F20",
"^ 	c #37383B",
"/ 	c #494B4F",
"( 	c #4B4E50",
"_ 	c #46474A",
": 	c #262628",
"< 	c #1B1B1C",
"[ 	c #181919",
"} 	c #161718",
"| 	c #181819",
"1 	c #252628",
"2 	c #4B4D4F",
"3 	c #4A4D50",
"4 	c #494B4D",
"5 	c #1A1A1B",
"6 	c #6F7071",
"7 	c #8D8F91",
"8 	c #8E8F91",
"9 	c #727375",
"0 	c #2D2D2E",
"a 	c #1A1B1C",
"b 	c #262729",
"c 	c #484B4E",
"d 	c #4A4D4F",
"e 	c #4A4C4F",
"f 	c #4B4C4F",
"g 	c #4A4C50",
"h 	c #37393A",
"i 	c #1B1C1D",
"j 	c #838486",
"k 	c #77787A",
"l 	c #6E6F71",
"m 	c #6D6F71",
"n 	c #76787A",
"o 	c #848586",
"p 	c #1C1C1E",
"q 	c #4A4C4E",
"r 	c #28292A",
"s 	c #191A1B",
"t 	c #646566",
"u 	c #67696B",
"v 	c #646669",
"w 	c #646668",
"x 	c #686A6C",
"y 	c #636466",
"z 	c #494B4E",
"A 	c #4A4B4F",
"B 	c #212223",
"C 	c #18191A",
"D 	c #696A6C",
"E 	c #606163",
"F 	c #5F6063",
"G 	c #5F6163",
"H 	c #606064",
"I 	c #696B6C",
"J 	c #4A4B4E",
"K 	c #222324",
"L 	c #19191A",
"M 	c #595C5D",
"N 	c #5B5B5E",
"O 	c #5A5B5E",
"P 	c #5A5C5E",
"Q 	c #5B5C5E",
"R 	c #595A5D",
"S 	c #505254",
"T 	c #2B2C2D",
"U 	c #414244",
"V 	c #555759",
"W 	c #555758",
"X 	c #3F4142",
"Y 	c #1B1C1C",
"Z 	c #484B4D",
"` 	c #494A4D",
" .	c #515255",
"..	c #3E3F42",
"+.	c #1F1F21",
"@.	c #505153",
"#.	c #4F5253",
"$.	c #505253",
"%.	c #1E2020",
"&.	c #3F4042",
"*.	c #505255",
"=.	c #484A4D",
"-.	c #484A4C",
";.	c #5C5E60",
">.	c #2B2D2E",
",.	c #1E1E20",
"'.	c #383A3B",
").	c #47494C",
"!.	c #474A4C",
"~.	c #38393B",
"{.	c #1D1E20",
"].	c #5B5D60",
"^.	c #484B4C",
"/.	c #48494C",
"(.	c #525355",
"_.	c #5D5E60",
":.	c #2D2E2F",
"<.	c #202122",
"[.	c #1C1D1E",
"}.	c #1D1D1E",
"|.	c #202022",
"1.	c #2C2E2F",
"2.	c #5C5E5F",
"3.	c #515355",
"4.	c #474A4D",
"5.	c #474A4B",
"6.	c #545657",
"7.	c #66696A",
"8.	c #484A4B",
"9.	c #303233",
"0.	c #252728",
"a.	c #303133",
"b.	c #666969",
"c.	c #525556",
"d.	c #47494B",
"e.	c #696B6D",
"f.	c #707173",
"g.	c #696C6C",
"h.	c #5D5E61",
"i.	c #46494B",
"j.	c #47484B",
"k.	c #46484B",
"l.	c #46494A",
"m.	c #47494A",
"n.	c #46484A",
"o.	c #47484A",
"p.	c #45474A",
"q.	c #45484A",
"r.	c #464749",
"s.	c #464849",
"t.	c #454749",
"u.	c #454849",
". . . . . . . . . . . . . . . . . . . . . . . . ",
"+ + + + + + + + + + + + + + + + + + + + + + + + ",
"@ @ @ @ @ @ @ @ @ @ @ @ @ @ @ @ @ @ @ @ @ @ @ @ ",
"# $ % & @ * $ = # * @ & # $ % & @ * $ = # * @ & ",
"# # # # % # # * # * # # # # # # % # # * # * # # ",
"# - - # # # # # ; - > , # - - # # # # # ; - > , ",
"' - ' ' ) ) > - ! ~ { ] ] { ^ / ) ) > - ( ( > ( ",
") > > > > > > _ : < [ } } | < 1 _ > > > ) > ( > ",
"> > 2 3 > 3 4 { 5 { 6 7 8 9 0 a b c 2 > > d 2 3 ",
"e e 2 f f g h i { j k l m n o { p ^ d d 2 e f f ",
"e q e e e q r s t u v v v w x y s r e e q e e e ",
"! z A q e q B C D E F E G F H I C B ! ! z q z q ",
"! q z J J - K L M N O O P Q O R L K - z ! J z z ",
"4 4 z 4 4 S T i U V V V W W V X Y T S z 4 z z z ",
"Z 4 4 Z `  ...+.B 2 @.@.#.$.2 %.+.&.*.` 4 4 ` ` ",
"Z =.Z =.-.e ;.>.,.] '.).!.~.] {.T ].e Z ` =.^.=.",
"-.-./.!.-.-.(._.:.<.[.< < }.|.1.2.3.-.-./.-.4.=.",
"-.).).5.5.)./.6.7.8.9.0.{ a./.b.c.)./.-.!.5.-.!.",
"d.5./.).d.d.d.d.q ;.e.f.f.g.h.e d.d.d.d.d.d.).d.",
"i.d.j.j.k.d.j.d.d.i.d.d.i.d.j.j.k.d.j.d.d.i.d.d.",
"k.l.k.d.i.m.l.n.o.k.l.k.k.l.k.d.i.m.l.n.o.k.l.k.",
"n.k.n.i.n.k.n.n.n.n.n.o.n.k.n.i.n.k.n.n.n.n.n.o.",
"p.n.n.n.q._ n.q.q._ r.q.p.n.n.n.q._ n.q.q._ r.q.",
"p.s.t.t.r.u.r.q.p.q.t.t.p.s.t.t.r.u.r.q.p.q.t.t."};
