/* XPM */
static char * shade_active_xpm[] = {
"16 22 18 1",
" 	c None",
".	c #4D4F52",
"+	c #4C4E51",
"@	c #4B4D50",
"#	c #4B4D4F",
"$	c #DBDBDB",
"%	c #4A4C4F",
"&	c #DADBDB",
"*	c #4A4C4E",
"=	c #494B4E",
"-	c #494B4D",
";	c #484A4D",
">	c #DADADB",
",	c #484A4C",
"'	c #47494C",
")	c #47494B",
"!	c #46484A",
"~	c #454749",
"                ",
"                ",
"................",
"................",
"++++++++++++++++",
"++++++++++++++++",
"@@@@@@@@@@@@@@@@",
"@@@@@@@@@@@@@@@@",
"#######$$#######",
"%%%%%%&&&&%%%%%%",
"*****&&&&&&*****",
"====&&&&&&&&====",
"================",
"----&&&&&&&&----",
";;;;>>>>>>>>;;;;",
",,,,,,,,,,,,,,,,",
"''''''''''''''''",
"))))))))))))))))",
"))))))))))))))))",
"!!!!!!!!!!!!!!!!",
"!!!!!!!!!!!!!!!!",
"~~~~~~~~~~~~~~~~"};
