/* XPM */
static char * stick_inactive_xpm[] = {
"16 22 21 1",
" 	c None",
".	c #4D4F52",
"+	c #4C4E51",
"@	c #4B4D50",
"#	c #939496",
"$	c #4B4D4F",
"%	c #939495",
"&	c #4A4C4F",
"*	c #929395",
"=	c #4A4C4E",
"-	c #929394",
";	c #494B4E",
">	c #919394",
",	c #494B4D",
"'	c #484A4D",
")	c #919294",
"!	c #484A4C",
"~	c #47494C",
"{	c #47494B",
"]	c #46484A",
"^	c #454749",
"                ",
"                ",
"................",
"................",
"++++++++++++++++",
"++++++++++++++++",
"@@@@@@@@@@@@@@@@",
"@@@@@@@##@@@@@@@",
"$$$$$$$%%$$$$$$$",
"&&&&&&&**&&&&&&&",
"====--------====",
";;;;>>>>>>>>;;;;",
";;;;;;;>>;;;;;;;",
",,,,,,,>>,,,,,,,",
"'''''''))'''''''",
"!!!!!!!!!!!!!!!!",
"~~~~~~~~~~~~~~~~",
"{{{{{{{{{{{{{{{{",
"{{{{{{{{{{{{{{{{",
"]]]]]]]]]]]]]]]]",
"]]]]]]]]]]]]]]]]",
"^^^^^^^^^^^^^^^^"};
