/* XPM */
static char * title_1_inactive_xpm[] = {
"12 24 54 1",
" 	c None",
".	c #000000",
"+	c #6D7077",
"@	c #4D4F52",
"#	c #4C4E51",
"$	c #4D4E52",
"%	c #4D4E51",
"&	c #4C4E52",
"*	c #4C4F51",
"=	c #4C4F52",
"-	c #4C4E50",
";	c #4B4E51",
">	c #4B4D50",
",	c #4C4D51",
"'	c #4B4D51",
")	c #4C4D50",
"!	c #4B4E50",
"~	c #4B4D4F",
"{	c #4A4D50",
"]	c #4A4D4F",
"^	c #4A4C4F",
"/	c #4B4C4F",
"(	c #4A4C50",
"_	c #4A4C4E",
":	c #494C4E",
"<	c #494B4E",
"[	c #4A4B4F",
"}	c #4A4B4E",
"|	c #494B4D",
"1	c #484B4D",
"2	c #494A4D",
"3	c #484A4D",
"4	c #484A4C",
"5	c #484B4C",
"6	c #48494C",
"7	c #474A4C",
"8	c #474A4D",
"9	c #47494C",
"0	c #474A4B",
"a	c #47494B",
"b	c #46494B",
"c	c #47484B",
"d	c #46484B",
"e	c #46494A",
"f	c #47494A",
"g	c #46484A",
"h	c #47484A",
"i	c #45474A",
"j	c #45484A",
"k	c #46474A",
"l	c #464749",
"m	c #464849",
"n	c #454749",
"o	c #454849",
"............",
"++++++++++++",
"@@@@@@@@@@@@",
"#$%&@*$=#*@&",
"####%##*#*##",
"#--#####;->,",
"'-''))>-!!>!",
")>>>>>>>)>!>",
">>~{>{~>>]~{",
"^^~//(]]~^//",
"^_^^^_^^_^^^",
":<[_^_::<_<_",
":_<}}__<:}<<",
"||<||||<|<<<",
"1||12232||22",
"131343312353",
"446744446483",
"499009647047",
"a069aaaaaa9a",
"baccdacaabaa",
"dedabfeghded",
"gdgbgdgggggh",
"igggjkgjjklj",
"imnnloljijnn"};
