<?xml version="1.0" encoding="UTF-8" standalone="no"?>
<!-- Created with Inkscape (http://www.inkscape.org/) -->

<svg
   xmlns:dc="http://purl.org/dc/elements/1.1/"
   xmlns:cc="http://creativecommons.org/ns#"
   xmlns:rdf="http://www.w3.org/1999/02/22-rdf-syntax-ns#"
   xmlns:svg="http://www.w3.org/2000/svg"
   xmlns="http://www.w3.org/2000/svg"
   xmlns:xlink="http://www.w3.org/1999/xlink"
   xmlns:sodipodi="http://sodipodi.sourceforge.net/DTD/sodipodi-0.dtd"
   xmlns:inkscape="http://www.inkscape.org/namespaces/inkscape"
   width="16"
   height="16"
   id="svg2"
   version="1.1"
   inkscape:version="0.48.4 r9939"
   sodipodi:docname="radio-checked.svg">
  <defs
     id="defs4">
    <linearGradient
       id="linearGradient3875">
      <stop
         style="stop-color:#000000;stop-opacity:0.55"
         offset="0"
         id="stop3877" />
      <stop
         id="stop3879"
         offset="0.46153846"
         style="stop-color:#000000;stop-opacity:0.27450982;" />
      <stop
         style="stop-color:#000000;stop-opacity:0.25490198;"
         offset="0.97355771"
         id="stop3881" />
      <stop
         style="stop-color:#000000;stop-opacity:0.1882353;"
         offset="1"
         id="stop3883" />
    </linearGradient>
    <linearGradient
       inkscape:collect="always"
       xlink:href="#linearGradient3837"
       id="linearGradient3843"
       x1="8"
       y1="2"
       x2="8"
       y2="13"
       gradientUnits="userSpaceOnUse"
       gradientTransform="translate(-2.9802322e-8,1036.3622)" />
    <linearGradient
       id="linearGradient3837">
      <stop
         style="stop-color:#ffffff;stop-opacity:1;"
         offset="0"
         id="stop3839" />
      <stop
         id="stop3781"
         offset="0.08333334"
         style="stop-color:#ffffff;stop-opacity:0;" />
      <stop
         style="stop-color:#0b0b0b;stop-opacity:0;"
         offset="0.90909094"
         id="stop3783" />
      <stop
         style="stop-color:#000000;stop-opacity:0.02745098;"
         offset="1"
         id="stop3841" />
    </linearGradient>
    <linearGradient
       inkscape:collect="always"
       xlink:href="#linearGradient3845"
       id="linearGradient3851"
       x1="8"
       y1="13"
       x2="8"
       y2="14"
       gradientUnits="userSpaceOnUse"
       gradientTransform="translate(-2.9802322e-8,1036.3622)" />
    <linearGradient
       id="linearGradient3845">
      <stop
         style="stop-color:#000000;stop-opacity:0.18039216;"
         offset="0"
         id="stop3847" />
      <stop
         style="stop-color:#000000;stop-opacity:0.43137255;"
         offset="1"
         id="stop3849" />
    </linearGradient>
    <linearGradient
       id="linearGradient3768">
      <stop
         id="stop3770"
         offset="0"
         style="stop-color:#000000;stop-opacity:0.44705883;" />
      <stop
         style="stop-color:#000000;stop-opacity:0.27450982;"
         offset="0.078125"
         id="stop3778" />
      <stop
         id="stop3774"
         offset="0.97355771"
         style="stop-color:#000000;stop-opacity:0.25490198;" />
      <stop
         id="stop3776"
         offset="1"
         style="stop-color:#000000;stop-opacity:0.1882353;" />
    </linearGradient>
    <linearGradient
       id="linearGradient3969">
      <stop
         style="stop-color:#e8ecef;stop-opacity:1;"
         offset="0"
         id="stop3971" />
      <stop
         style="stop-color:#f5f7f4;stop-opacity:1;"
         offset="1"
         id="stop3973" />
    </linearGradient>
    <linearGradient
       id="linearGradient3845-2">
      <stop
         style="stop-color:#4080fb;stop-opacity:0.47058824;"
         offset="0"
         id="stop3847-7" />
      <stop
         style="stop-color:#4080fb;stop-opacity:0.74509805;"
         offset="1"
         id="stop3849-1" />
    </linearGradient>
    <linearGradient
       inkscape:collect="always"
       xlink:href="#linearGradient3969"
       id="linearGradient4048"
       x1="8"
       y1="14"
       x2="8"
       y2="3"
       gradientUnits="userSpaceOnUse" />
    <linearGradient
       inkscape:collect="always"
       xlink:href="#linearGradient4165"
       id="linearGradient4039"
       x1="8.5"
       y1="11.004349"
       x2="8.5"
       y2="6.9973903"
       gradientUnits="userSpaceOnUse" />
    <linearGradient
       id="linearGradient4165">
      <stop
         id="stop4167"
         offset="0"
         style="stop-color:#3c3b40;stop-opacity:1" />
      <stop
         id="stop4169"
         offset="1"
         style="stop-color:#3a3c3b;stop-opacity:1" />
    </linearGradient>
    <linearGradient
       y2="6.9973903"
       x2="8.5"
       y1="11.004349"
       x1="8.5"
       gradientUnits="userSpaceOnUse"
       id="linearGradient3074"
       xlink:href="#linearGradient4165"
       inkscape:collect="always" />
    <linearGradient
       inkscape:collect="always"
       xlink:href="#linearGradient4165"
       id="linearGradient4100"
       x1="8"
       y1="10"
       x2="8"
       y2="6"
       gradientUnits="userSpaceOnUse" />
    <linearGradient
       inkscape:collect="always"
       xlink:href="#linearGradient4165-5"
       id="linearGradient4100-5"
       x1="8"
       y1="10"
       x2="8"
       y2="6"
       gradientUnits="userSpaceOnUse" />
    <linearGradient
       id="linearGradient4165-5">
      <stop
         id="stop4167-6"
         offset="0"
         style="stop-color:#3c3b40;stop-opacity:1" />
      <stop
         id="stop4169-0"
         offset="1"
         style="stop-color:#3a3c3b;stop-opacity:1" />
    </linearGradient>
    <linearGradient
       y2="6"
       x2="8"
       y1="10"
       x1="8"
       gradientUnits="userSpaceOnUse"
       id="linearGradient4117"
       xlink:href="#linearGradient4165-5"
       inkscape:collect="always"
       gradientTransform="translate(0,16)" />
    <linearGradient
       inkscape:collect="always"
       xlink:href="#linearGradient4165-9"
       id="linearGradient4100-4"
       x1="8"
       y1="10"
       x2="8"
       y2="6"
       gradientUnits="userSpaceOnUse" />
    <linearGradient
       id="linearGradient4165-9">
      <stop
         id="stop4167-2"
         offset="0"
         style="stop-color:#3c3b40;stop-opacity:1" />
      <stop
         id="stop4169-2"
         offset="1"
         style="stop-color:#3a3c3b;stop-opacity:1" />
    </linearGradient>
    <linearGradient
       y2="6"
       x2="8"
       y1="10"
       x1="8"
       gradientUnits="userSpaceOnUse"
       id="linearGradient4117-1"
       xlink:href="#linearGradient4165-9"
       inkscape:collect="always" />
  </defs>
  <sodipodi:namedview
     id="base"
     pagecolor="#ffffff"
     bordercolor="#666666"
     borderopacity="1.0"
     inkscape:pageopacity="0.0"
     inkscape:pageshadow="2"
     inkscape:zoom="8.0000004"
     inkscape:cx="3.3106528"
     inkscape:cy="4.1417237"
     inkscape:document-units="px"
     inkscape:current-layer="layer1"
     showgrid="true"
     inkscape:snap-bbox="true"
     showguides="true"
     inkscape:guide-bbox="true"
     inkscape:showpageshadow="false"
     showborder="true"
     inkscape:window-width="1006"
     inkscape:window-height="723"
     inkscape:window-x="290"
     inkscape:window-y="248"
     inkscape:window-maximized="0">
    <inkscape:grid
       type="xygrid"
       id="grid2985"
       empspacing="5"
       visible="true"
       enabled="true"
       snapvisiblegridlinesonly="true" />
  </sodipodi:namedview>
  <metadata
     id="metadata7">
    <rdf:RDF>
      <cc:Work
         rdf:about="">
        <dc:format>image/svg+xml</dc:format>
        <dc:type
           rdf:resource="http://purl.org/dc/dcmitype/StillImage" />
        <dc:title></dc:title>
      </cc:Work>
    </rdf:RDF>
  </metadata>
  <g
     inkscape:label="Ebene 1"
     inkscape:groupmode="layer"
     id="layer1"
     transform="translate(0,-1036.3622)">
    <path
       style="opacity:0.6;fill:#10347a;fill-opacity:1;stroke:none"
       d="M 8 1 C 4.1340068 1 1 4.1340068 1 8 C 1 11.865993 4.1340068 15 8 15 C 11.865993 15 15 11.865993 15 8 C 15 4.1340068 11.865993 1 8 1 z M 8 2 C 11.313708 2 14 4.6862915 14 8 C 14 11.313708 11.313708 14 8 14 C 4.6862915 14 2 11.313708 2 8 C 2 4.6862915 4.6862915 2 8 2 z "
       transform="translate(0,1036.3622)"
       id="path3017" />
    <path
       sodipodi:type="arc"
       style="opacity:1;fill:url(#linearGradient4048);fill-opacity:1.0;stroke:none"
       id="path3854"
       sodipodi:cx="8"
       sodipodi:cy="8"
       sodipodi:rx="6"
       sodipodi:ry="6"
       d="m 14,8 c 0,3.313708 -2.686292,6 -6,6 C 4.6862915,14 2,11.313708 2,8 2,4.6862915 4.6862915,2 8,2 c 3.313708,0 6,2.6862915 6,6 z"
       transform="translate(0,1036.3622)" />
    <path
       style="fill:#ffffff;fill-opacity:1;stroke:none;opacity:1"
       d="m 8,1038.3622 c -3.313708,0 -6,2.6863 -6,6 0,0.1245 0.023779,0.2524 0.03125,0.375 0.30726,-3.0255 2.862148,-5.375 5.96875,-5.375 3.106602,0 5.66149,2.3495 5.96875,5.375 0.0075,-0.1226 0.03125,-0.2505 0.03125,-0.375 0,-3.3137 -2.686292,-6 -6,-6 z"
       id="path3798"
       inkscape:connector-curvature="0" />
    <path
       style="opacity:0.3;fill:#ffffff;fill-opacity:1;stroke:none"
       d="M 1.03125,1044.8622 C 1.01958,1045.0275 1,1045.194 1,1045.3622 c 0,3.866 3.1340068,7 7,7 3.865993,0 7,-3.134 7,-7 0,-0.1682 -0.01958,-0.3347 -0.03125,-0.5 -0.256529,3.6325 -3.270982,6.5 -6.96875,6.5 -3.6977678,0 -6.7122214,-2.8675 -6.96875,-6.5 z"
       id="path3826"
       inkscape:connector-curvature="0" />
    <path
       sodipodi:type="arc"
       style="fill:url(#linearGradient4100);fill-opacity:1;stroke:none"
       id="path4092"
       sodipodi:cx="8"
       sodipodi:cy="8"
       sodipodi:rx="2"
       sodipodi:ry="2"
       d="M 10,8 C 10,9.1045695 9.1045695,10 8,10 6.8954305,10 6,9.1045695 6,8 6,6.8954305 6.8954305,6 8,6 c 1.1045695,0 2,0.8954305 2,2 z"
       transform="translate(0,1036.3622)" />
    <path
       style="fill:#242328;fill-opacity:1;stroke:none"
       d="m 8,1042.3622 c -1.1045695,0 -2,0.8954 -2,2 0,0.1726 0.021396,0.3402 0.0625,0.5 0.2219627,-0.8627 1.0055195,-1.5 1.9375,-1.5 0.9319805,0 1.7155373,0.6373 1.9375,1.5 0.041104,-0.1598 0.0625,-0.3274 0.0625,-0.5 0,-1.1046 -0.8954305,-2 -2,-2 z"
       id="path4092-5"
       inkscape:connector-curvature="0" />
    <path
       style="fill:#ffffff;fill-opacity:1;stroke:none"
       d="m 8,1047.3622 c -1.1045695,0 -2,-0.8954 -2,-2 0,-0.1726 0.021396,-0.3402 0.0625,-0.5 0.2219627,0.8627 1.0055195,1.5 1.9375,1.5 0.9319805,0 1.7155373,-0.6373 1.9375,-1.5 0.041104,0.1598 0.0625,0.3274 0.0625,0.5 0,1.1046 -0.8954305,2 -2,2 z"
       id="path4092-5-6"
       inkscape:connector-curvature="0" />
  </g>
</svg>
