/* XPM */
static char * close_prelight_xpm[] = {
"22 22 44 1",
" 	c None",
".	c #6D6D6D",
"+	c #FFFFFF",
"@	c #F6F6F7",
"#	c #F0F0F1",
"$	c #A4A4A5",
"%	c #6C6C6C",
"&	c #525253",
"*	c #A5A5A6",
"=	c #E0E0E1",
"-	c #676767",
";	c #545455",
">	c #5F5F5F",
",	c #646464",
"'	c #59595A",
")	c #656565",
"!	c #FAFAFA",
"~	c #B6B6B7",
"{	c #B4B4B4",
"]	c #FCFCFC",
"^	c #666666",
"/	c #BCBCBC",
"(	c #BBBBBB",
"_	c #B9B9B9",
":	c #C2C2C2",
"<	c #535354",
"[	c #BEBEBE",
"}	c #C4C4C4",
"|	c #B6B6B6",
"1	c #BDBDBD",
"2	c #5E5E5E",
"3	c #F5F5F7",
"4	c #646465",
"5	c #BABABA",
"6	c #F0F0F2",
"7	c #666667",
"8	c #F1F1F3",
"9	c #E1E1E2",
"0	c #636364",
"a	c #F2F2F3",
"b	c #A6A6A7",
"c	c #6C6C6D",
"d	c #F6F6F8",
"e	c #F7F7F8",
"......................",
"++++++++++++++++++++++",
"@@@@@@@@@@@@@@@@@@@@@@",
"@@@@@@@@@@@@@@@@@@@@@@",
"@@@@@@@@@@@@@@@@@@@@@@",
"@@@@@@@#$%&&%*#@@@@@@@",
"@@@@@@=-;>,,>;-=@@@@@@",
"@@@@@#-'))))))'-#@@@@@",
"@@@@@$;)!~)){]^;*@@@@@",
"@@@@@%>)/+(_+:)>.@@@@@",
"@@@@@<,)^[++}^),<@@@@@",
"@@@@@<,))|++:^),;@@@@@",
"@@@@@%>)_+[1+()2.@@@@@",
"33333*;4!5^^_!^;*33333",
"3333367'444444'7833333",
"33333397;>002;79333333",
"3333333abc<<cba3333333",
"33333333@deed@33333333",
"3333333333333333333333",
"3333333333333333333333",
"3333333333333333333333",
"3333333333333333333333"};
