/* XPM */
static char * close_pressed_xpm[] = {
"22 22 49 1",
" 	c None",
".	c #6D6D6D",
"+	c #FFFFFF",
"@	c #F6F6F7",
"#	c #EFEFF0",
"$	c #9D9D9D",
"%	c #606060",
"&	c #444444",
"*	c #DEDEDF",
"=	c #5A5A5B",
"-	c #4D4D4D",
";	c #515151",
">	c #5B5B5C",
",	c #494949",
"'	c #525252",
")	c #484848",
"!	c #C9C9C9",
"~	c #929292",
"{	c #919191",
"]	c #9F9F9F",
"^	c #5F5F5F",
"/	c #979797",
"(	c #CACACA",
"_	c #949495",
":	c #949494",
"<	c #9B9B9B",
"[	c #454545",
"}	c #535353",
"|	c #979798",
"1	c #969696",
"2	c #99999A",
"3	c #464646",
"4	c #5F5F60",
"5	c #989898",
"6	c #606061",
"7	c #F5F5F7",
"8	c #9C9C9D",
"9	c #515152",
"0	c #9E9EA0",
"a	c #EFEFF1",
"b	c #F1F1F3",
"c	c #DFDFE0",
"d	c #4C4C4D",
"e	c #505051",
"f	c #F2F2F3",
"g	c #9F9FA0",
"h	c #444445",
"i	c #F6F6F8",
"j	c #F7F7F8",
"......................",
"++++++++++++++++++++++",
"@@@@@@@@@@@@@@@@@@@@@@",
"@@@@@@@@@@@@@@@@@@@@@@",
"@@@@@@@@@@@@@@@@@@@@@@",
"@@@@@@@#$%&&%$#@@@@@@@",
"@@@@@@*=&-;;-&>*@@@@@@",
"@@@@@#=,'''''')>#@@@@@",
"@@@@@$&'!~''{!'&]@@@@@",
"@@@@@^-'/(_:(<'-%@@@@@",
"@@@@@[;'}|(($}';[@@@@@",
"@@@@@[;'}1((2}';3@@@@@",
"@@@@@4-':(55(_'-6@@@@@",
"777778&9!_}}_!9&077777",
"77777a=)999999)=b77777",
"777777c=&deed&=c777777",
"7777777fg^hh4gf7777777",
"77777777@ijji@77777777",
"7777777777777777777777",
"7777777777777777777777",
"7777777777777777777777",
"7777777777777777777777"};
