/* XPM */
static char * close_prelight_xpm[] = {
"24 24 46 1",
" 	c None",
".	c #6D6D6D",
"+	c #FFFFFF",
"@	c #F6F6F7",
"#	c #F0F0F1",
"$	c #A4A4A5",
"%	c #6C6C6C",
"&	c #525253",
"*	c #A5A5A6",
"=	c #E0E0E1",
"-	c #676767",
";	c #545455",
">	c #5F5F5F",
",	c #646464",
"'	c #59595A",
")	c #656565",
"!	c #FAFAFA",
"~	c #B6B6B7",
"{	c #B4B4B4",
"]	c #FCFCFC",
"^	c #666666",
"/	c #BCBCBC",
"(	c #BBBBBB",
"_	c #B9B9B9",
":	c #C2C2C2",
"<	c #535354",
"[	c #BEBEBE",
"}	c #C4C4C4",
"|	c #B6B6B6",
"1	c #F5F5F7",
"2	c #6B6B6C",
"3	c #646465",
"4	c #B8B8B9",
"5	c #BDBDBD",
"6	c #5E5E5E",
"7	c #6C6C6D",
"8	c #BABABA",
"9	c #F0F0F2",
"0	c #666667",
"a	c #F1F1F3",
"b	c #E1E1E2",
"c	c #636364",
"d	c #F2F2F3",
"e	c #A6A6A7",
"f	c #F6F6F8",
"g	c #F7F7F8",
"........................",
"++++++++++++++++++++++++",
"@@@@@@@@@@@@@@@@@@@@@@@@",
"@@@@@@@@@@@@@@@@@@@@@@@@",
"@@@@@@@@@@@@@@@@@@@@@@@@",
"@@@@@@@@@@@@@@@@@@@@@@@@",
"@@@@@@@@#$%&&%*#@@@@@@@@",
"@@@@@@@=-;>,,>;-=@@@@@@@",
"@@@@@@#-'))))))'-#@@@@@@",
"@@@@@@$;)!~)){]^;*@@@@@@",
"@@@@@@%>)/+(_+:)>.@@@@@@",
"@@@@@@<,)^[++}^),<@@@@@@",
"@@@@@@<,))|++:^),;@@@@@@",
"1111112>34+[5+(367111111",
"111111*;3!8^^_!^;*111111",
"11111190'333333'0a111111",
"1111111b0;>cc6;0b1111111",
"11111111de7<<7ed11111111",
"111111111@fggf@111111111",
"111111111111111111111111",
"111111111111111111111111",
"111111111111111111111111",
"111111111111111111111111",
"111111111111111111111111"};
