/* XPM */
static char * hide_prelight_xpm[] = {
"22 22 30 1",
" 	c None",
".	c #6D6D6D",
"+	c #FFFFFF",
"@	c #F6F6F7",
"#	c #F0F0F1",
"$	c #A4A4A5",
"%	c #6C6C6C",
"&	c #525253",
"*	c #A5A5A6",
"=	c #E0E0E1",
"-	c #676767",
";	c #545455",
">	c #5F5F5F",
",	c #646464",
"'	c #59595A",
")	c #656565",
"!	c #535354",
"~	c #5E5E5E",
"{	c #F5F5F7",
"]	c #646465",
"^	c #F0F0F2",
"/	c #666667",
"(	c #F1F1F3",
"_	c #E1E1E2",
":	c #636364",
"<	c #F2F2F3",
"[	c #A6A6A7",
"}	c #6C6C6D",
"|	c #F6F6F8",
"1	c #F7F7F8",
"......................",
"++++++++++++++++++++++",
"@@@@@@@@@@@@@@@@@@@@@@",
"@@@@@@@@@@@@@@@@@@@@@@",
"@@@@@@@@@@@@@@@@@@@@@@",
"@@@@@@@#$%&&%*#@@@@@@@",
"@@@@@@=-;>,,>;-=@@@@@@",
"@@@@@#-'))))))'-#@@@@@",
"@@@@@$;))))))));*@@@@@",
"@@@@@%>))))))))>.@@@@@",
"@@@@@!,)++++++),!@@@@@",
"@@@@@!,)++++++),;@@@@@",
"@@@@@%>))))))))~.@@@@@",
"{{{{{*;]]]]]]]];*{{{{{",
"{{{{{^/']]]]]]'/({{{{{",
"{{{{{{_/;>::~;/_{{{{{{",
"{{{{{{{<[}!!}[<{{{{{{{",
"{{{{{{{{@|11|@{{{{{{{{",
"{{{{{{{{{{{{{{{{{{{{{{",
"{{{{{{{{{{{{{{{{{{{{{{",
"{{{{{{{{{{{{{{{{{{{{{{",
"{{{{{{{{{{{{{{{{{{{{{{"};
