/* XPM */
static char * maximize_pressed_xpm[] = {
"24 24 45 1",
" 	c None",
".	c #6D6D6D",
"+	c #FFFFFF",
"@	c #F6F6F7",
"#	c #EFEFF0",
"$	c #9D9D9D",
"%	c #606060",
"&	c #444444",
"*	c #DEDEDF",
"=	c #5A5A5B",
"-	c #4D4D4D",
";	c #515151",
">	c #5B5B5C",
",	c #494949",
"'	c #525252",
")	c #484848",
"!	c #555555",
"~	c #A4A4A4",
"{	c #CACACA",
"]	c #B3B3B3",
"^	c #9F9F9F",
"/	c #5F5F5F",
"(	c #454545",
"_	c #535353",
":	c #A7A7A8",
"<	c #545455",
"[	c #A1A1A1",
"}	c #464646",
"|	c #F5F5F7",
"1	c #5F5F60",
"2	c #4C4C4D",
"3	c #515152",
"4	c #606061",
"5	c #9C9C9D",
"6	c #B4B4B4",
"7	c #9E9EA0",
"8	c #EFEFF1",
"9	c #F1F1F3",
"0	c #DFDFE0",
"a	c #505051",
"b	c #F2F2F3",
"c	c #9F9FA0",
"d	c #444445",
"e	c #F6F6F8",
"f	c #F7F7F8",
"........................",
"++++++++++++++++++++++++",
"@@@@@@@@@@@@@@@@@@@@@@@@",
"@@@@@@@@@@@@@@@@@@@@@@@@",
"@@@@@@@@@@@@@@@@@@@@@@@@",
"@@@@@@@@@@@@@@@@@@@@@@@@",
"@@@@@@@@#$%&&%$#@@@@@@@@",
"@@@@@@@*=&-;;-&>*@@@@@@@",
"@@@@@@#=,'''''')>#@@@@@@",
"@@@@@@$&''!~{{]'&^@@@@@@",
"@@@@@@/-'!'!~{{'-%@@@@@@",
"@@@@@@(;_:<'_[{';(@@@@@@",
"@@@@@@(;_{:<'_[';}@@@@@@",
"||||||12_{{~<3<324||||||",
"||||||5&36{{~<33&7||||||",
"||||||8=)333333)=9||||||",
"|||||||0=&2aa2&=0|||||||",
"||||||||bc/dd1cb||||||||",
"|||||||||@effe@|||||||||",
"||||||||||||||||||||||||",
"||||||||||||||||||||||||",
"||||||||||||||||||||||||",
"||||||||||||||||||||||||",
"||||||||||||||||||||||||"};
