/* XPM */
static char * maximize_prelight_xpm[] = {
"22 22 39 1",
" 	c None",
".	c #6D6D6D",
"+	c #FFFFFF",
"@	c #F6F6F7",
"#	c #F0F0F1",
"$	c #A4A4A5",
"%	c #6C6C6C",
"&	c #525253",
"*	c #A5A5A6",
"=	c #E0E0E1",
"-	c #676767",
";	c #545455",
">	c #5F5F5F",
",	c #646464",
"'	c #59595A",
")	c #656565",
"!	c #686868",
"~	c #CECECE",
"{	c #E0E0E0",
"]	c #535354",
"^	c #666666",
"/	c #D1D1D2",
"(	c #69696A",
"_	c #C9C9C9",
":	c #5E5E5E",
"<	c #F5F5F7",
"[	c #646465",
"}	c #E2E2E2",
"|	c #676768",
"1	c #F0F0F2",
"2	c #666667",
"3	c #F1F1F3",
"4	c #E1E1E2",
"5	c #636364",
"6	c #F2F2F3",
"7	c #A6A6A7",
"8	c #6C6C6D",
"9	c #F6F6F8",
"0	c #F7F7F8",
"......................",
"++++++++++++++++++++++",
"@@@@@@@@@@@@@@@@@@@@@@",
"@@@@@@@@@@@@@@@@@@@@@@",
"@@@@@@@@@@@@@@@@@@@@@@",
"@@@@@@@#$%&&%*#@@@@@@@",
"@@@@@@=-;>,,>;-=@@@@@@",
"@@@@@#-'))))))'-#@@@@@",
"@@@@@$;))!~++{);*@@@@@",
"@@@@@%>)!)!~++)>.@@@@@",
"@@@@@],^/()-_+),]@@@@@",
"@@@@@],^+/()-_),;@@@@@",
"@@@@@%>^++~!)!):.@@@@@",
"<<<<<*;[}++~|[[;*<<<<<",
"<<<<<12'[[[[[['23<<<<<",
"<<<<<<42;>55:;24<<<<<<",
"<<<<<<<678]]876<<<<<<<",
"<<<<<<<<@9009@<<<<<<<<",
"<<<<<<<<<<<<<<<<<<<<<<",
"<<<<<<<<<<<<<<<<<<<<<<",
"<<<<<<<<<<<<<<<<<<<<<<",
"<<<<<<<<<<<<<<<<<<<<<<"};
