/* XPM */
static char * maximize_pressed_xpm[] = {
"22 22 45 1",
" 	c None",
".	c #6D6D6D",
"+	c #FFFFFF",
"@	c #F6F6F7",
"#	c #EFEFF0",
"$	c #9D9D9D",
"%	c #606060",
"&	c #444444",
"*	c #DEDEDF",
"=	c #5A5A5B",
"-	c #4D4D4D",
";	c #515151",
">	c #5B5B5C",
",	c #494949",
"'	c #525252",
")	c #484848",
"!	c #555555",
"~	c #A4A4A4",
"{	c #CACACA",
"]	c #B3B3B3",
"^	c #9F9F9F",
"/	c #5F5F5F",
"(	c #454545",
"_	c #535353",
":	c #A7A7A8",
"<	c #545455",
"[	c #A1A1A1",
"}	c #464646",
"|	c #5F5F60",
"1	c #606061",
"2	c #F5F5F7",
"3	c #9C9C9D",
"4	c #515152",
"5	c #B4B4B4",
"6	c #9E9EA0",
"7	c #EFEFF1",
"8	c #F1F1F3",
"9	c #DFDFE0",
"0	c #4C4C4D",
"a	c #505051",
"b	c #F2F2F3",
"c	c #9F9FA0",
"d	c #444445",
"e	c #F6F6F8",
"f	c #F7F7F8",
"......................",
"++++++++++++++++++++++",
"@@@@@@@@@@@@@@@@@@@@@@",
"@@@@@@@@@@@@@@@@@@@@@@",
"@@@@@@@@@@@@@@@@@@@@@@",
"@@@@@@@#$%&&%$#@@@@@@@",
"@@@@@@*=&-;;-&>*@@@@@@",
"@@@@@#=,'''''')>#@@@@@",
"@@@@@$&''!~{{]'&^@@@@@",
"@@@@@/-'!'!~{{'-%@@@@@",
"@@@@@(;_:<'_[{';(@@@@@",
"@@@@@(;_{:<'_[';}@@@@@",
"@@@@@|-_{{~!'!'-1@@@@@",
"222223&45{{~<44&622222",
"222227=)444444)=822222",
"2222229=&0aa0&=9222222",
"2222222bc/dd|cb2222222",
"22222222@effe@22222222",
"2222222222222222222222",
"2222222222222222222222",
"2222222222222222222222",
"2222222222222222222222"};
