/* XPM */
static char * stick_pressed_xpm[] = {
"16 22 4 1",
" 	c None",
".	c #F6F6F7",
"+	c #939394",
"@	c #F5F5F7",
"                ",
"                ",
"................",
"................",
"................",
"................",
"................",
".......++.......",
".......++.......",
".......++.......",
"....++++++++....",
"....++++++++....",
".......++.......",
"@@@@@@@++@@@@@@@",
"@@@@@@@++@@@@@@@",
"@@@@@@@@@@@@@@@@",
"@@@@@@@@@@@@@@@@",
"@@@@@@@@@@@@@@@@",
"@@@@@@@@@@@@@@@@",
"@@@@@@@@@@@@@@@@",
"@@@@@@@@@@@@@@@@",
"@@@@@@@@@@@@@@@@"};
